<svg width="160" height="33" viewBox="0 0 160 33" fill="none" xmlns="http://www.w3.org/2000/svg">
<g id="Anghami logo" clip-path="url(#clip0_2320_120842)">
<g id="Group 62">
<path id="Vector" d="M39.9295 16.0176C40.1055 24.6248 32.9064 32.0176 23.9824 32C15.1287 31.9824 8 24.7481 8 15.9824C8 7.19914 15.2167 -0.0175696 24 3.21302e-05C32.9416 3.21302e-05 40.1584 7.48077 39.9295 16.0176ZM10.6931 16.0176C10.4466 22.9879 16.4664 29.3245 23.8416 29.3597C31.2519 29.3949 37.3949 23.5335 37.3773 15.9648C37.3597 8.25524 31.0583 2.62269 23.9824 2.60509C16.6072 2.60509 10.429 8.94171 10.6931 16.0176Z" fill="white"/>
<path id="Vector_2" d="M78.8892 24.7999H79.2412C80.4381 24.9583 80.4381 24.9583 80.8605 26.1024C81.0894 26.7185 81.4766 27.2289 82.0399 27.5809C83.4832 28.461 84.9618 28.4962 86.4403 27.6689C87.8308 26.9121 88.1829 24.7295 87.4612 23.4797C87.1268 22.8989 86.986 22.8109 86.3347 22.9693C84.8561 23.3213 83.3952 23.3213 81.9166 22.9165C79.5404 22.2476 77.657 19.9946 77.3578 17.5304C77.1818 16.1046 77.2522 14.7317 77.7098 13.3763C78.5371 11.0001 80.9662 9.16953 83.6064 9.09912C84.7153 9.08152 85.8418 9.06393 86.8803 9.52157C87.25 9.69759 87.4964 9.48637 87.7252 9.23994C88.042 8.90551 88.3589 8.57107 88.8869 8.50067C89.2918 8.44786 89.679 8.48307 89.9606 8.72949C90.4359 9.11673 90.8407 9.57437 91.2808 10.0144C91.492 10.2256 91.4568 10.4369 91.2632 10.6305C90.9463 10.9473 90.6471 11.2641 90.3303 11.5634C90.0839 11.8098 90.0839 12.021 90.2423 12.3378C91.5624 15.0309 91.5272 17.6888 89.9958 20.2938C89.8374 20.5755 89.7494 20.7691 89.9958 21.0507C91.1928 22.3532 91.4392 23.9726 91.2984 25.6447C91.1048 27.8274 90.0839 29.5347 88.2357 30.7317C87.6196 31.1365 86.9331 31.3829 86.2115 31.5237C83.9761 31.9814 81.8462 31.7526 79.9277 30.4148C78.2731 29.2707 77.4458 27.6337 77.217 25.68C77.1466 25.0287 77.2522 24.9055 77.9211 24.9759H78.0091C78.3083 24.9583 78.6075 24.9583 78.8892 24.7999ZM87.6196 16.175C87.6196 13.9924 86.3523 12.7251 84.2577 12.6371C82.3039 12.5491 80.7373 14.1332 80.7373 16.1574C80.7373 17.9176 82.1455 19.713 84.2225 19.6602C86.3171 19.6426 87.6196 18.34 87.6196 16.175ZM136.095 11.1409C136.728 10.5425 137.397 10.0144 138.189 9.67998C141.41 8.32465 145.864 9.06393 147.606 12.9539C147.958 13.7284 148.17 14.5557 148.17 15.4181V22.1948C148.17 23.1277 148.099 23.1981 147.184 23.2157C146.656 23.2157 146.128 23.2333 145.6 23.2157C144.896 23.1981 144.79 23.0925 144.772 22.3884C144.755 20.8571 144.79 19.3433 144.755 17.812C144.737 16.9319 144.86 16.0518 144.632 15.1893C144.227 13.6228 143.065 12.6723 141.463 12.6547C139.193 12.6195 137.785 13.9924 137.785 16.2806V22.1772C137.785 23.1629 137.732 23.1981 136.728 23.2157C136.236 23.2157 135.725 23.2333 135.232 23.2157C134.511 23.1981 134.405 23.0925 134.405 22.3884C134.387 21.2091 134.405 20.0474 134.405 18.8681C134.405 17.9352 134.423 16.9847 134.405 16.0518C134.37 14.4677 133.455 13.1475 132.064 12.7779C129.371 12.0738 127.488 13.7108 127.435 16.1046C127.4 18.1288 127.435 20.153 127.417 22.1772C127.417 23.1629 127.364 23.1981 126.361 23.2157H124.988C124.161 23.1981 124.073 23.1101 124.055 22.318C124.038 21.8252 124.055 21.3147 124.055 20.8219V10.3488V9.64478C124.055 9.29274 124.214 9.09912 124.583 9.09912C125.358 9.08152 126.132 9.06393 126.713 9.69759C127.012 10.0144 127.294 9.97921 127.646 9.80319C129.283 8.95831 131.025 8.94071 132.786 9.27514C133.93 9.50396 134.933 10.0496 135.778 10.8593C135.848 10.9473 135.972 11.0353 136.095 11.1409ZM118.968 10.12C119.25 9.11673 119.25 9.11673 120.236 9.11673C120.799 9.11673 121.345 9.09913 121.908 9.11673C122.506 9.13433 122.594 9.25754 122.647 9.856C122.665 10.032 122.647 10.208 122.647 10.3841V22.0716C122.647 22.2476 122.629 22.4236 122.647 22.5997C122.665 23.0397 122.471 23.2157 122.031 23.2333C120.922 23.3037 120.024 22.9517 119.356 21.9836C117.331 23.2509 115.202 23.5501 112.931 22.9341C111.593 22.582 110.537 21.8076 109.604 20.7691C107.703 18.6393 107.703 13.9044 109.463 11.7042C110.625 10.2608 112.086 9.34555 113.899 9.13433C115.659 8.94071 117.402 9.11673 118.968 10.12ZM115.114 19.6778C117.173 19.6778 118.563 18.1992 118.581 16.0694C118.599 14.5381 117.226 12.5843 115.008 12.6371C113.177 12.6723 111.558 14.186 111.593 16.2278C111.628 18.252 113.072 19.6778 115.114 19.6778ZM57.063 10.1552C57.2566 8.99351 57.239 9.15193 58.5592 9.13433H59.8441C60.6538 9.15193 60.6714 9.18714 60.689 10.0496V22.7229C60.689 23.0925 60.513 23.2509 60.1609 23.2685C59.1576 23.3213 58.2247 23.1629 57.5911 22.2652C57.5383 22.1948 57.4503 22.1596 57.3974 22.1068C53.2082 24.4302 49.6175 22.9341 47.9277 21.1211C45.6043 18.6217 45.8859 14.0628 47.3117 12.0738C48.4206 10.5249 49.8639 9.50397 51.7649 9.23994C53.5955 8.95831 55.3733 9.13433 57.063 10.1552ZM53.1026 12.6723C51.3073 12.5843 49.6351 13.8868 49.6703 16.1926C49.7055 18.6041 51.3777 19.713 53.1554 19.6778C55.1972 19.6426 56.5878 18.2168 56.623 16.175C56.6582 13.9044 54.9332 12.5139 53.1026 12.6723ZM96.4381 9.80319C97.8814 9.18713 99.2368 9.02872 100.627 9.11673C103.778 9.31035 106.277 11.757 106.682 14.6437C106.876 16.0694 106.788 17.5128 106.805 18.9385C106.823 20.0826 106.823 21.2267 106.805 22.3708C106.788 23.1277 106.682 23.2157 105.925 23.2333C105.345 23.2509 104.746 23.2509 104.165 23.2333C103.373 23.2157 103.268 23.1277 103.268 22.3004C103.268 20.153 103.285 18.0232 103.268 15.8758C103.25 14.3268 102.37 13.1475 100.874 12.7955C99.0959 12.3554 97.3182 12.9363 96.5965 14.7845C96.4381 15.1893 96.4205 15.5766 96.4205 15.999V22.0716C96.4205 22.3004 96.4205 22.5468 96.4029 22.7757C96.3853 23.0397 96.2269 23.2333 95.9628 23.2333C95.118 23.2509 94.2555 23.2509 93.4106 23.2333C93.0938 23.2333 92.9353 23.0221 92.9177 22.7229C92.9001 22.494 92.9001 22.2476 92.9001 22.0188V4.96272V4.52268C92.9353 3.92422 92.9881 3.87141 93.569 3.85381C93.745 3.83621 93.921 3.85381 94.097 3.85381C95.646 3.85381 96.4029 4.61069 96.4205 6.17724C96.4381 7.05733 96.4205 7.93741 96.4205 8.8175C96.4381 9.06393 96.4381 9.34555 96.4381 9.80319ZM62.0971 16.1046V10.0144C62.0971 9.09913 62.1147 9.09913 63.0476 9.08153C63.6637 9.06393 64.2269 9.15193 64.6846 9.57437C65.0894 9.94401 65.459 9.856 65.9343 9.66238C68.4161 8.71189 70.8628 8.71189 73.1158 10.296C74.876 11.5282 75.8617 13.2179 75.8441 15.4357V22.3004C75.8441 23.1805 75.8088 23.1981 74.964 23.2157H73.3094C73.3094 23.2157 72.4645 23.1805 72.4469 22.3884C72.4293 20.9803 72.4469 19.5722 72.4469 18.164C72.4469 17.4247 72.4645 16.7031 72.4469 15.9638C72.4117 13.9924 71.074 12.7075 69.1026 12.6547C67.7473 12.6195 66.7088 13.1475 65.9871 14.2564C65.5294 14.9605 65.4942 15.8054 65.4766 16.6327C65.459 18.4456 65.4766 20.2762 65.459 22.0892V22.7053C65.4766 23.0221 65.3358 23.2157 65.019 23.3917H62.5547C62.1499 23.2157 62.0971 22.9341 62.1147 22.5997V16.1046H62.0971ZM149.578 16.087V10.1024C149.578 9.11673 149.595 9.09912 150.546 9.09912C152.183 9.09912 153.116 9.99681 153.116 11.6514C153.133 15.1717 153.116 18.6921 153.116 22.2124C153.116 23.1277 153.028 23.2157 152.112 23.2157H150.528C149.683 23.1981 149.578 23.1101 149.578 22.23V16.087ZM151.303 7.05733C149.895 7.05733 149.56 6.70529 149.578 5.27955C149.595 4.10024 150.053 3.66019 151.25 3.64259C151.461 3.64259 151.655 3.62499 151.866 3.64259C152.658 3.69539 153.045 4.06503 153.116 4.83951C153.133 4.96272 153.116 5.06833 153.116 5.19154C153.168 6.49407 152.922 7.19814 151.303 7.05733Z" fill="white"/>
<path id="Vector_3" d="M18.7411 15.9651C18.4771 15.5251 18.0899 15.2435 17.773 14.909C15.5552 12.656 16.2417 9.01244 19.1108 7.74512C20.1669 7.26987 21.0998 7.85073 21.0998 8.99484C21.1174 13.6241 21.1174 18.2533 21.0998 22.8826C21.0998 24.2203 20.1845 24.7484 18.97 24.2027C17.333 23.4635 16.4705 22.1433 16.4001 20.436C16.3297 18.9926 16.9282 17.6901 18.0899 16.7396C18.3011 16.5108 18.5827 16.3348 18.7411 15.9651Z" fill="white"/>
<path id="Vector_4" d="M24.6064 16.0003V22.4953C24.6064 22.7593 24.6064 23.0233 24.5536 23.2874C24.448 23.7978 24.0431 24.1322 23.5679 24.1499C23.075 24.1675 22.6174 23.7978 22.5118 23.2698C22.4766 23.0937 22.4766 22.9177 22.4766 22.7417C22.4766 18.3413 22.4942 13.9585 22.4942 9.55802C22.4942 9.22359 22.5294 8.90676 22.6526 8.60753C22.8286 8.18509 23.2334 7.92106 23.6911 7.95626C24.1135 7.99146 24.5184 8.3259 24.5888 8.78354C24.624 9.01237 24.624 9.25879 24.624 9.48761C24.624 11.6526 24.624 13.8176 24.6064 16.0003C24.624 16.0003 24.624 16.0003 24.6064 16.0003Z" fill="white"/>
<path id="Vector_5" d="M26.0098 15.9997V12.673V12.409C26.045 11.5641 26.4498 11.0712 27.0835 11.0888C27.7172 11.1064 28.122 11.5993 28.122 12.4618C28.1396 14.838 28.122 17.1966 28.122 19.5729C28.122 19.6961 28.122 19.8017 28.1044 19.9249C27.9988 20.5586 27.5235 20.981 26.9779 20.9282C26.4146 20.8754 26.0098 20.453 25.9922 19.8017C25.9922 18.5168 25.9922 17.2494 26.0098 15.9997Z" fill="white"/>
<path id="Vector_6" d="M29.5352 15.9643C29.5352 15.7355 29.5176 15.4891 29.5352 15.2603C29.6056 14.7498 29.9048 14.4682 30.3977 14.3978C30.9081 14.3274 31.2777 14.4858 31.4714 14.961C31.753 15.6299 31.753 16.334 31.489 17.0204C31.2954 17.5133 30.8729 17.6893 30.3273 17.5837C29.852 17.4957 29.588 17.1964 29.5352 16.6684C29.5 16.4396 29.5352 16.2108 29.5352 15.9643Z" fill="white"/>
</g>
</g>
<defs>
<clipPath id="clip0_2320_120842">
<rect width="160" height="32.64" fill="white" transform="matrix(1 0 0 -1 0 0)"/>
</clipPath>
</defs>
</svg>
