<svg xmlns="http://www.w3.org/2000/svg" width="93" height="24" viewBox="0 0 93 24" fill="none">
    <path d="M9.33669 0.0368786C8.68265 0.248821 7.94934 1.5068 7.47368 3.21601C7.30522 3.82449 6.95342 5.479 6.84937 6.15585C6.78992 6.55239 6.62145 8.02231 6.54713 8.82222C6.24984 12.0971 6.47776 16.1103 7.14666 19.3509C7.548 21.2858 8.28131 23.1044 8.89076 23.6787C9.90649 24.6427 10.9321 23.3847 11.6902 20.2397C12.0024 18.9612 12.3492 16.6025 12.4037 15.4334C12.4136 15.2967 12.4285 17.1632 12.4434 19.5902L12.4681 24L12.815 23.9795C14.5541 23.8906 16.105 21.4635 16.9423 17.5392C17.6211 14.3395 17.6657 10.1896 17.0513 6.88055C16.7838 5.41747 16.2635 3.73561 15.7532 2.66906C15.6095 2.36824 15.3122 1.87599 15.0942 1.57517C14.4451 0.672705 13.796 0.221474 12.9785 0.105247C12.7307 0.071064 12.5078 0.0573902 12.483 0.0778999C12.4632 0.0984116 12.4384 2.07426 12.4384 4.46715C12.4334 8.37782 12.4235 8.74701 12.369 8.07016C12.2353 6.50453 11.9181 4.54236 11.5961 3.29805C11.2839 2.09477 10.9916 1.38374 10.5605 0.782095C10.0799 0.112085 9.73803 -0.0930214 9.33669 0.0368786Z" fill="url(#paint0_linear_3658_950)"/>
    <path d="M4.16096 2.81931C3.96277 2.87401 3.59116 3.45514 3.39792 4.00892C2.8529 5.60191 2.53579 8.15205 2.48624 11.3175C2.43174 14.7701 2.70921 17.8125 3.25423 19.7063C3.60107 20.9301 3.96277 21.5044 4.39384 21.5044C5.10238 21.5044 5.74155 19.3645 6.01902 16.0349C6.13793 14.5718 6.16766 10.5039 6.06857 8.91094C5.88524 6.03263 5.50372 4.07046 4.95869 3.23636C4.70104 2.83982 4.49789 2.73043 4.16096 2.81931Z" fill="url(#paint1_linear_3658_950)"/>
    <path d="M0.986493 6.70123C0.870217 6.73304 0.652199 7.07097 0.53883 7.39299C0.21907 8.31932 0.0330276 9.80223 0.0039585 11.643C-0.0280175 13.6506 0.134769 15.4198 0.454529 16.5211C0.658013 17.2327 0.870217 17.5667 1.12312 17.5667C1.53881 17.5667 1.9138 16.3223 2.07658 14.3861C2.14635 13.5354 2.16379 11.1698 2.10565 10.2435C1.9981 8.56978 1.77427 7.42877 1.45451 6.94375C1.30335 6.71316 1.18416 6.64955 0.986493 6.70123Z" fill="url(#paint2_linear_3658_950)"/>
    <path d="M17.7803 12.1379V21.436H17.919C18.3749 21.436 19.0487 21.0122 19.5194 20.4173C20.9414 18.6466 21.7986 14.7633 21.6054 10.9825C21.4072 7.20858 20.3865 4.22772 18.9595 3.25005C18.6028 3.01076 18.1568 2.83984 17.8695 2.83984C17.7852 2.83984 17.7803 3.32525 17.7803 12.1379Z" fill="url(#paint3_linear_3658_950)"/>
    <path d="M21.959 9.41708C21.9791 10.3264 21.9942 12.2065 21.9942 13.6012L21.9992 16.1377L22.1048 15.9668C22.2758 15.6865 22.5774 14.743 22.6931 14.1208C22.8288 13.3551 22.9193 12.0424 22.8741 11.3177C22.8037 10.0529 22.5473 8.84279 22.1953 8.07706C21.9339 7.52328 21.9238 7.59165 21.959 9.41708Z" fill="url(#paint4_linear_3658_950)"/>
    <path d="M87.9391 14.3221C87.9391 16.1352 88.9054 17.3147 90.5643 17.3147C91.1441 17.3147 91.7238 17.1034 92.1265 16.769V15.7127C91.74 16.0648 91.2085 16.2937 90.6448 16.2937C89.6141 16.2937 88.9376 15.5543 88.9376 14.2869V11.928L87.9391 11.9456V14.3221Z" fill="white"/>
    <path d="M86.2803 9.56914H87.9391H88.9376H92.1265V8.58335H88.9376V6.3125H87.9391V8.58335H86.2803V9.56914Z" fill="white"/>
    <path d="M81.0299 9.42874C79.2583 9.42874 78.3081 11.0307 78.3081 12.8438V17.1215H77.3096V12.7558C77.3096 10.2913 78.6785 8.39014 81.0299 8.39014C83.4296 8.39014 84.8307 10.2737 84.8307 12.7382V17.1215H83.8322V12.8614C83.8322 11.0307 82.8498 9.42874 81.0299 9.42874Z" fill="white"/>
    <path d="M66.3042 17.3151C65.5795 17.3151 65.1285 16.8574 64.9353 15.9772L63.373 8.58377H64.3233L65.821 15.766C65.9016 16.1357 66.0465 16.3117 66.3042 16.3117C66.5297 16.3117 66.6907 16.1181 66.7552 15.8188L68.1402 9.7104C68.3496 8.81262 68.8005 8.39014 69.5092 8.39014C70.2017 8.39014 70.6526 8.81262 70.8459 9.69279L72.2148 15.8188C72.2954 16.1357 72.4564 16.3117 72.698 16.3117C72.9396 16.3117 73.0845 16.1357 73.165 15.766L74.6467 8.58377H75.5808L74.0347 15.9772C73.8415 16.875 73.4066 17.3151 72.698 17.3151C71.9572 17.3151 71.5545 16.875 71.3613 16.0124L69.9923 9.86883C69.9118 9.53436 69.7346 9.35833 69.4931 9.35833C69.2515 9.35833 69.0743 9.53436 69.0099 9.86883L67.6248 16.0124C67.4316 16.875 67.0289 17.3151 66.3042 17.3151Z" fill="white"/>
    <path d="M60.6522 21.047H61.6507V12.8262C61.6507 10.3265 59.8469 8.39014 57.5439 8.39014C55.2086 8.39014 53.4531 10.3969 53.4531 12.8262C53.4531 15.3435 55.1925 17.3151 57.4955 17.3151H57.5439V16.2765C55.8206 16.2765 54.4517 14.7098 54.4517 12.8438C54.4517 10.9778 55.8206 9.42874 57.5439 9.42874C59.2832 9.42874 60.6522 10.9778 60.6522 12.8438V15.4667V21.047Z" fill="white"/>
    <path d="M52.0098 12.8262C52.0098 15.2907 50.2221 17.2975 47.9029 17.2975C45.5999 17.2975 43.8122 15.2907 43.8122 12.8262C43.8122 10.3969 45.5677 8.39014 47.9029 8.39014V9.42874C46.1797 9.42874 44.8107 10.9778 44.8107 12.8438C44.8107 14.7098 46.1797 16.2589 47.9029 16.2589C49.6423 16.2589 51.0112 14.7098 51.0112 12.8438C51.0112 12.2419 50.8688 11.673 50.6175 11.1784L51.4693 10.6186C51.8136 11.269 52.0098 12.023 52.0098 12.8262Z" fill="white"/>
    <path d="M40.4834 4.6582H41.4966V17.1215H40.4834V4.6582Z" fill="white"/>
    <path d="M30.4443 12.8265C30.4443 15.379 32.1676 17.2978 34.4707 17.2978C35.904 17.2978 37.128 16.5936 37.8367 15.1853L37.0636 14.7277C36.4999 15.8191 35.5336 16.2592 34.4707 16.2592C32.8118 16.2592 31.5878 14.9741 31.4268 13.2314C31.3885 12.9503 31.4323 12.5275 31.459 12.3512C31.6039 10.6965 32.6669 9.41141 34.2935 9.41141C35.8718 9.41141 37.0153 10.5732 37.0475 12.3512H34.2532V13.2314H38.046V12.58C38.046 10.1508 36.5643 8.3728 34.2935 8.3728C32.0065 8.3728 30.4443 10.362 30.4443 12.8265Z" fill="white"/>
    <defs>
        <linearGradient id="paint0_linear_3658_950" x1="11.9512" y1="0" x2="11.9512" y2="24" gradientUnits="userSpaceOnUse">
            <stop stop-color="#E3F5FF"/>
            <stop offset="1" stop-color="#A9C5DB"/>
        </linearGradient>
        <linearGradient id="paint1_linear_3658_950" x1="4.30386" y1="2.79036" x2="4.30386" y2="21.5044" gradientUnits="userSpaceOnUse">
            <stop stop-color="#E3F5FF"/>
            <stop offset="1" stop-color="#A9C5DB"/>
        </linearGradient>
        <linearGradient id="paint2_linear_3658_950" x1="1.07033" y1="6.6844" x2="1.07033" y2="17.5667" gradientUnits="userSpaceOnUse">
            <stop stop-color="#E3F5FF"/>
            <stop offset="1" stop-color="#A9C5DB"/>
        </linearGradient>
        <linearGradient id="paint3_linear_3658_950" x1="19.7064" y1="2.83984" x2="19.7064" y2="21.436" gradientUnits="userSpaceOnUse">
            <stop stop-color="#E3F5FF"/>
            <stop offset="1" stop-color="#A9C5DB"/>
        </linearGradient>
        <linearGradient id="paint4_linear_3658_950" x1="22.4151" y1="7.77257" x2="22.4151" y2="16.1377" gradientUnits="userSpaceOnUse">
            <stop stop-color="#E3F5FF"/>
            <stop offset="1" stop-color="#A9C5DB"/>
        </linearGradient>
    </defs>
</svg>