<svg width="160" height="29" viewBox="0 0 160 29" fill="none" xmlns="http://www.w3.org/2000/svg">
<g id="Group">
<g id="Group_2">
<g id="Group_3">
<path id="Vector" d="M33.3864 17.6C33.3864 21.3866 34.7998 23.0133 36.8264 23.0133C38.9598 23.0133 40.2664 21.36 40.2664 17.6C40.2664 14.6666 38.9598 12.4533 36.9064 12.5599C34.1864 12.5599 33.3864 15.36 33.3864 17.6ZM36.7731 7.19995C43.8398 7.19995 48.1864 11.36 48.1864 17.6C48.1864 24.9333 43.2264 28.3733 36.7998 28.3733C30.3731 28.3733 25.4131 24.8533 25.4131 18.0266C25.4398 11.0666 30.0264 7.19995 36.7731 7.19995Z" fill="white"/>
<path id="Vector_2" d="M63.52 15.5466C63.52 13.7066 61.8933 12.0799 60 12.0799C57.6267 12.0799 56.2933 13.4133 56.2933 15.5466H63.52ZM56.2933 19.5733C56.2933 21.9466 58.1333 23.5199 60.24 23.5199C61.4933 23.5199 62.64 22.9333 63.2267 21.7599H70.8267C69.44 26.7199 64.4 28.3733 59.7333 28.3733C53.3067 28.3733 48.3467 24.7199 48.3467 17.9733C48.3467 11.3866 53.28 7.19995 59.68 7.19995C67.0933 7.19995 71.5733 12.3199 71.4667 19.5733H56.2933Z" fill="white"/>
<path id="Vector_3" d="M85.947 15.4133C85.9203 14.5333 85.6003 13.8399 85.1203 13.3599C84.6403 12.8266 83.947 12.5599 83.067 12.5599C80.0803 12.5599 79.5736 15.6533 79.5736 18.0266C79.5736 21.0399 80.7203 23.0399 83.067 23.0399C85.1203 23.0399 85.947 21.6266 86.1603 20.0533H94.187C93.4936 26.1333 88.587 28.3733 83.067 28.3733C76.6136 28.3733 71.627 24.7466 71.627 17.9733C71.627 11.1199 76.4536 7.19995 83.067 7.19995C88.427 7.19995 93.467 9.49328 94.027 15.4133H85.947Z" fill="white"/>
<path id="Vector_4" d="M102.586 22.1865V27.8132H94.6396V0.293213H102.586V13.8932L107.68 7.78655H116.96L109.546 15.5465L117.92 27.8132H108.373L104.08 20.6932L102.586 22.1865Z" fill="white"/>
<path id="Vector_5" d="M129.867 15.5466C129.867 13.7066 128.24 12.0799 126.347 12.0799C123.973 12.0799 122.64 13.4133 122.64 15.5466H129.867ZM122.64 19.5733C122.64 21.9466 124.48 23.5199 126.587 23.5199C127.84 23.5199 128.987 22.9333 129.573 21.7599H137.173C135.787 26.7199 130.747 28.3733 126.08 28.3733C119.653 28.3733 114.693 24.7199 114.693 17.9733C114.693 11.3866 119.627 7.19995 126.027 7.19995C133.44 7.19995 137.92 12.3199 137.787 19.5733C137.813 19.5733 122.64 19.5733 122.64 19.5733Z" fill="white"/>
<path id="Vector_6" d="M138.319 7.78656H145.546V11.8399H145.626C146.719 8.7199 148.693 7.22656 151.786 7.22656C152.133 7.22656 152.479 7.30657 152.826 7.33324V15.2799C152.293 15.1999 151.706 15.0399 151.173 15.0399C147.919 15.0399 146.266 16.5599 146.266 20.8799V27.8132H138.319V7.78656Z" fill="white"/>
<path id="Vector_7" d="M9.06667 16.3734V21.4667H13.0133C15.2267 21.4667 16.9333 21.0134 16.9333 18.9334C16.9333 16.5334 14.8267 16.3734 11.9467 16.3734H9.06667ZM9.06667 6.7734V11.3601H12.8267C14.6133 11.3601 15.9467 10.5601 15.9467 8.96007C15.9467 6.82673 14.1867 6.7734 12.2667 6.7734H9.06667ZM0 27.9201V0.320068H13.1733C19.3867 0.320068 24.32 1.78673 24.32 7.2534C24.32 10.0801 22.48 12.1601 20.72 13.2801C23.7067 14.0534 25.3067 16.6134 25.3067 19.6001C25.3067 25.7601 20.5867 27.9201 13.4133 27.9201H0Z" fill="white"/>
<path id="Vector_8" d="M156.374 0.506665C157.227 0.506665 157.974 0.826663 158.587 1.41333C159.2 2.02666 159.494 2.74666 159.494 3.62666C159.494 4.47999 159.2 5.22666 158.587 5.84C157.974 6.45333 157.227 6.74666 156.374 6.74666C155.52 6.74666 154.774 6.45333 154.16 5.84C153.547 5.22666 153.254 4.47999 153.254 3.62666C153.254 2.77333 153.547 2.02666 154.16 1.41333C154.774 0.799997 155.52 0.506665 156.374 0.506665ZM160 3.62666C160 2.61333 159.654 1.78667 158.934 1.06667C158.24 0.373333 157.36 0 156.374 0C155.387 0 154.507 0.346667 153.814 1.06667C153.094 1.78667 152.747 2.63999 152.747 3.62666C152.747 4.63999 153.094 5.49333 153.787 6.21333C154.507 6.93333 155.36 7.28 156.347 7.28C157.36 7.28 158.214 6.93333 158.907 6.21333C159.654 5.46666 160 4.61333 160 3.62666ZM157.334 2.85333C157.334 3.14666 157.2 3.36 156.934 3.46667C156.8 3.52 156.56 3.54666 156.267 3.54666H155.627V2.13333H156.214C156.614 2.13333 156.88 2.18667 157.067 2.26667C157.254 2.37333 157.334 2.55999 157.334 2.85333ZM154.934 1.62666V5.6H155.627V4.05333H156.187C156.56 4.05333 156.827 4.10666 156.987 4.18666C157.254 4.31999 157.36 4.63999 157.36 5.09333V5.41333L157.387 5.54666C157.387 5.57333 157.387 5.57333 157.387 5.6C157.387 5.62667 157.387 5.62666 157.387 5.62666H158.054L158.027 5.57333C158 5.54666 158 5.46666 158 5.35999C158 5.25333 158 5.14667 158 5.06667V4.77333C158 4.58666 157.92 4.37333 157.787 4.15999C157.654 3.94666 157.414 3.81333 157.12 3.75999C157.36 3.73333 157.547 3.65333 157.68 3.57333C157.947 3.41333 158.08 3.14666 158.08 2.77333C158.08 2.26666 157.867 1.94666 157.467 1.75999C157.227 1.65333 156.854 1.62666 156.374 1.62666H154.934Z" fill="white"/>
</g>
</g>
</g>
</svg>
