<svg width="161" height="63" viewBox="0 0 161 63" fill="none" xmlns="http://www.w3.org/2000/svg">
<g id="Dyson_(Unternehmen)_logo logo">
<path id="path2455" d="M24.0833 31.1092C24.0833 35.0133 20.9187 38.1779 17.0146 38.1779C13.1055 38.1779 9.94095 35.0133 9.94095 31.1092C9.94095 27.2026 13.1055 24.0356 17.0146 24.0356L24.0784 24.0331L24.0833 31.1092ZM31.9161 1.77783H24.0857V16.247C21.4347 16.2494 18.6558 16.2396 17.017 16.2396C8.80583 16.2396 2.15234 22.8931 2.15234 31.1043C2.15234 39.3106 8.80583 45.9641 17.017 45.9641C25.2233 45.9641 31.9161 39.3106 31.9161 31.1043C31.9161 26.9987 31.921 16.2347 31.921 16.2347L31.9161 1.77783Z" fill="#A7A6A6"/>
<path id="path2459" d="M110.89 38.2001C114.809 38.2001 117.993 35.0233 117.993 31.1044C117.993 27.1806 114.809 24.0038 110.89 24.0038C106.971 24.0038 103.795 27.1806 103.795 31.1044C103.795 35.0233 106.971 38.2001 110.89 38.2001ZM96.0625 31.1044C96.0625 22.8957 102.711 16.2446 110.917 16.2446C119.129 16.2446 125.78 22.8957 125.78 31.1044C125.78 39.3058 119.129 45.9593 110.917 45.9593C102.711 45.9593 96.0625 39.3058 96.0625 31.1044Z" fill="#A7A6A6"/>
<path id="path2463" d="M150.775 31.1207C150.775 27.2412 147.633 24.0987 143.758 24.0987C139.874 24.0987 136.731 27.2412 136.731 31.1207C136.731 33.0274 136.734 45.3589 136.734 45.3589C132.746 45.3614 128.898 45.3687 128.898 45.3687C128.898 45.3687 128.898 35.2214 128.898 31.1207C128.898 22.9145 135.549 16.2634 143.758 16.2634C151.96 16.2634 158.601 22.9145 158.601 31.1207C158.601 35.3074 158.606 45.3491 158.606 45.3491C158.606 45.3491 154.756 45.3515 150.775 45.3515C150.775 45.3515 150.775 33.0691 150.775 31.1207Z" fill="#A7A6A6"/>
<path id="path2467" d="M77.7712 25.9395C76.6312 25.1975 77.0046 23.8265 78.84 23.3228C81.2675 22.6545 85.2723 23.195 88.8595 24.7773L92.5597 19.7282C90.9504 18.3867 87.5008 16.6767 82.3854 16.345C82.3854 16.345 73.8376 15.2787 70.3806 21.77C70.3806 21.77 67.3168 27.8338 73.3585 31.6077C77.0317 33.9001 83.4149 34.7133 85.351 35.8067C87.0021 36.7354 86.4566 38.4848 84.0119 39.0376C79.9653 39.9516 74.5182 37.6445 72.6926 36.276L68.9531 41.4356C71.4617 43.3717 74.6852 45.0253 79.7835 45.8631C79.7835 45.8631 87.8178 47.2488 92.2477 41.7255C93.0683 40.7034 96.7022 33.8878 89.3951 29.9984C85.7711 28.0648 79.6999 27.1925 77.7712 25.9395Z" fill="#A7A6A6"/>
<path id="path2471" d="M41.2598 51.1561C41.5841 51.3551 45.2377 53.8588 48.7757 53.9325C57.2817 54.1118 57.8247 45.2569 57.8247 43.1586C56.1908 44.8761 52.8666 45.9547 50.8002 45.9547C42.5915 45.9547 36.0117 39.5272 36.0117 31.3185C36.0117 27.2571 36.0142 16.8101 36.0142 16.8101C36.0142 16.8101 39.8372 16.8174 43.8347 16.8248C43.8347 16.8248 43.847 29.5519 43.847 31.3185C43.847 35.1956 46.9895 38.3381 50.8641 38.3381C54.7461 38.3381 57.8812 35.1956 57.8812 31.3185C57.8812 29.7313 57.8837 16.8248 57.8837 16.8248C61.8861 16.8174 65.7239 16.8101 65.7239 16.8101L65.719 31.3185C65.719 44.1734 66.348 57.3821 53.8272 60.3673C44.3925 62.6203 37.7267 56.7138 37.395 56.4435L41.2598 51.1561Z" fill="#A7A6A6"/>
</g>
</svg>
