<svg width="180" height="28" viewBox="0 0 180 28" fill="none" xmlns="http://www.w3.org/2000/svg">
<g id="idE5UaH6mB_logos 1" clip-path="url(#clip0_2320_120859)">
<g id="Group">
<path id="Vector" d="M84.0791 8.15722C84.0791 10.0815 82.5732 11.5874 80.6489 11.5874C78.7247 11.5874 77.2188 10.0815 77.2188 8.15722C77.2188 6.23298 78.7247 4.72705 80.6489 4.72705C82.5732 4.76888 84.0791 6.27481 84.0791 8.15722Z" fill="#D6E03E"/>
<path id="Vector_2" d="M84.0791 17.6948C84.0791 19.6191 82.5732 21.125 80.6489 21.125C78.7247 21.125 77.2188 19.6191 77.2188 17.6948C77.2188 15.7706 78.7247 14.2646 80.6489 14.2646C82.5732 14.2646 84.0791 15.8542 84.0791 17.6948Z" fill="#D6E03E"/>
<path id="Vector_3" d="M71.0708 11.5874C69.1466 11.5874 67.6406 10.0815 67.6406 8.15722C67.6406 6.23298 69.1466 4.72705 71.0708 4.72705C72.995 4.72705 74.501 6.23298 74.501 8.15722C74.501 10.0815 72.995 11.5874 71.0708 11.5874Z" fill="#D6E03E"/>
<path id="Vector_4" d="M71.0708 21.083C69.1466 21.083 67.6406 19.5771 67.6406 17.6528C67.6406 15.7286 69.1466 14.2227 71.0708 14.2227C72.995 14.2227 74.501 15.7286 74.501 17.6528C74.501 19.5771 72.995 21.083 71.0708 21.083Z" fill="#D6E03E"/>
<path id="Vector_5" d="M37.5233 4.43427C35.7664 4.51793 34.4278 5.43822 33.5075 6.27485C33.3402 6.44217 33.1728 6.6095 33.0055 6.86048C32.0016 5.43822 30.2447 4.26695 27.2328 4.43427C25.8105 4.51793 24.6393 5.10357 23.8026 5.77287V4.76892L18.6992 5.68921V21.0413H23.8445V11.7547C23.8445 10.3325 25.0157 9.07754 26.5217 9.07754C28.0276 9.07754 29.1989 10.2488 29.1989 11.7547V20.9995H34.3023V11.4201C34.4696 10.0815 35.5572 9.16121 36.8958 9.16121C38.4018 9.16121 39.573 10.3325 39.573 11.8384V21.0831H44.6764V10.8345C44.4673 8.32458 43.2123 4.09962 37.5233 4.43427Z" fill="white"/>
<path id="Vector_6" d="M8.49175 16.1887C6.40019 16.1887 4.97792 14.4318 4.97792 12.6749C4.97792 10.918 6.40019 9.24471 8.49175 9.24471C10.5833 9.24471 11.9219 11.0016 11.9219 12.6749C11.9219 14.3481 10.4997 16.1887 8.49175 16.1887ZM11.9219 0.920288V5.85638C11.0016 5.18708 9.83035 4.76877 8.40809 4.6851C3.76482 4.35045 0 7.98977 0 12.6749C0 17.36 4.0158 21.5013 8.65908 21.083C9.99768 20.9993 11.0853 20.581 12.0056 19.9954V20.9156H17.109V0L11.9219 0.920288Z" fill="white"/>
<path id="Vector_7" d="M54.4628 16.1887C52.3712 16.1887 51.0326 14.4318 51.0326 12.6748C51.0326 11.0016 52.4549 9.24468 54.4628 9.24468C56.5543 9.24468 57.8929 11.0016 57.8929 12.6748C57.9766 14.3481 56.5543 16.1887 54.4628 16.1887ZM58.0603 5.27071V6.10733C57.0563 5.35437 55.885 4.85239 54.4628 4.76873C49.7777 4.51774 46.0547 7.94791 46.0547 12.5912C46.0547 17.2345 50.2378 21.5849 54.7974 20.9993C56.136 20.8319 57.2236 20.2463 58.0603 19.577V19.9953C58.0603 22.2542 56.387 23.8438 51.9529 22.8398L49.8613 26.8556C55.0484 28.5289 63.0382 28.0269 63.0382 19.0332V4.43408L58.0603 5.27071Z" fill="white"/>
<path id="Vector_8" d="M102.234 11.6711C102.234 8.57554 100.226 6.48398 96.9634 6.48398C93.9516 6.48398 91.2744 8.99385 91.2744 11.6711H102.234ZM91.1489 13.5953C91.3999 16.8581 93.9097 19.4517 97.1726 19.4517C99.5988 19.4517 101.523 18.1131 102.36 16.6071L104.117 18.0294C102.192 20.4556 99.7661 21.4596 97.1307 21.4596C92.2783 21.4596 88.7227 17.7784 88.7227 12.9678C88.7227 8.03173 92.3201 4.47607 96.8798 4.47607C101.816 4.47607 104.619 8.15723 104.619 12.5495V13.5535H91.1907V13.5953H91.1489Z" fill="white"/>
<path id="Vector_9" d="M114.703 20.9994H112.109L105.5 4.85254H108.261L113.448 18.5314L118.593 4.85254H121.27L114.703 20.9994Z" fill="white"/>
<path id="Vector_10" d="M135.115 11.6711C135.115 8.57554 133.107 6.48398 129.845 6.48398C126.833 6.48398 124.156 8.99385 124.156 11.6711H135.115ZM124.114 13.5953C124.365 16.8581 126.875 19.4517 130.137 19.4517C132.564 19.4517 134.488 18.1131 135.325 16.6071L137.081 18.0294C135.157 20.4556 132.731 21.4596 130.096 21.4596C125.243 21.4596 121.688 17.7784 121.688 12.9678C121.688 8.03173 125.285 4.47607 129.845 4.47607C134.781 4.47607 137.583 8.15723 137.583 12.5495V13.5535H124.156V13.5953H124.114Z" fill="white"/>
<path id="Vector_11" d="M141.893 4.85239C141.977 5.68902 141.977 6.60931 141.977 7.44593H142.061C143.065 5.68902 145.407 4.43408 147.499 4.43408C151.682 4.43408 153.606 6.77663 153.606 10.7924V21.1248H151.347V12.0892C151.347 8.49172 150.343 6.48381 146.913 6.48381C146.411 6.48381 141.977 6.81847 141.977 12.7585V21.0829H139.718V8.40805C139.718 7.57143 139.634 5.98184 139.551 4.81056H141.893V4.85239Z" fill="white"/>
<path id="Vector_12" d="M165.653 6.90199H160.968V16.4814C160.968 18.9076 161.888 19.4095 163.311 19.4095C164.147 19.4095 164.984 19.1586 165.653 18.8239L165.737 20.9155C164.9 21.3338 163.813 21.5011 162.641 21.5011C160.884 21.5011 158.625 20.7481 158.625 17.1507V6.90199H155.195V4.81043H158.625V0.208984H160.884V4.81043H165.569V6.90199H165.653Z" fill="white"/>
<path id="Vector_13" d="M177.407 8.65896C176.737 7.32036 175.566 6.48373 173.893 6.48373C172.303 6.48373 170.546 7.15303 170.546 8.90995C170.546 10.4159 171.634 11.0015 173.726 11.5035L176.068 12.0891C178.327 12.5911 180 14.2643 180 16.5232C180 20.0371 176.821 21.543 173.642 21.543C171.132 21.543 168.873 20.7064 167.367 18.3638L169.375 17.0252C170.295 18.4475 171.718 19.4514 173.642 19.4514C175.482 19.4514 177.49 18.6148 177.49 16.7742C177.49 15.101 176.068 14.599 174.395 14.1807L172.136 13.6787C171.048 13.4277 167.953 12.5074 167.953 9.41192C167.953 6.06542 170.881 4.47583 173.977 4.47583C176.235 4.47583 178.327 5.31246 179.415 7.40402L177.407 8.65896Z" fill="white"/>
</g>
</g>
<defs>
<clipPath id="clip0_2320_120859">
<rect width="180" height="27.6086" fill="white"/>
</clipPath>
</defs>
</svg>
