<svg width="150" height="50" viewBox="0 0 150 50" fill="none" xmlns="http://www.w3.org/2000/svg">
<g clip-path="url(#clip0_2320_120876)">
<path d="M72.6 9.9H73.1V6.9H74.2L74.3 6.5H71.5V6.9H72.7L72.6 9.9ZM75.1 7.3L76.3 9.1H76.6L77.8 7.3V9.9L78.3 9.8V6.5H77.9L76.6 8.5L75.3 6.5H74.8V9.8H75.2L75.1 7.3Z" fill="white"/>
<path d="M79.2 42.8C78.8 43.4 78.3 43.7 77.6 43.8H77.1C75.9 43.8 74.8 43.2 74.2 42.3L74.1 42.2C73.3 41.2 72.2 40.5 70.9 40.2C72.2 39.9 73.3 39.2 74.1 38.2L74.2 38C74.9 37.1 75.9 36.6 77.1 36.6C79.7 36.6 79.9 39.4 79.9 40.2C79.9 41.3 79.7 42.2 79.2 42.8ZM76.4 47.9C78.9 48.7 78.2 51.4 78 52.2C77.7 53.2 77.2 54 76.5 54.5C75.8 55 75 55.1 74.2 54.8C73.1 54.4 72.2 53.6 71.9 52.5V52.3C71.5 51.1 70.7 50.1 69.5 49.4C70 49.5 70.5 49.4 70.9 49.4C71.7 49.3 72.4 49 73.1 48.5L73.3 48.4C74.2 47.8 75.3 47.6 76.4 47.9ZM70.6 55.3C70.1 56.3 69.6 57 68.8 57.3H68.7C68.5 57.4 68.3 57.4 68.1 57.4C67.2 57.5 66.2 57.4 65.4 57C63.3 55.9 62.4 53.5 63.4 51.6C64.4 49.7 66.9 49 69 50C70.1 50.5 70.9 51.4 71.2 52.5L71.3 52.7C71.3 53.6 71.1 54.3 70.6 55.3ZM72.3 58.5C74.4 60 73 62.4 72.5 63.1C71.9 64 71.2 64.5 70.4 64.8C70.3 64.8 70.1 64.9 70 64.9C69.3 65 68.7 64.8 68.1 64.4C67.2 63.7 66.6 62.6 66.6 61.5V61.3C66.6 60 66.1 58.8 65.2 57.8C66.4 58.3 67.7 58.4 68.9 58L69.1 57.9C70.2 57.7 71.4 57.9 72.3 58.5ZM65.7 61.3V61.5C65.7 62.3 65.2 63 64.4 63.8C63.7 64.5 63.1 65 62.4 65.1H62C60.9 65.1 59.8 64.6 58.9 63.8C57.2 62.1 57.1 59.6 58.7 58C60.2 56.5 62.8 56.6 64.5 58.2C65.3 59 65.7 60.1 65.7 61.3ZM65.1 67.3C66.6 69.4 64.5 71.2 63.8 71.7C63.1 72.2 62.4 72.5 61.7 72.6H61.2C60.4 72.6 59.7 72.2 59.1 71.5C58.4 70.6 58.2 69.3 58.6 68.2L58.7 68C59.1 66.8 59 65.5 58.5 64.3C59.5 65.2 60.7 65.7 62 65.7H62.2C63.4 65.9 64.4 66.4 65.1 67.3ZM58 67.9L57.9 68.1C57.6 68.9 56.9 69.4 56 69.9C55.4 70.2 54.9 70.4 54.4 70.5C54.1 70.6 53.7 70.5 53.4 70.4H53.3C52.2 70 51.3 69.3 50.8 68.2C49.7 66.1 50.4 63.6 52.4 62.6C54.3 61.6 56.8 62.5 57.8 64.6C58.2 65.6 58.3 66.8 58 67.9ZM55.5 73.5C56.3 76 53.7 77.1 52.9 77.3C52.6 77.4 52.3 77.5 52 77.5C51.4 77.6 50.8 77.6 50.2 77.4C49.4 77.1 48.8 76.6 48.6 75.7C48.2 74.6 48.4 73.4 49.1 72.4L49.2 72.3C49.9 71.3 50.3 70 50.1 68.7C50.7 69.8 51.8 70.7 53 71.1L53.2 71.2C54.3 71.5 55.2 72.4 55.5 73.5ZM46.1 73.1C45 73.3 44.2 73.3 43.4 72.8L43.3 72.7C42.4 72 41.8 71 41.6 69.8C41.2 67.5 42.7 65.3 44.8 65C46.9 64.7 49 66.3 49.3 68.6C49.5 69.8 49.2 70.9 48.6 71.9L48.5 72C48 72.6 47.2 72.9 46.1 73.1ZM41.8 79.1C41.4 79.2 41.1 79.2 40.9 79.2C39.8 79.2 38.9 79 38.3 78.5C37.6 78 37.3 77.3 37.3 76.4C37.3 75.2 37.9 74.1 38.8 73.5L38.9 73.4C39.9 72.6 40.6 71.5 40.9 70.3C41.2 71.6 41.9 72.7 42.9 73.5L43.1 73.6C44 74.3 44.5 75.3 44.5 76.5C44.5 78.3 42.9 78.9 41.8 79.1ZM35.6 73.1C34.5 72.9 33.7 72.7 33.2 72C33.2 72 33.2 71.9 33.1 71.9C32.4 71 32.2 69.8 32.4 68.6C32.8 66.3 34.8 64.7 36.9 65C39 65.3 40.5 67.5 40.1 69.8C39.9 71 39.3 72 38.4 72.7L38.3 72.8C38 73 37.7 73.1 37.4 73.2C36.8 73.2 36.3 73.2 35.6 73.1ZM33.1 75.7C32.7 76.9 31.9 77.4 31 77.5C30.1 77.6 29.2 77.4 28.7 77.3C27.7 77 26.9 76.5 26.4 75.8C25.9 75.1 25.8 74.3 26.1 73.5C26.5 72.4 27.3 71.5 28.4 71.2L28.6 71.1C29.8 70.7 30.8 69.9 31.5 68.7C31.4 70 31.7 71.3 32.4 72.3L32.5 72.5C33.3 73.5 33.5 74.6 33.1 75.7ZM25.7 69.9C24.7 69.4 24 68.9 23.7 68.1V68C23.4 66.9 23.5 65.7 24 64.7C25.1 62.6 27.5 61.7 29.4 62.7C31.3 63.7 32 66.2 31 68.3C30.5 69.4 29.6 70.1 28.5 70.5C28.5 70.5 28.2 70.6 28.1 70.6C27.3 70.6 26.6 70.3 25.7 69.9ZM23 68.2L23.1 68.4C23.4 69.5 23.2 70.7 22.6 71.6C21.1 73.7 18.7 72.3 18 71.8C17.1 71.2 16.6 70.5 16.3 69.7C16 68.9 16.2 68.1 16.7 67.4C17.4 66.5 18.5 65.9 19.6 65.9H19.8C20.1 65.9 20.3 65.9 20.6 65.8C21.6 65.6 22.5 65.2 23.3 64.5C22.7 65.7 22.6 67 23 68.2ZM17.3 63.7C16.5 62.9 16 62.2 16 61.4V61.3C16 60.2 16.5 59.1 17.3 58.2C19 56.5 21.6 56.4 23.1 58C24.6 59.5 24.5 62.1 22.9 63.8C22.2 64.5 21.4 64.9 20.5 65.1C20.2 65 20 65 19.7 65H19.5C18.7 65 18.1 64.5 17.3 63.7ZM15.2 61.3V61.5C15.2 62.6 14.6 63.7 13.7 64.4C13.3 64.7 12.9 64.9 12.5 64.9C10.9 65.2 9.7 63.7 9.3 63.1C8.7 62.2 8.3 61.4 8.3 60.6C8.3 59.8 8.7 59.1 9.4 58.5C10.3 57.8 11.6 57.6 12.7 58L12.9 58.1C14.1 58.5 15.4 58.4 16.6 57.9C15.7 58.8 15.2 60 15.2 61.3ZM11.2 55.3C10.7 54.3 10.4 53.5 10.7 52.7V52.6C11.1 51.5 11.8 50.6 12.9 50.1C15 49 17.5 49.7 18.5 51.7C19.5 53.6 18.6 56 16.5 57.1C16.1 57.3 15.6 57.5 15.1 57.5C14.4 57.6 13.8 57.6 13.1 57.4H13C12.1 57 11.7 56.3 11.2 55.3ZM9.9 52.4L9.8 52.6C9.4 53.7 8.6 54.5 7.5 54.9C7.3 54.9 7.2 54.9 7 55C4.9 55.3 3.9 53.1 3.7 52.3C3.4 51.3 3.3 50.4 3.6 49.6C3.9 48.8 4.4 48.2 5.3 48C6.4 47.6 7.6 47.8 8.6 48.5L8.7 48.6C9.7 49.3 11 49.7 12.3 49.5C11.2 50.1 10.3 51.1 9.9 52.4ZM7.5 42.4C6.9 43.2 6.1 43.6 5.2 43.8H4.6C2 43.8 1.8 41 1.8 40.2C1.8 39.1 2 38.2 2.5 37.6C3 36.9 3.7 36.6 4.6 36.6C5.8 36.6 6.9 37.2 7.5 38.1L7.6 38.2C8.4 39.2 9.5 39.9 10.8 40.2C9.5 40.5 8.4 41.2 7.6 42.2C7.6 42.3 7.5 42.4 7.5 42.4ZM7 32.6C6.4 32.7 5.9 32.6 5.3 32.5C2.8 31.7 3.5 29 3.7 28.2C4 27.2 4.5 26.4 5.2 25.9C5.9 25.4 6.7 25.3 7.5 25.6C8.6 26 9.5 26.8 9.8 27.9L9.9 28.1C10.3 29.3 11.1 30.3 12.3 31C11 30.9 9.7 31.2 8.7 31.9L8.5 32C8 32.4 7.5 32.6 7 32.6ZM11.2 25.1C11.7 24.1 12.2 23.4 13 23.1H13.1C14.2 22.8 15.4 22.9 16.4 23.4C18.5 24.5 19.4 26.9 18.4 28.8C17.8 29.9 16.8 30.6 15.6 30.8C14.7 30.9 13.8 30.8 12.9 30.4C11.8 29.9 11 29 10.7 27.9L10.6 27.7C10.4 26.9 10.6 26.1 11.2 25.1ZM9.4 21.9C7.3 20.4 8.7 18 9.2 17.3C9.8 16.4 10.5 15.9 11.3 15.6C12.1 15.3 12.9 15.5 13.6 16C14.5 16.7 15.1 17.8 15.1 18.9V19.1C15.1 20.4 15.6 21.6 16.5 22.6C15.3 22.1 14 22 12.8 22.4C12.8 22.4 12.3 22.6 12.1 22.6C11.2 22.7 10.2 22.5 9.4 21.9ZM16 19.2V19C16 18.2 16.5 17.5 17.3 16.7C18.1 15.9 18.8 15.4 19.6 15.4H19.7C20.8 15.4 21.9 15.9 22.8 16.7C24.5 18.4 24.6 20.9 23 22.5C21.5 24 18.9 23.9 17.2 22.3C16.4 21.4 16 20.3 16 19.2ZM16.6 13.1C15 11 17.2 9.2 17.9 8.7C18.8 8.1 19.6 7.7 20.4 7.7C21.2 7.7 21.9 8.1 22.5 8.8C23.2 9.7 23.4 11 23 12.1L22.9 12.3C22.5 13.5 22.6 14.8 23.1 16C22.1 15.1 20.9 14.6 19.6 14.6H19.4C18.3 14.6 17.3 14 16.6 13.1ZM23.7 12.5L23.8 12.3C24.1 11.5 24.8 11 25.8 10.5C26.8 10 27.6 9.7 28.4 10H28.5C29.6 10.4 30.5 11.1 31 12.2C32.1 14.3 31.4 16.8 29.4 17.8C27.5 18.8 25 17.9 24 15.8C23.5 14.8 23.4 13.6 23.7 12.5ZM26.2 7C25.4 4.5 28 3.4 28.8 3.2C29.8 2.9 30.7 2.8 31.5 3.1C32.3 3.4 32.9 3.9 33.1 4.8C33.5 5.9 33.3 7.1 32.6 8.1L32.5 8.2C31.8 9.2 31.4 10.5 31.6 11.8C31 10.7 29.9 9.8 28.7 9.4L28.5 9.3C27.4 8.9 26.6 8.1 26.2 7ZM35.6 7.4C36.7 7.2 37.5 7.2 38.3 7.7C38.3 7.7 38.4 7.7 38.4 7.8C39.3 8.5 39.9 9.5 40.1 10.7C40.5 13 39 15.2 36.9 15.5C34.8 15.8 32.7 14.2 32.4 11.9C32.2 10.7 32.5 9.6 33.1 8.6L33.2 8.5C33.8 7.8 34.5 7.6 35.6 7.4ZM40.9 1.3C42 1.3 42.9 1.5 43.5 2C44.2 2.5 44.5 3.2 44.5 4.1C44.5 5.3 43.9 6.4 43 7L42.8 7.1C41.8 7.9 41.1 9 40.8 10.2C40.5 8.9 39.8 7.8 38.8 7L38.6 6.9C37.7 6.2 37.2 5.2 37.2 4C37.2 1.5 40 1.3 40.9 1.3ZM46.1 7.4C47.2 7.6 48 7.8 48.5 8.5L48.6 8.6C49.3 9.5 49.5 10.7 49.3 11.9C48.9 14.2 46.9 15.8 44.8 15.5C42.7 15.2 41.2 13 41.6 10.7C41.8 9.5 42.4 8.5 43.3 7.8L43.4 7.7C44.1 7.2 45 7.2 46.1 7.4ZM48.6 4.7C49.4 2.2 52.1 2.9 52.9 3.1C53.9 3.4 54.7 3.9 55.2 4.6C55.7 5.3 55.8 6.1 55.5 6.9C55.1 8 54.3 8.9 53.2 9.2L53 9.3C51.8 9.7 50.8 10.5 50.1 11.7C50.2 10.4 49.9 9.1 49.2 8.1L49.1 7.9C48.4 7 48.2 5.8 48.6 4.7ZM56 10.6C57 11.1 57.7 11.6 58 12.4V12.5C58.3 13.6 58.2 14.8 57.7 15.8C56.6 17.9 54.2 18.8 52.3 17.8C50.4 16.8 49.7 14.3 50.7 12.2C51.2 11.1 52.1 10.4 53.2 10L53.4 9.9C54.2 9.8 55 10.1 56 10.6ZM58.7 12.3L58.6 12.1C58.3 11 58.5 9.8 59.1 8.9C60.6 6.8 63 8.2 63.7 8.7C64.6 9.3 65.1 10 65.4 10.8C65.7 11.6 65.5 12.4 65 13.1C64.3 14 63.2 14.6 62.1 14.6H61.9C60.6 14.6 59.4 15.1 58.4 16C59 14.8 59.1 13.5 58.7 12.3ZM64.4 16.7C65.2 17.5 65.7 18.2 65.7 19V19.1C65.7 20.2 65.2 21.3 64.4 22.2C63.7 22.9 62.8 23.3 61.9 23.5C60.7 23.7 59.5 23.4 58.6 22.5C57.1 21 57.2 18.4 58.8 16.7C59.6 15.9 60.7 15.4 61.9 15.4H62.1C63 15.4 63.6 15.9 64.4 16.7ZM66.5 19.1V18.9C66.5 17.8 67.1 16.7 68 16C70.1 14.5 71.9 16.6 72.4 17.3C73 18.2 73.4 19 73.4 19.8C73.4 20.6 73 21.3 72.3 21.9C71.4 22.6 70.1 22.8 69 22.4L68.8 22.3C67.6 21.9 66.3 22 65.1 22.5C66 21.7 66.5 20.4 66.5 19.1ZM70.5 25.1C71 26.1 71.3 26.9 71 27.7V27.8C70.6 28.9 69.9 29.8 68.8 30.3C68.4 30.5 67.9 30.7 67.4 30.7C65.7 31 64 30.2 63.2 28.7C62.2 26.8 63.1 24.4 65.2 23.3C66.3 22.8 67.5 22.7 68.5 23L68.7 23.1C69.6 23.5 70 24.1 70.5 25.1ZM70.5 39.5C68.2 39.9 66 38.4 65.7 36.3C65.4 34.2 67 32.1 69.3 31.8C70.5 31.6 71.6 31.9 72.6 32.5L72.7 32.6C73.4 33.1 73.6 33.9 73.8 35C74 36.1 74 36.9 73.5 37.7C73.5 37.7 73.5 37.8 73.4 37.8C72.7 38.7 71.7 39.3 70.5 39.5ZM65.7 44.1C66 42 68.2 40.5 70.5 40.9C71.7 41.1 72.7 41.7 73.4 42.6L73.5 42.7C74 43.4 74 44.2 73.8 45.3C73.6 46.4 73.4 47.2 72.7 47.7L72.6 47.8C72.1 48.2 71.4 48.4 70.8 48.5C70.3 48.6 69.9 48.6 69.4 48.5C67 48.3 65.4 46.3 65.7 44.1ZM61.8 47.7L58 45.8L62.2 46.5C63 46.6 63.7 46.4 64.2 45.9L64.8 45.3C65 46.8 65.9 48.1 67.2 48.9C65.7 48.7 64.1 49.3 63.1 50.3L63 49.4C63 48.7 62.5 48.1 61.8 47.7ZM62.5 51.2C62.4 51.4 62.3 51.5 62.1 51.6L61 52.2C60.9 52.3 60.8 52.3 60.6 52.3C60.3 52.4 59.9 52.3 59.5 52.1C59 51.9 58.7 51.4 58.6 51L58.4 49.8C58.3 49.4 58.5 49.1 58.9 48.9L60 48.4C60.4 48.2 60.9 48.2 61.3 48.4L61.4 48.5C61.9 48.7 62.2 49.2 62.3 49.6L62.5 50.8C62.6 50.9 62.6 51.1 62.5 51.2ZM56.3 57.8C55.9 57.9 55.4 57.7 55 57.3C54.6 56.9 54.4 56.4 54.5 56L54.7 54.8C54.8 54.4 55 54.1 55.4 54.1L56.6 53.9C57 53.8 57.5 54 57.8 54.3L57.9 54.4C58.3 54.8 58.5 55.3 58.4 55.7L58.2 56.9C58.2 57.1 58.1 57.3 58 57.4C57.9 57.5 57.7 57.6 57.5 57.6L56.3 57.8ZM50.1 61.7C49.7 61.6 49.2 61.3 49 60.8C48.8 60.3 48.7 59.8 48.9 59.4L49.5 58.3C49.7 57.9 50 57.8 50.4 57.8L51.6 58C52 58.1 52.4 58.4 52.6 58.8L52.7 58.9C52.9 59.4 53 59.9 52.8 60.3L52.2 61.4C52.1 61.6 52 61.7 51.8 61.8C51.7 61.8 51.6 61.9 51.6 61.9H51.3L50.1 61.7ZM43 63.5C42.6 63.3 42.3 62.8 42.2 62.3C42.1 61.8 42.3 61.2 42.6 60.9L43.5 60C43.8 59.7 44.2 59.7 44.5 59.8L45.6 60.4C46 60.6 46.2 61 46.3 61.5V61.6C46.4 62.1 46.2 62.7 45.9 63L45 63.9C44.9 64 44.7 64.1 44.5 64.2C44.3 64.2 44.1 64.2 44 64.1C44.1 64.1 43 63.5 43 63.5ZM39 64.2C39.6 63.9 40 63.2 40.2 62.5V62.4L40.9 58.3L41.6 62.5C41.7 63.3 42.2 63.9 42.8 64.3L43.6 64.7C42.3 65.3 41.3 66.6 41 68.1C40.7 66.6 39.7 65.3 38.4 64.7L39 64.2ZM35.7 63.1C35.4 62.8 35.3 62.3 35.3 61.7C35.4 61.2 35.7 60.7 36.1 60.5L37.2 59.9C37.6 59.7 37.9 59.8 38.2 60.1L39.1 61C39.4 61.3 39.5 61.8 39.5 62.2V62.3C39.4 62.8 39.1 63.3 38.7 63.5L37.6 64.1C37.5 64.1 37.4 64.2 37.3 64.2H37.1C36.9 64.2 36.8 64.1 36.6 63.9L35.7 63.1ZM29 58.9C29.3 58.4 29.7 58.1 30.1 58L31.3 57.8C31.7 57.7 32 57.9 32.2 58.3L32.7 59.4C32.9 59.8 32.9 60.3 32.7 60.7L32.6 60.8C32.3 61.3 31.9 61.6 31.5 61.7L30.3 61.9C30.1 61.9 29.9 61.9 29.8 61.8C29.6 61.7 29.5 61.6 29.4 61.4L28.9 60.3C28.7 60 28.7 59.4 29 58.9ZM23.8 54.3C24.2 53.9 24.7 53.7 25.1 53.8L26.3 54C26.7 54.1 27 54.3 27 54.7L27.2 55.9C27.3 56.3 27.1 56.8 26.8 57.1L26.7 57.2C26.4 57.5 26.1 57.7 25.7 57.7H25.3L24.1 57.5C23.9 57.5 23.7 57.4 23.6 57.3C23.5 57.2 23.4 57 23.4 56.8L23.2 55.6C23.2 55.2 23.4 54.7 23.8 54.3ZM19.1 50.7L19.3 49.5C19.4 49.1 19.7 48.6 20.2 48.4C20.7 48.2 21.2 48.1 21.6 48.3L22.7 48.8C23.1 49 23.2 49.3 23.2 49.7L23 51C22.9 51.4 22.6 51.8 22.2 52L22.1 52.1C21.9 52.2 21.7 52.3 21.5 52.3C21.2 52.3 20.9 52.3 20.6 52.2L19.5 51.6C19.3 51.5 19.2 51.4 19.1 51.2V50.7ZM16.8 45.3L17.4 45.9C17.9 46.4 18.7 46.6 19.4 46.5H19.5L23.6 45.9L19.8 47.8C19.1 48.2 18.6 48.8 18.5 49.4L18.4 50.3C17.4 49.2 15.9 48.7 14.3 48.9C15.7 48 16.6 46.7 16.8 45.3ZM16 44.2C16.3 46.3 14.7 48.4 12.4 48.7C11.2 48.9 10.1 48.6 9.1 48L9 47.9C8.3 47.4 8.1 46.6 7.9 45.5C7.7 44.4 7.7 43.6 8.2 42.8L8.3 42.7C9 41.7 10 41.1 11.2 41C13.5 40.6 15.7 42 16 44.2ZM19.9 32.7C19.9 32.7 20 32.7 20 32.8L23.7 34.7L19.5 34C18.7 33.9 18 34.1 17.5 34.6L16.9 35.2C16.7 33.7 15.8 32.4 14.5 31.6H15.9C16.9 31.4 17.9 31 18.6 30.2L18.7 31.1C18.7 31.7 19.2 32.4 19.9 32.7ZM19.2 29.2C19.3 29 19.4 28.9 19.6 28.8L20.7 28.3C21.1 28.1 21.6 28.1 22.1 28.4C22.6 28.6 22.9 29.1 23 29.5L23.2 30.7C23.3 31.1 23.1 31.4 22.7 31.6L21.6 32.1C21.5 32.2 21.4 32.2 21.3 32.2C21 32.2 20.7 32.2 20.3 32.1L20.2 32C19.7 31.8 19.4 31.3 19.3 30.9L19.1 29.7C19.1 29.5 19.1 29.4 19.2 29.2ZM25.4 22.7C25.8 22.6 26.3 22.8 26.7 23.2C27.1 23.6 27.3 24.1 27.2 24.5L27 25.7C26.9 26.1 26.7 26.4 26.3 26.4L25.1 26.6C24.7 26.7 24.2 26.5 23.9 26.2L23.8 26.1C23.4 25.7 23.2 25.2 23.3 24.8L23.5 23.6C23.5 23.4 23.6 23.2 23.7 23.1C23.8 23 24 22.9 24.2 22.9C24.2 22.8 25.4 22.7 25.4 22.7ZM31.6 18.7C32 18.8 32.5 19.1 32.7 19.6C32.9 20.1 33 20.6 32.8 21L32.2 22.1C32.1 22.4 31.9 22.5 31.6 22.6H31.3L30.1 22.4C29.7 22.3 29.3 22 29.1 21.6L29 21.5C28.8 21 28.7 20.5 28.9 20.1L29.5 19C29.6 18.8 29.7 18.7 29.9 18.6C30.1 18.5 30.2 18.5 30.4 18.5L31.6 18.7ZM38.7 16.9C39.1 17.1 39.4 17.6 39.5 18.1C39.6 18.6 39.4 19.2 39.1 19.5L38.2 20.4C38.1 20.5 37.9 20.6 37.7 20.7C37.5 20.7 37.3 20.7 37.2 20.6L36.1 20C35.7 19.8 35.5 19.4 35.4 18.9V18.8C35.3 18.3 35.5 17.7 35.8 17.4L36.7 16.5C36.8 16.4 37 16.3 37.2 16.2C37.4 16.2 37.6 16.2 37.7 16.3L38.7 16.9ZM42.7 16.3C42.1 16.6 41.7 17.3 41.5 18V18.1L40.8 22.2L40.2 18C40.1 17.2 39.6 16.6 39 16.2L38.2 15.8C39.5 15.2 40.5 13.9 40.8 12.4C41.1 13.9 42.1 15.2 43.4 15.8C43.5 15.9 42.7 16.3 42.7 16.3ZM46 17.4C46.3 17.7 46.4 18.2 46.4 18.8C46.3 19.3 46 19.8 45.6 20L44.5 20.6C44.4 20.6 44.3 20.7 44.2 20.7C43.9 20.7 43.7 20.7 43.5 20.4L42.6 19.5C42.3 19.2 42.2 18.7 42.2 18.2V18.1C42.3 17.6 42.6 17.1 43 16.9L44.1 16.3C44.3 16.2 44.5 16.2 44.6 16.2C44.7 16.2 44.9 16.3 45.1 16.5L46 17.4ZM52.7 21.5C52.4 22 52 22.3 51.6 22.4L50.4 22.6C50 22.7 49.7 22.5 49.5 22.1L49 21.1C48.8 20.7 48.8 20.2 49 19.8L49.1 19.7C49.4 19.2 49.8 18.9 50.2 18.8L51.4 18.6C51.6 18.6 51.8 18.6 51.9 18.7C52.1 18.8 52.2 18.9 52.3 19.1L52.8 20.2C53 20.5 53 21 52.7 21.5ZM57.9 26.1C57.6 26.4 57.3 26.6 56.9 26.6H56.5L55.3 26.4C54.9 26.3 54.6 26.1 54.6 25.7L54.4 24.5C54.3 24.1 54.5 23.6 54.8 23.3L54.9 23.2C55.3 22.8 55.8 22.6 56.2 22.7L57.4 22.9C57.6 22.9 57.8 23 57.9 23.1C58 23.2 58.1 23.4 58.1 23.6L58.3 24.8C58.5 25.2 58.3 25.7 57.9 26.1ZM62.6 29.8L62.4 31C62.3 31.4 62 31.9 61.5 32.1C61.3 32.2 61.1 32.3 60.9 32.3C60.6 32.3 60.3 32.3 60 32.2L58.9 31.7C58.5 31.5 58.4 31.2 58.4 30.8L58.6 29.6C58.7 29.2 59 28.8 59.4 28.6L59.5 28.5C60 28.3 60.5 28.2 60.9 28.4L62 29C62.2 29.1 62.3 29.2 62.4 29.4C62.6 29.4 62.6 29.6 62.6 29.8ZM64.9 35.2L64.3 34.6C63.8 34.1 63 33.9 62.3 34H62.2L58 34.7L61.8 32.8C62.5 32.4 63 31.8 63.1 31.2L63.3 30.3C64.3 31.4 65.8 31.9 67.4 31.7C66 32.4 65.1 33.7 64.9 35.2ZM63.1 40.9L58.9 40.2L63.1 39.5C63.9 39.4 64.5 38.9 64.8 38.3L65.2 37.5C65.8 38.8 67.1 39.8 68.6 40.1C67.1 40.4 65.8 41.4 65.2 42.7L64.8 41.9C64.6 41.5 63.9 41 63.1 40.9ZM60.6 43.9C60.4 43.5 60.5 43.2 60.8 42.9L61.7 42C62 41.7 62.5 41.6 63 41.6H63.1C63.6 41.7 64.1 42 64.3 42.4L64.9 43.5C65 43.7 65 43.9 65 44C65 44.2 64.9 44.3 64.7 44.5L63.8 45.4C63.6 45.6 63.3 45.7 63 45.8H62.4C61.9 45.7 61.4 45.4 61.2 45C61.1 44.9 60.6 43.9 60.6 43.9ZM56.9 44.3L56.3 43.2C56.1 42.8 56.2 42.5 56.5 42.2L57.4 41.3C57.7 41 58.3 40.9 58.8 40.9L61.3 41.3L61.2 41.4L60.3 42.3C60 42.6 59.9 42.9 59.8 43.2C59.7 43.5 59.8 43.9 60 44.2L60.6 45.3C60.6 45.4 60.7 45.4 60.7 45.5L58.1 45C57.6 45 57.1 44.7 56.9 44.3ZM51.5 52.9L51.7 51.7C51.8 51.3 52 51 52.4 51L53.6 50.8C54 50.7 54.6 50.9 54.9 51.3L56.7 53.1H56.5L55.3 53.3C54.9 53.4 54.6 53.5 54.4 53.7C54.2 53.9 54 54.2 54 54.6L53.8 55.8V56L52 54.2C51.6 53.9 51.4 53.3 51.5 52.9ZM50.3 51.1C49.8 51.2 49.2 51 48.8 50.6C48.1 49.9 48.1 48.8 48.8 48.2C49.5 47.5 50.6 47.5 51.2 48.2C51.9 48.9 51.9 50 51.2 50.6C51 50.9 50.7 51.1 50.3 51.1ZM49.1 51.6C49.7 51.9 50.3 51.9 50.9 51.7L50.7 52.9C50.6 53.3 50.7 53.8 51 54.3C50.7 53.9 50.2 53.7 49.8 53.6L48.6 53.4C49 52.8 49.2 52.2 49.1 51.6ZM47 55.5L47.5 54.4C47.7 54 48 53.9 48.4 53.9L49.6 54.1C50 54.2 50.5 54.5 50.7 55L51.8 57.2H51.6L50.4 57C50 56.9 49.7 57 49.4 57.1C49.1 57.2 48.9 57.5 48.7 57.8L48.3 59C48.3 59.1 48.2 59.1 48.2 59.2L47.1 57C46.8 56.5 46.8 55.9 47 55.5ZM42 56.7L42.9 55.8C43.2 55.5 43.6 55.5 43.9 55.6L45 56.2C45.4 56.4 45.7 56.9 45.8 57.4L46.2 59.9L46.1 59.8L45 59.2C44.7 59 44.3 59 44 59C43.7 59.1 43.4 59.2 43.1 59.5L42.2 60.4L42.1 60.5L41.7 58C41.5 57.5 41.7 57 42 56.7ZM39.4 55.3C40 55.1 40.5 54.7 40.8 54.2C41.1 54.7 41.6 55.1 42.2 55.3L41.4 56.1C41.1 56.4 40.9 56.9 40.8 57.4C40.7 56.9 40.5 56.5 40.2 56.1L39.4 55.3ZM36 57.4C36.1 56.9 36.4 56.4 36.8 56.2L37.9 55.6C38.3 55.4 38.6 55.5 38.9 55.8L39.8 56.7C40.1 57 40.3 57.6 40.2 58.1L39.8 60.5L39.7 60.4L38.8 59.5C38.5 59.2 38.2 59.1 37.9 59C37.6 59 37.2 59 36.9 59.2L35.8 59.8C35.7 59.8 35.7 59.9 35.6 59.9L36 57.4ZM34.2 53.3C33.4 52.9 33 51.8 33.4 51C33.8 50.2 34.9 49.8 35.7 50.3C36.5 50.7 36.9 51.8 36.5 52.6C36.2 53.1 35.8 53.4 35.2 53.5C34.9 53.6 34.5 53.5 34.2 53.3ZM30.9 55.1C31.2 54.6 31.6 54.3 32 54.2L33.2 54C33.6 53.9 33.9 54.1 34.1 54.5L34.6 55.6C34.8 56 34.8 56.5 34.5 57L33.4 59.2C33.4 59.1 33.4 59.1 33.3 59L32.9 58C32.7 57.7 32.5 57.4 32.2 57.3C31.9 57.2 31.6 57.1 31.2 57.2L30 57.3H29.8L30.9 55.1ZM31 52.8L30.8 51.6C31.4 51.8 32 51.8 32.6 51.5C32.5 52.1 32.7 52.7 33.1 53.2L31.9 53.4C31.5 53.5 31 53.7 30.7 54.1C30.9 53.7 31 53.3 31 52.8ZM30.4 48.2C31.1 47.5 32.2 47.5 32.8 48.2C33.5 48.9 33.5 50 32.8 50.6C32.5 50.9 32.2 51 31.9 51.1C31.4 51.2 30.8 51 30.4 50.6C29.7 50 29.7 48.9 30.4 48.2ZM26.8 51.3C27.2 50.9 27.7 50.7 28.1 50.8L29.3 51C29.7 51.1 30 51.3 30 51.7L30.2 52.9C30.3 53.3 30.1 53.9 29.7 54.2L28 56V55.8L27.8 54.6C27.7 54.2 27.6 53.9 27.4 53.7C27.2 53.5 26.9 53.3 26.5 53.3L25.3 53.1H25.1C25 53.1 26.8 51.3 26.8 51.3ZM21.2 45.3L21.8 44.2C22 43.9 22 43.5 22 43.2C21.9 42.9 21.8 42.6 21.5 42.3L20.6 41.4L20.5 41.3L23 40.9C23.5 40.8 24.1 41 24.4 41.3L25.3 42.2C25.6 42.5 25.6 42.9 25.5 43.2L24.9 44.3C24.7 44.7 24.2 45 23.7 45.1L21.2 45.5V45.3ZM16.9 43.5L17.5 42.4C17.7 42 18.2 41.7 18.7 41.6C19.2 41.5 19.8 41.7 20.1 42L21 42.9C21.3 43.2 21.3 43.6 21.2 43.9L20.6 45C20.4 45.4 20 45.6 19.5 45.7H19.4C18.9 45.8 18.3 45.6 18 45.3L17.1 44.4C17 44.3 16.9 44.1 16.8 43.9C16.8 43.8 16.8 43.7 16.9 43.5ZM18.6 39.5H18.7L22.8 40.2L18.6 40.9C17.8 41 17.2 41.5 16.8 42.1L16.4 42.9C15.8 41.6 14.5 40.6 13 40.3C14.5 40 15.8 39 16.4 37.7L16.8 38.5C17.1 39 17.8 39.4 18.6 39.5ZM21.1 36.6C21.3 37 21.2 37.3 20.9 37.6L20 38.5C19.8 38.7 19.5 38.8 19.2 38.9H18.6C18.1 38.8 17.6 38.5 17.4 38.1L16.8 37C16.7 36.8 16.7 36.6 16.7 36.5C16.7 36.3 16.8 36.2 17 36L17.9 35.1C18.2 34.8 18.7 34.7 19.3 34.7C19.8 34.8 20.3 35.1 20.5 35.5C20.6 35.5 21.1 36.6 21.1 36.6ZM24.8 36.2L25.4 37.3C25.6 37.7 25.5 38 25.2 38.3L24.3 39.2C24.1 39.4 23.8 39.5 23.5 39.6H22.9L20.4 39.2L20.5 39.1L21.4 38.2C21.7 37.9 21.8 37.6 21.9 37.3C22 37 21.9 36.6 21.7 36.3L21.1 35.2C21.1 35.1 21 35.1 21 35L23.5 35.4C24.1 35.5 24.6 35.8 24.8 36.2ZM30.2 27.6L30 28.8C29.9 29.2 29.7 29.5 29.3 29.5L28.1 29.7C27.7 29.8 27.1 29.6 26.8 29.2L25 27.4H25.2L26.4 27.2C26.8 27.1 27.1 27 27.3 26.8C27.5 26.6 27.7 26.3 27.7 25.9L27.9 24.7V24.5L29.7 26.3C30.1 26.6 30.3 27.1 30.2 27.6ZM32.8 29.8C33.5 30.5 33.5 31.6 32.8 32.2C32.5 32.5 32.2 32.6 31.9 32.7C31.4 32.8 30.8 32.6 30.4 32.2C29.7 31.5 29.7 30.4 30.4 29.8C31.1 29.1 32.2 29.1 32.8 29.8ZM32.6 28.9C32 28.6 31.4 28.6 30.8 28.8L31 27.6C31.1 27.2 31 26.7 30.7 26.2C31 26.6 31.5 26.8 31.9 26.9L33.1 27.1C32.7 27.7 32.5 28.3 32.6 28.9ZM34.7 24.9L34.1 26C33.9 26.4 33.6 26.5 33.2 26.5L32 26.2C31.6 26.1 31.1 25.8 30.9 25.3L29.8 23.1H30L31.2 23.3H31.7C31.9 23.3 32 23.2 32.2 23.2C32.5 23.1 32.7 22.8 32.9 22.5L33.5 21.4C33.5 21.3 33.5 21.3 33.6 21.2L34.7 23.4C34.9 24 34.9 24.5 34.7 24.9ZM39.7 23.8L38.8 24.7C38.7 24.8 38.5 24.9 38.3 25C38.1 25 37.9 25 37.8 24.9L36.7 24.3C36.4 24 36.1 23.5 36 23L35.6 20.5L35.7 20.6L36.8 21.2C37.1 21.4 37.5 21.4 37.8 21.4C38.1 21.3 38.4 21.2 38.7 20.9L39.6 20L39.7 19.9L40.1 22.4C40.2 22.9 40 23.4 39.7 23.8ZM42.3 25.1C41.7 25.3 41.2 25.7 40.9 26.2C40.6 25.7 40.1 25.3 39.5 25.1L40.3 24.3C40.6 24 40.8 23.5 40.9 23C41 23.5 41.2 23.9 41.5 24.3L42.3 25.1ZM45.7 23C45.6 23.5 45.3 24 44.9 24.2L43.8 24.8C43.7 24.8 43.6 24.9 43.5 24.9C43.2 24.9 43 24.9 42.8 24.6L41.9 23.7C41.6 23.4 41.5 22.9 41.5 22.3L41.9 19.9L42 20L42.9 20.9C43.2 21.2 43.5 21.3 43.8 21.4C44.1 21.4 44.5 21.4 44.8 21.2L45.9 20.6C46 20.6 46 20.5 46.1 20.5L45.7 23ZM47.6 27.1C48.4 27.5 48.8 28.6 48.3 29.4C48 29.9 47.6 30.2 47 30.3C46.7 30.4 46.3 30.3 46 30.1C45.2 29.7 44.8 28.6 45.2 27.8C45.7 27 46.7 26.7 47.6 27.1ZM50.8 25.3C50.5 25.8 50.1 26.1 49.7 26.2L48.5 26.4C48.1 26.5 47.8 26.3 47.6 25.9L47 24.9C46.8 24.5 46.8 24 47.1 23.5L48.2 21.3C48.2 21.4 48.2 21.4 48.3 21.5L48.8 22.6C49 22.9 49.2 23.2 49.5 23.3C49.8 23.4 50.1 23.5 50.5 23.4L51.7 23.2H51.9C51.9 23.1 50.8 25.3 50.8 25.3ZM50.7 27.6L50.9 28.8C50.3 28.6 49.7 28.6 49.1 28.9C49.2 28.3 49 27.7 48.6 27.2L49.8 27C50.2 26.9 50.7 26.7 51 26.3C50.8 26.7 50.7 27.2 50.7 27.6ZM51.3 32.2C51 32.5 50.7 32.6 50.4 32.7C49.9 32.8 49.3 32.6 48.9 32.2C48.2 31.5 48.2 30.4 48.9 29.8C49.6 29.1 50.7 29.1 51.3 29.8C52 30.5 52 31.6 51.3 32.2ZM54.9 29.1C54.6 29.4 54.3 29.6 53.9 29.6H53.5L52.3 29.4C51.9 29.3 51.6 29.1 51.6 28.7L51.4 27.5C51.3 27.1 51.5 26.5 51.9 26.2L53.7 24.5V24.7L53.9 25.9C54 26.3 54.1 26.6 54.3 26.8C54.5 27 54.8 27.2 55.2 27.2L56.4 27.4H56.6C56.7 27.4 54.9 29.1 54.9 29.1ZM56 41.6C55.8 41 55.4 40.5 54.9 40.2C55.4 39.9 55.8 39.4 56 38.8L56.8 39.6C57.1 39.9 57.6 40.1 58.1 40.2C57.6 40.3 57.2 40.5 56.8 40.8C56.9 40.8 56 41.6 56 41.6ZM55.7 43.5L56.2 44.5C56.4 44.9 56.8 45.2 57.2 45.4C56.7 45.3 56.2 45.4 55.8 45.6L54.7 46.1C54.7 45.5 54.5 44.9 54.1 44.4C54.8 44.4 55.4 44.1 55.7 43.5ZM50.9 45.4C51.3 44.6 52.4 44.2 53.2 44.6C54 45 54.4 46.1 54 46.9C53.7 47.4 53.3 47.7 52.7 47.8C52.4 47.9 52 47.8 51.7 47.6C50.8 47.2 50.5 46.2 50.9 45.4ZM49.9 44.5C49.2 44.3 48.9 43.6 49.1 42.9C49.2 42.6 49.4 42.3 49.7 42.2C50 42 50.3 42 50.7 42.1C51.4 42.3 51.7 43 51.5 43.7C51.5 43.8 51.5 43.8 51.4 43.9C51.3 44.1 51.1 44.3 50.8 44.4C50.7 44.5 50.6 44.5 50.4 44.5C50.2 44.6 50 44.5 49.9 44.5ZM48.1 47C47.5 46.6 47.4 45.8 47.8 45.2C48 44.9 48.3 44.7 48.6 44.7C48.9 44.6 49.3 44.7 49.5 44.9C50.1 45.3 50.2 46.1 49.8 46.7C49.8 46.8 49.7 46.8 49.7 46.9C49.5 47.1 49.3 47.2 49 47.3C48.7 47.3 48.4 47.2 48.1 47ZM46 50.3C46.8 49.9 47.9 50.2 48.3 51C48.7 51.8 48.4 52.9 47.6 53.3C47.4 53.4 47.3 53.4 47.1 53.5C46.4 53.6 45.6 53.3 45.3 52.6C44.8 51.8 45.1 50.7 46 50.3ZM44.3 50.8H44.1C43.8 50.8 43.6 50.8 43.3 50.7C43 50.5 42.8 50.3 42.7 50C42.5 49.3 42.8 48.6 43.5 48.4C43.8 48.3 44.2 48.3 44.5 48.5C44.8 48.7 45 48.9 45.1 49.2C45.3 49.9 45 50.6 44.3 50.8ZM42.6 51.4C43.5 51.3 44.4 51.9 44.6 52.8C44.7 53.7 44.1 54.6 43.2 54.8C42.3 54.9 41.4 54.3 41.2 53.4C41 52.4 41.7 51.5 42.6 51.4ZM40 51C39.8 50.8 39.6 50.4 39.6 50.1C39.6 49.4 40.2 48.8 40.9 48.8C41.2 48.8 41.6 48.9 41.8 49.2C42 49.4 42.2 49.8 42.2 50.1C42.2 50.7 41.7 51.3 41.1 51.4H40.7C40.4 51.3 40.1 51.2 40 51ZM37.1 52.8C37.2 51.9 38.1 51.2 39.1 51.4C40 51.5 40.7 52.4 40.5 53.4C40.4 54.2 39.8 54.7 39.1 54.8H38.6C37.6 54.6 37 53.7 37.1 52.8ZM36.6 49.2C36.8 48.5 37.5 48.2 38.2 48.4C38.5 48.5 38.8 48.7 38.9 49C39.1 49.3 39.1 49.6 39 50C38.8 50.5 38.4 50.8 38 50.9H37.4C37.3 50.9 37.3 50.9 37.2 50.8C37 50.7 36.8 50.5 36.6 50.2C36.5 49.9 36.5 49.5 36.6 49.2ZM47.7 47.5C48.1 48.1 48 48.9 47.4 49.3C47.3 49.3 47.3 49.4 47.2 49.4C47.1 49.5 47 49.5 46.8 49.5H46.4C46.1 49.4 45.8 49.3 45.6 49C45.2 48.4 45.3 47.6 45.9 47.2C46.2 47 46.5 46.9 46.8 47C47.2 47 47.5 47.2 47.7 47.5ZM47.7 33C47.5 33.3 47.2 33.5 46.9 33.5C46.6 33.5 46.2 33.5 46 33.3C45.7 33.1 45.5 32.8 45.5 32.5C45.4 32.2 45.5 31.8 45.7 31.6C46.1 31 46.9 30.9 47.5 31.3C47.6 31.3 47.6 31.4 47.7 31.4C47.9 31.6 48 31.8 48.1 32.1C48 32.4 47.9 32.7 47.7 33ZM50.1 34.6C50 34.9 49.9 35.2 49.6 35.4C49.4 35.5 49.2 35.6 49.1 35.6C48.6 35.7 48.2 35.5 47.9 35.1C47.7 34.8 47.6 34.5 47.7 34.2C47.8 33.9 47.9 33.6 48.2 33.4C48.8 33 49.6 33.1 50 33.7C50 33.8 50.1 33.8 50.1 33.9V34.6ZM51.5 36.8V37C51.5 37.3 51.5 37.5 51.4 37.8C51.2 38.1 51 38.3 50.7 38.4H50.5C49.9 38.5 49.3 38.1 49.1 37.5C49 37.2 49 36.8 49.2 36.5C49.4 36.2 49.6 36 49.9 35.9C50.5 35.8 51.2 36.1 51.5 36.8ZM52 40.2V40.4C52 40.7 51.8 40.9 51.6 41.1C51.4 41.3 51.2 41.4 50.9 41.5H50.7C50 41.5 49.4 40.9 49.4 40.2C49.4 39.9 49.5 39.5 49.8 39.3C50 39.1 50.4 38.9 50.7 38.9C51.4 39 52 39.5 52 40.2ZM54 33.5C54.4 34.3 54.1 35.4 53.2 35.8C53 35.9 52.9 35.9 52.7 36C52 36.1 51.2 35.8 50.9 35.1C50.5 34.3 50.8 33.2 51.7 32.8C52.5 32.4 53.6 32.7 54 33.5ZM54.2 35.9C54.6 35.4 54.8 34.8 54.8 34.2L55.9 34.7C56.3 34.9 56.8 35 57.3 34.9C56.9 35.1 56.5 35.4 56.3 35.8L55.7 36.9C55.4 36.4 54.8 36 54.2 35.9ZM54 40.6C54.9 40.7 55.6 41.6 55.4 42.6C55.3 43.4 54.7 43.9 54 44H53.5C52.6 43.9 51.9 43 52.1 42C52.2 41.1 53.1 40.4 54 40.6ZM54 39.9C53.1 40 52.2 39.4 52 38.5C51.9 37.6 52.5 36.7 53.4 36.5C54.3 36.4 55.2 37 55.4 37.9C55.6 38.9 54.9 39.7 54 39.9ZM52.3 30.2L53.5 30.4C53.9 30.5 54.4 30.4 54.9 30.1C54.5 30.4 54.3 30.9 54.2 31.3L54 32.5C53.5 32.1 52.9 31.9 52.3 32C52.5 31.4 52.5 30.8 52.3 30.2ZM36.1 46.7C35.7 46.4 35.1 46.3 34.6 46.4V46.3C34.7 45.9 34.6 45.5 34.4 45.2C34.4 45.1 34.3 45 34.2 45C33.9 44.6 33.4 44.3 32.9 44.3L33 44.2C33.2 43.9 33.2 43.5 33.2 43.1C33.2 43 33.2 42.9 33.1 42.8C32.9 42.3 32.5 41.9 32.1 41.7L32.2 41.6C32.5 41.3 32.7 41 32.7 40.6V40.3C32.7 39.7 32.4 39.3 32.1 38.9C32.1 38.9 32.2 38.9 32.2 38.8C32.5 38.6 32.8 38.3 33 38C33 37.9 33.1 37.8 33.1 37.7C33.3 37.2 33.2 36.6 32.9 36.2H33C33.4 36.1 33.7 36 34 35.7L34.2 35.5C34.5 35.1 34.6 34.5 34.5 34H34.6C35 34.1 35.4 34 35.7 33.8C35.8 33.8 35.9 33.7 35.9 33.7C36.3 33.4 36.6 32.9 36.6 32.4L36.7 32.5C37 32.7 37.4 32.7 37.8 32.7C37.9 32.7 38 32.7 38.1 32.6C38.6 32.4 39 32 39.2 31.6L39.3 31.7C39.6 32 39.9 32.2 40.3 32.2H40.6C41.2 32.2 41.6 31.9 42 31.6C42 31.6 42 31.7 42.1 31.7C42.3 32 42.6 32.3 42.9 32.5C43 32.5 43.1 32.6 43.2 32.6C43.7 32.8 44.3 32.7 44.7 32.4V32.5C44.8 32.9 44.9 33.2 45.2 33.5L45.4 33.7C45.8 34 46.4 34.1 46.9 34V34.1C46.8 34.5 46.9 34.9 47.1 35.2C47.1 35.3 47.2 35.4 47.3 35.4C47.6 35.8 48.1 36.1 48.6 36.1L48.5 36.2C48.3 36.5 48.3 36.9 48.3 37.3C48.3 37.4 48.3 37.5 48.4 37.6C48.6 38.1 49 38.5 49.4 38.7L49.3 38.8C49 39.1 48.8 39.4 48.8 39.8V40.1C48.8 40.7 49.1 41.1 49.4 41.5C49.4 41.5 49.3 41.5 49.3 41.6C49 41.8 48.7 42.1 48.5 42.4C48.5 42.5 48.4 42.6 48.4 42.7C48.2 43.2 48.3 43.8 48.6 44.2H48.5C48.1 44.3 47.8 44.4 47.5 44.7L47.3 44.9C47 45.3 46.9 45.9 47 46.4H46.9C46.5 46.3 46.1 46.4 45.8 46.6C45.7 46.6 45.6 46.7 45.6 46.8C45.2 47.1 44.9 47.6 44.9 48.1L44.8 48C44.5 47.8 44.1 47.8 43.7 47.8C43.6 47.8 43.5 47.8 43.4 47.9C42.9 48.1 42.5 48.5 42.3 48.9L42.2 48.8C41.9 48.5 41.6 48.3 41.2 48.3H40.9C40.3 48.3 39.9 48.6 39.5 48.9C39.5 48.9 39.5 48.8 39.4 48.8C39.2 48.5 38.9 48.2 38.6 48C38.5 48 38.4 47.9 38.3 47.9C37.8 47.7 37.2 47.8 36.8 48.1V48C36.7 47.6 36.6 47.3 36.3 47C36.3 46.8 36.2 46.8 36.1 46.7ZM34 47.4C34.4 46.8 35.2 46.7 35.8 47.1C36.1 47.3 36.3 47.6 36.3 47.9C36.4 48.2 36.3 48.6 36.1 48.8C35.9 49.1 35.6 49.3 35.3 49.3C35 49.4 34.6 49.3 34.4 49.1C34.3 49.1 34.3 49 34.2 49C34 48.8 33.9 48.6 33.8 48.3C33.7 48.1 33.8 47.7 34 47.4ZM31.6 45.8C31.7 45.5 31.8 45.2 32.1 45C32.7 44.6 33.5 44.7 33.9 45.3C34.1 45.6 34.2 45.9 34.1 46.2C34 46.5 33.9 46.8 33.6 47C33.4 47.1 33.2 47.2 33.1 47.2C32.6 47.3 32.2 47.1 31.9 46.7C31.9 46.6 31.8 46.6 31.8 46.5C31.6 46.3 31.6 46.1 31.6 45.8ZM30.3 43.7V43.5C30.3 43.2 30.3 43 30.4 42.7C30.6 42.4 30.8 42.2 31.1 42.1C31.8 41.9 32.5 42.2 32.7 42.9C32.8 43.2 32.8 43.6 32.6 43.9C32.4 44.2 32.2 44.4 31.9 44.5H31.7C31.1 44.6 30.4 44.3 30.3 43.7ZM27.7 46.9C27.3 46.1 27.6 45 28.5 44.6C29.3 44.2 30.4 44.5 30.8 45.4C31.2 46.2 30.9 47.3 30 47.7C29.8 47.8 29.7 47.8 29.5 47.9C28.8 47.9 28 47.6 27.7 46.9ZM26 43.6C26.3 44.1 26.9 44.5 27.5 44.6C27.1 45.1 26.9 45.7 26.9 46.3L25.8 45.8C25.4 45.6 24.9 45.5 24.4 45.6C24.8 45.4 25.2 45.1 25.4 44.7L26 43.6ZM25.7 38.8C25.9 39.4 26.3 39.9 26.8 40.2C26.3 40.5 25.9 41 25.7 41.6L24.9 40.8C24.6 40.5 24.1 40.3 23.6 40.2H23.7C24.2 40.1 24.6 39.9 24.9 39.6L25.7 38.8ZM26 36.9L25.5 35.8C25.3 35.4 24.9 35.1 24.5 34.8C24.8 34.9 25.1 34.9 25.3 34.8C25.5 34.8 25.7 34.7 25.8 34.6L26.9 34.1C26.9 34.7 27.1 35.3 27.5 35.8C26.9 36 26.3 36.4 26 36.9ZM26.3 37.9C26.4 37 27.3 36.3 28.3 36.5C29.2 36.6 29.9 37.5 29.7 38.5C29.6 39.3 29 39.8 28.3 39.9H27.8C26.8 39.7 26.1 38.9 26.3 37.9ZM29.7 42C29.8 42.9 29.2 43.8 28.3 44C27.4 44.1 26.5 43.5 26.3 42.6C26.2 41.7 26.8 40.8 27.7 40.6C28.6 40.4 29.5 41.1 29.7 42ZM30.8 35.1C30.5 35.6 30.1 35.9 29.5 36C29.2 36.1 28.8 36 28.5 35.8C27.7 35.4 27.3 34.3 27.7 33.5C28.1 32.7 29.2 32.3 30 32.8C30.9 33.2 31.2 34.3 30.8 35.1ZM32.2 40.2C32.2 40.5 32.1 40.9 31.8 41.1C31.6 41.3 31.4 41.4 31.1 41.5H30.9C30.2 41.5 29.6 40.9 29.6 40.2V40C29.6 39.7 29.8 39.5 30 39.3C30.2 39.1 30.6 38.9 30.9 38.9C31.7 39 32.2 39.5 32.2 40.2ZM31.9 36C32.6 36.2 32.9 36.9 32.7 37.6C32.6 37.9 32.4 38.2 32.1 38.3C32 38.4 31.9 38.4 31.7 38.4H31.1C30.4 38.2 30.1 37.5 30.3 36.8C30.3 36.7 30.3 36.7 30.4 36.6C30.5 36.4 30.7 36.2 31 36.1C31.2 35.9 31.5 35.9 31.9 36ZM33.6 33.4C34.2 33.8 34.3 34.6 33.9 35.2C33.7 35.5 33.4 35.6 33.1 35.7C32.8 35.8 32.4 35.7 32.2 35.5C31.6 35.1 31.5 34.3 31.9 33.7C31.9 33.6 32 33.6 32 33.5C32.2 33.3 32.4 33.2 32.7 33.1C33 33.1 33.3 33.2 33.6 33.4ZM35.8 33.3C35.6 33.4 35.5 33.5 35.3 33.5H34.9C34.6 33.4 34.3 33.3 34.1 33C33.7 32.4 33.8 31.6 34.4 31.2C34.5 31.2 34.5 31.1 34.6 31.1C34.7 31 35 31 35.2 31C35.5 31.1 35.8 31.2 36 31.5C36.5 32.1 36.4 32.9 35.8 33.3ZM35.7 30.2C35.5 30.3 35.4 30.3 35.2 30.4C34.5 30.5 33.7 30.2 33.4 29.5C33 28.7 33.3 27.6 34.2 27.2C35 26.8 36.1 27.1 36.5 27.9C36.9 28.7 36.6 29.7 35.7 30.2ZM37.4 29.7H37.6C37.9 29.7 38.1 29.7 38.4 29.8C38.7 30 38.9 30.2 39 30.5C39.2 31.2 38.9 31.9 38.2 32.1H38C37.7 32.1 37.5 32.1 37.2 32C36.9 31.8 36.7 31.6 36.6 31.3C36.4 30.6 36.7 29.9 37.4 29.7ZM39.1 29.1C38.2 29.2 37.3 28.6 37.1 27.7C37 26.8 37.6 25.9 38.5 25.7C39.4 25.6 40.3 26.2 40.5 27.1C40.7 28 40 28.9 39.1 29.1ZM41.8 29.5C42 29.7 42.2 30.1 42.2 30.4C42.2 31 41.7 31.6 41.1 31.6H40.9C40.6 31.6 40.2 31.5 40 31.2C39.8 31 39.6 30.6 39.6 30.3C39.6 29.6 40.2 29 40.9 29H41.1C41.3 29.2 41.6 29.3 41.8 29.5ZM45 30.3C45.2 30.6 45.2 30.9 45.1 31.3C44.9 31.8 44.5 32.1 44.1 32.2H43.5C43.2 32.1 42.9 31.9 42.8 31.6C42.6 31.3 42.6 31 42.7 30.6C42.9 29.9 43.6 29.6 44.3 29.8C44.4 29.8 44.4 29.8 44.5 29.9C44.7 29.9 44.9 30 45 30.3ZM44.6 27.6C44.5 28.3 43.9 28.9 43.2 29H42.7C41.8 28.9 41.1 28 41.3 27C41.4 26.1 42.3 25.4 43.3 25.6C44.1 25.8 44.7 26.7 44.6 27.6ZM29.5 32C28.9 31.9 28.3 32.1 27.8 32.5L27.6 31.3C27.5 30.9 27.3 30.4 26.9 30.1C27.3 30.3 27.8 30.4 28.3 30.4L29.5 30.2C29.2 30.8 29.2 31.4 29.5 32ZM29.4 50.3L28.2 50.1C27.8 50 27.3 50.1 26.8 50.4C27.2 50.1 27.4 49.6 27.5 49.2L27.7 48C28.2 48.4 28.8 48.6 29.4 48.5C29.2 49 29.2 49.7 29.4 50.3ZM52.2 48.5H52.8C53.2 48.4 53.6 48.3 53.9 48L54.1 49.2C54.2 49.6 54.4 50.1 54.8 50.4C54.4 50.2 53.9 50.1 53.4 50.1L52.2 50.3C52.5 49.7 52.5 49 52.2 48.5ZM61.1 35.5C61.3 35.1 61.7 34.9 62.2 34.8H62.3C62.8 34.7 63.4 34.9 63.7 35.2L64.6 36.1C64.7 36.2 64.8 36.4 64.9 36.6C64.9 36.8 64.9 37 64.8 37.1L64.2 38C64 38.4 63.5 38.7 63 38.8C62.5 38.9 61.9 38.7 61.6 38.4L60.7 37.5C60.4 37.2 60.4 36.8 60.5 36.5C60.6 36.6 61.1 35.5 61.1 35.5ZM60.5 35.2L59.9 36.3C59.7 36.6 59.7 37 59.7 37.3C59.7 37.6 59.9 37.9 60.2 38.2L61.1 39.1L61.2 39.2L58.7 39.6C58.2 39.7 57.6 39.5 57.3 39.2L56.4 38.3C56.1 38 56.1 37.6 56.2 37.3L56.8 36.2C57 35.8 57.5 35.5 58 35.4L60.5 35C60.6 35.1 60.5 35.1 60.5 35.2ZM57.9 31.6C58 31.9 58.3 32.1 58.6 32.3L59.7 32.9C59.8 32.9 59.8 33 59.9 33L57.7 34C57.5 34.1 57.3 34.2 57.1 34.2C56.8 34.2 56.5 34.2 56.2 34.1L55.1 33.6C54.7 33.4 54.6 33.1 54.6 32.7L54.8 31.5C54.9 31.1 55.2 30.6 55.7 30.4L57.9 29.3V29.5L57.7 30.7C57.7 30.9 57.8 31.3 57.9 31.6ZM46.3 25.2L46.8 26.3C46.2 26.3 45.6 26.5 45.1 26.9C45 26.3 44.6 25.8 44.1 25.4L45.2 24.9C45.6 24.7 45.9 24.3 46.1 23.9C46.1 24.3 46.1 24.8 46.3 25.2ZM35.5 23.8C35.7 24.2 36 24.6 36.4 24.8L37.5 25.4C37 25.7 36.6 26.3 36.5 26.9C36 26.5 35.4 26.3 34.8 26.3L35.3 25.2C35.6 24.8 35.6 24.3 35.5 23.8ZM23.9 30.6L23.7 29.4V29.2L25.9 30.3C26.4 30.6 26.7 31 26.8 31.4L27 32.6C27.1 33 26.9 33.3 26.5 33.5L25.4 34C25.3 34.1 25.2 34.1 25 34.1C24.7 34.2 24.3 34.1 23.9 33.9L21.7 32.8C21.8 32.8 21.8 32.8 21.9 32.7L23 32.2C23.3 32 23.6 31.8 23.7 31.5C23.9 31.3 24 30.9 23.9 30.6ZM23.8 48.9C23.7 48.6 23.4 48.4 23.1 48.2L22 47.7C21.9 47.7 21.9 47.7 21.8 47.6L24 46.5C24.5 46.3 25 46.2 25.4 46.4L26.5 46.9C26.9 47.1 27 47.4 27 47.8L26.8 49C26.7 49.4 26.4 49.9 25.9 50.1L23.7 51.2V51L23.9 49.8C24 49.5 24 49.2 23.8 48.9ZM35.4 55.2L34.9 54.1H35.4C35.9 54 36.3 53.8 36.6 53.5C36.7 54.1 37.1 54.6 37.6 55L36.5 55.5C36.1 55.7 35.8 56.1 35.6 56.5C35.6 56.1 35.6 55.6 35.4 55.2ZM46.2 56.6C46 56.2 45.7 55.8 45.3 55.6L44.2 55C44.7 54.7 45.1 54.1 45.2 53.5C45.7 53.9 46.3 54.1 46.9 54.1L46.4 55.2C46.2 55.6 46.1 56.1 46.2 56.6ZM57.8 49.9L58 51.1V51.3L55.8 50.2C55.3 50 55 49.5 54.9 49.1L54.7 47.9C54.6 47.5 54.8 47.2 55.2 47L56.3 46.5C56.7 46.3 57.2 46.3 57.7 46.6L59.9 47.7C59.8 47.7 59.8 47.7 59.7 47.8L58.6 48.3C58.3 48.5 58 48.7 57.9 49C57.8 49.2 57.7 49.5 57.8 49.9ZM59.2 24.7L59.1 23.8C60.4 24.5 62 24.5 63.4 23.9C62.4 25 61.9 26.6 62.2 28L61.4 27.6C60.8 27.3 60 27.3 59.3 27.7C59.3 27.7 59.2 27.7 59.2 27.8L55.5 29.7L58.5 26.7C59 26.1 59.3 25.3 59.2 24.7ZM53.5 19.8L53.1 19C53.6 19.1 54.1 19.1 54.7 19C55.6 18.9 56.5 18.4 57.3 17.8C56.7 19.2 56.7 20.8 57.4 22.1L56.5 22C55.8 21.9 55.1 22.2 54.5 22.7L54.4 22.8L51.5 25.7L51.4 25.8V25.7L53.4 21.9C53.7 21.2 53.8 20.4 53.5 19.8ZM50.9 17.9L50 18C49.3 18.1 48.7 18.6 48.3 19.3C48.3 19.3 48.3 19.4 48.2 19.4L46.3 23.1L47 18.9C47.1 18.1 46.9 17.4 46.4 16.9L45.8 16.3H45.9C47.3 16.1 48.6 15.2 49.3 13.9C49.3 15.3 49.8 16.9 50.9 17.9ZM32.2 13.8C33 15.1 34.3 16.1 35.8 16.2L35.2 16.8C34.7 17.3 34.5 18 34.6 18.8V18.9L35.2 23L33.3 19.2C32.9 18.5 32.3 18 31.7 17.9L30.8 17.8C31.9 16.9 32.4 15.3 32.2 13.8ZM24.5 17.8C25.7 18.8 27.2 19.3 28.6 19L28.2 19.8C27.9 20.4 27.9 21.2 28.3 21.9C28.3 21.9 28.3 22 28.4 22L30.3 25.7L27.3 22.7C26.8 22.1 26 21.9 25.3 22L24.4 22.1C25.1 20.8 25.1 19.2 24.5 17.8ZM23.2 26.6L23.3 26.7L26.2 29.6L22.4 27.6C21.7 27.2 20.9 27.2 20.3 27.5L19.5 28C19.8 26.5 19.3 25 18.3 23.9C19.7 24.5 21.3 24.5 22.6 23.8L22.5 24.7C22.4 25.3 22.7 26.1 23.2 26.6ZM8.2 37.6C7.7 36.9 7.7 36.1 7.9 35C8.1 33.9 8.3 33.1 9 32.6L9.1 32.5C10 31.8 11.2 31.6 12.4 31.8C14.7 32.2 16.3 34.2 16 36.3C15.7 38 14.3 39.2 12.6 39.5C12.1 39.6 11.7 39.6 11.2 39.5C10 39.3 9 38.7 8.3 37.8L8.2 37.6ZM22.5 55.8L22.6 56.7C21.3 56 19.7 56 18.3 56.6C19.3 55.5 19.8 53.9 19.5 52.5L20.3 52.9C20.7 53.1 21.1 53.2 21.6 53.1C21.9 53.1 22.1 53 22.4 52.8C22.4 52.8 22.5 52.8 22.5 52.7L26.2 50.8L23.2 53.8C22.7 54.4 22.4 55.1 22.5 55.8ZM28.2 60.7L28.6 61.5C27.1 61.2 25.6 61.7 24.5 62.7C25.1 61.3 25.1 59.7 24.4 58.4L25.3 58.5H25.9C26.4 58.4 26.9 58.2 27.3 57.8L27.4 57.7L30.3 54.8L30.4 54.7V54.8L28.4 58.6C28 59.3 27.9 60.1 28.2 60.7ZM30.8 62.6L31.7 62.5C32.4 62.4 33 61.9 33.4 61.2C33.4 61.2 33.4 61.1 33.5 61.1L35.4 57.4L34.7 61.6C34.6 62.4 34.8 63.1 35.3 63.6L35.9 64.2C34.4 64.4 33.1 65.3 32.3 66.6C32.4 65.1 31.9 63.6 30.8 62.6ZM49.5 66.6C48.7 65.3 47.4 64.3 45.9 64.2L46.5 63.6C47 63.1 47.2 62.4 47.1 61.6V61.5L46.5 57.4L48.4 61.2C48.8 61.9 49.4 62.4 50 62.5L50.9 62.7C49.8 63.6 49.3 65.1 49.5 66.6ZM57.2 62.7C56 61.7 54.5 61.2 53.1 61.5L53.5 60.7C53.8 60.1 53.8 59.3 53.4 58.6C53.4 58.6 53.4 58.5 53.3 58.5L51.4 54.8L54.4 57.8C54.9 58.4 55.7 58.6 56.4 58.5L57.3 58.4C56.6 59.7 56.6 61.3 57.2 62.7ZM58.5 53.8L55.5 50.8L55.4 50.7H55.5L59.3 52.7C60 53.1 60.8 53.1 61.4 52.8L62.2 52.4C61.9 53.9 62.4 55.4 63.4 56.5C62 55.9 60.4 55.9 59.1 56.6L59.2 55.7C59.3 55.1 59 54.4 58.5 53.8ZM71.8 28.1L71.9 27.9C72.3 26.8 73.1 26 74.2 25.6C76.7 24.8 77.8 27.4 78 28.2C78.3 29.2 78.4 30.1 78.1 30.9C77.8 31.7 77.3 32.3 76.4 32.5C76.2 32.6 76 32.6 75.8 32.6C74.9 32.8 73.9 32.5 73.1 32L73 31.9C72 31.2 70.7 30.8 69.4 31C70.6 30.3 71.4 29.3 71.8 28.1ZM80.6 39.1C80.3 37 79 35.8 77.1 35.8C76.2 35.8 75.4 36.1 74.7 36.5C74.7 35.9 74.7 35.4 74.6 34.9C74.5 34.4 74.4 33.8 74.2 33.3C75 33.5 75.9 33.5 76.7 33.2C77.8 32.8 78.6 32.1 78.9 31.1C79.2 30.2 79.1 29.1 78.8 27.9C78 25.3 76.1 24.1 74 24.8C73.2 25.1 72.5 25.6 71.9 26.2C71.8 25.7 71.5 25.1 71.3 24.7C71.1 24.2 70.8 23.7 70.4 23.3C71.3 23.3 72.1 23 72.8 22.5C73.7 21.8 74.2 20.9 74.2 19.8C74.2 18.8 73.8 17.8 73.1 16.8C71.5 14.6 69.4 14 67.6 15.4C66.9 15.9 66.4 16.6 66.1 17.4C65.8 16.9 65.4 16.5 65 16.1C64.6 15.7 64.2 15.4 63.8 15.1C64.6 14.8 65.3 14.3 65.8 13.6C66.5 12.7 66.7 11.6 66.3 10.6C66 9.7 65.3 8.8 64.3 8.1C62.1 6.5 59.9 6.6 58.6 8.4C58.1 9.1 57.8 9.9 57.8 10.8C57.4 10.4 56.9 10.2 56.4 9.9C55.9 9.7 55.4 9.4 54.9 9.3C55.6 8.8 56.1 8 56.3 7.2C56.7 6.1 56.5 5 55.9 4.2C55.3 3.4 54.4 2.8 53.2 2.4C50.6 1.6 48.6 2.4 47.9 4.5C47.6 5.3 47.6 6.2 47.8 7C47.3 6.8 46.7 6.7 46.2 6.6C45.7 6.5 45.1 6.4 44.6 6.5C45 5.8 45.3 5 45.3 4.1C45.3 2.9 44.8 2 43.9 1.3C43.1 0.7 42.1 0.5 40.8 0.5C40.4 0.5 40.1 0.5 39.7 0.6H39.6C37.5 0.9 36.3 2.2 36.3 4.1C36.3 5 36.6 5.8 37 6.5C36.4 6.5 35.9 6.5 35.4 6.6C35 6.7 34.4 6.8 33.9 7C34.1 6.2 34.1 5.3 33.8 4.5C33.4 3.4 32.7 2.6 31.6 2.3C30.7 2 29.6 2.1 28.4 2.4C25.8 3.2 24.6 5.1 25.3 7.2C25.6 8 26.1 8.7 26.7 9.3C26.2 9.4 25.6 9.7 25.2 9.9C24.7 10.1 24.2 10.4 23.8 10.8C23.8 10 23.5 9.1 23 8.4C22.4 7.4 21.5 7 20.4 7C19.4 7 18.4 7.4 17.4 8.1C15.2 9.7 14.6 11.8 16 13.6C16.5 14.3 17.2 14.8 18 15.1C17.5 15.4 17.1 15.8 16.7 16.1C16.3 16.5 16 16.9 15.7 17.3C15.4 16.5 14.9 15.8 14.2 15.3C13.3 14.6 12.2 14.4 11.2 14.8C10.3 15.1 9.4 15.8 8.7 16.8C7.1 19 7.2 21.2 9 22.5C9.7 23 10.5 23.3 11.4 23.3C11 23.7 10.8 24.2 10.5 24.7C10.3 25.2 10 25.7 9.9 26.2C9.4 25.5 8.6 25 7.8 24.8C6.7 24.4 5.6 24.6 4.7 25.2C3.9 25.8 3.3 26.7 2.9 27.8C2.1 30.4 2.9 32.4 5 33.1C5.8 33.4 6.7 33.4 7.5 33.2C7.3 33.7 7.2 34.3 7.1 34.8C7.1 35.4 7 36 7 36.5C6.3 36 5.4 35.8 4.6 35.8C3.4 35.8 2.5 36.3 1.8 37.2C1.3 37.9 1 39 1 40.2C1 42.9 2.4 44.6 4.6 44.6C5.5 44.6 6.3 44.3 7 43.9C7 44.5 7 45 7.1 45.5C7.2 46 7.3 46.6 7.5 47.1C6.7 46.9 5.8 46.9 5 47.2C3.9 47.6 3.1 48.3 2.8 49.4C2.5 50.3 2.6 51.4 2.9 52.6C3.7 55.2 5.6 56.4 7.7 55.7C8.5 55.4 9.2 54.9 9.8 54.3C9.9 54.8 10.2 55.4 10.4 55.8C10.6 56.3 10.9 56.8 11.3 57.2C10.4 57.2 9.6 57.5 8.9 58C8 58.7 7.5 59.6 7.5 60.7C7.5 61.7 7.9 62.7 8.6 63.7C10.2 65.9 12.3 66.5 14.1 65.1C14.8 64.6 15.3 63.9 15.6 63.1C15.9 63.6 16.3 64 16.6 64.4C17 64.8 17.4 65.1 17.9 65.4C17.1 65.7 16.4 66.2 15.9 66.9C15.2 67.8 15 68.9 15.4 69.9C15.7 70.8 16.4 71.7 17.4 72.4C19.6 74 21.8 73.9 23.1 72.1C23.6 71.4 23.9 70.6 23.9 69.7C24.3 70.1 24.8 70.3 25.3 70.6C25.8 70.8 26.3 71.1 26.8 71.2C26.1 71.7 25.6 72.5 25.4 73.3C25 74.4 25.2 75.5 25.8 76.3C26.4 77.1 27.3 77.7 28.5 78.1C31.1 78.9 33.1 78.1 33.8 76C34.1 75.2 34.1 74.3 33.9 73.5C34.4 73.7 35 73.8 35.5 73.9C36 74 36.6 74 37.1 74C36.6 74.7 36.4 75.5 36.4 76.4C36.4 77.6 36.9 78.5 37.8 79.2C38.6 79.8 39.6 80.1 40.9 80C43.6 80 45.3 78.6 45.3 76.4C45.3 75.5 45 74.7 44.6 74C45.2 74 45.7 74 46.2 73.9C46.7 73.8 47.3 73.7 47.8 73.5C47.6 74.3 47.6 75.2 47.9 76C48.3 77.1 49 77.9 50.1 78.2C51 78.5 52.1 78.4 53.3 78.1C55.9 77.3 57.1 75.4 56.4 73.3C56.1 72.5 55.6 71.8 55 71.2C55.5 71.1 56.1 70.8 56.5 70.6C57 70.4 57.5 70.1 57.9 69.7C57.9 70.5 58.2 71.4 58.7 72.1C59.4 73 60.3 73.5 61.4 73.5C62.4 73.5 63.4 73.1 64.4 72.4C66.6 70.8 67.2 68.7 65.8 66.9C65.3 66.2 64.6 65.7 63.8 65.4C64.3 65.1 64.7 64.7 65.1 64.4C65.5 64 65.8 63.6 66.1 63.2C66.4 64 66.9 64.7 67.6 65.2C68.5 65.9 69.6 66.1 70.6 65.7C71.5 65.4 72.4 64.7 73.1 63.7C74.7 61.5 74.6 59.3 72.8 58C72.1 57.5 71.3 57.2 70.4 57.2C70.8 56.8 71 56.3 71.3 55.8C71.5 55.3 71.8 54.8 71.9 54.3C72.4 55 73.2 55.5 74 55.7C75.1 56.1 76.2 55.9 77.1 55.3C77.9 54.7 78.5 53.8 78.9 52.7C79.7 50.1 78.9 48.1 76.8 47.4C76 47.1 75.1 47.1 74.3 47.3C74.5 46.8 74.6 46.2 74.7 45.7C74.8 45.2 74.9 44.6 74.8 44.1C75.5 44.6 76.4 44.8 77.2 44.8C78.4 44.8 79.3 44.3 80 43.4C80.6 42.6 80.9 41.6 80.9 40.3C80.7 39.9 80.7 39.5 80.6 39.1Z" fill="white"/>
<path d="M90.3008 6.5999H100.601V8.7999H92.9008V12.7999H99.9008L100.201 14.8999H92.9008V19.1999H100.801V21.2999H90.3008V6.5999ZM108.101 15.5999L104.001 21.2999H101.201L106.601 13.6999L101.601 6.7999L104.501 6.4999L108.301 11.8999L111.901 6.5999H114.701L109.801 13.6999L115.301 21.1999L112.501 21.4999L108.101 15.5999ZM128.101 11.4999C128.101 14.3999 126.101 16.3999 122.401 16.3999H118.701V21.3999H116.101V6.5999H122.401C126.101 6.5999 128.101 8.5999 128.101 11.4999ZM125.401 11.4999C125.401 9.6999 124.101 8.7999 122.301 8.7999H118.701V14.2999H122.301C124.101 14.1999 125.401 13.2999 125.401 11.4999ZM128.801 13.9999C128.801 9.7999 131.601 6.3999 136.601 6.3999C141.601 6.3999 144.401 9.7999 144.401 13.9999C144.401 18.1999 141.601 21.5999 136.601 21.5999C131.601 21.5999 128.801 18.1999 128.801 13.9999ZM131.401 13.9999C131.401 17.1999 133.301 19.3999 136.601 19.3999C139.901 19.3999 141.801 17.1999 141.801 13.9999C141.801 10.7999 139.901 8.5999 136.601 8.5999C133.301 8.5999 131.401 10.7999 131.401 13.9999ZM90.3008 41.1999H95.3008C100.001 41.1999 102.801 44.1999 102.801 48.5999C102.801 52.8999 100.001 55.9999 95.3008 55.9999H90.3008V41.1999ZM101.901 48.4999C101.901 44.4999 99.3008 41.9999 95.2008 41.9999H91.1008V55.0999H95.2008C99.3008 55.0999 101.901 52.5999 101.901 48.4999ZM105.901 41.0999V50.4999C105.901 53.1999 107.701 55.2999 111.101 55.2999C114.501 55.2999 116.301 53.1999 116.301 50.4999V41.2999L117.201 41.0999V50.4999C117.201 53.4999 115.301 56.0999 111.201 56.0999C106.901 56.0999 105.201 53.1999 105.201 50.4999V41.2999L105.901 41.0999ZM130.801 44.9999C130.801 46.6999 129.901 47.8999 128.501 48.3999C130.301 48.6999 131.301 49.9999 131.301 51.9999C131.301 54.6999 129.601 55.9999 126.401 55.9999H120.201V41.1999H125.701C128.901 41.1999 130.801 42.2999 130.801 44.9999ZM129.901 44.9999C129.901 42.2999 127.801 41.9999 125.501 41.9999H121.101V47.8999H125.501C127.801 47.8999 129.901 47.6999 129.901 44.9999ZM121.101 55.0999H126.201C128.601 55.0999 130.401 54.6999 130.401 51.9999C130.401 49.2999 128.501 48.7999 126.201 48.7999H121.101V55.0999ZM143.301 51.9999H134.701L133.001 55.8999H132.101L138.501 41.1999L139.401 40.9999L145.901 55.7999L145.001 55.9999L143.301 51.9999ZM142.901 51.1999L138.901 42.1999L135.001 51.1999H142.901ZM147.801 55.8999V41.2999L148.701 41.0999V55.8999H147.801Z" fill="white"/>
<path d="M95.5008 23.7002C98.4008 23.7002 100.901 25.0002 100.901 27.9002C100.901 32.6002 93.1008 33.4002 93.1008 36.5002H100.801L101.101 38.6002H90.3008V37.3002C90.3008 31.7002 98.3008 31.6002 98.3008 28.1002C98.3008 26.4002 96.9008 25.8002 95.3008 25.8002C93.8008 25.8002 92.5008 26.4002 91.1008 27.2002L90.7008 25.1002C92.2008 24.3002 93.8008 23.7002 95.5008 23.7002ZM102.001 31.3002C102.001 27.1002 104.101 23.7002 108.501 23.7002C112.901 23.7002 115.001 27.1002 115.001 31.3002C115.001 35.5002 112.801 38.9002 108.501 38.9002C104.101 38.8002 102.001 35.5002 102.001 31.3002ZM104.601 31.3002C104.601 34.6002 105.801 36.8002 108.501 36.8002C111.201 36.8002 112.401 34.6002 112.401 31.3002C112.401 28.0002 111.201 25.8002 108.501 25.8002C105.801 25.8002 104.601 28.0002 104.601 31.3002Z" fill="white"/>
<path d="M121.101 23.7002C124.001 23.7002 126.501 25.0002 126.501 27.9002C126.501 32.6002 118.701 33.4002 118.701 36.5002H126.401L126.701 38.6002H115.801V37.3002C115.801 31.7002 123.801 31.6002 123.801 28.1002C123.801 26.4002 122.401 25.8002 120.801 25.8002C119.301 25.8002 118.001 26.4002 116.601 27.2002L116.201 25.1002C117.801 24.3002 119.301 23.7002 121.101 23.7002ZM127.601 31.3002C127.601 27.1002 129.701 23.7002 134.101 23.7002C138.501 23.7002 140.601 27.1002 140.601 31.3002C140.601 35.5002 138.401 38.9002 134.101 38.9002C129.701 38.8002 127.601 35.5002 127.601 31.3002ZM130.201 31.3002C130.201 34.6002 131.401 36.8002 134.101 36.8002C136.801 36.8002 138.001 34.6002 138.001 31.3002C138.001 28.0002 136.801 25.8002 134.101 25.8002C131.401 25.7002 130.201 28.0002 130.201 31.3002Z" fill="white"/>
</g>
<defs>
<clipPath id="clip0_2320_120876">
<rect width="150" height="80" fill="white"/>
</clipPath>
</defs>
</svg>
