<svg width="160" height="64" viewBox="0 0 160 64" fill="none" xmlns="http://www.w3.org/2000/svg">
<g id="Ikea_logo logo" clip-path="url(#clip0_2320_120852)">
<g id="Group">
<path id="Vector" fill-rule="evenodd" clip-rule="evenodd" d="M159.975 64H-0.00195312V0H159.998V64H159.975Z" fill="#0058AB"/>
<path id="Vector_2" fill-rule="evenodd" clip-rule="evenodd" d="M3.19727 32.0002C3.19727 47.7322 35.3833 60.8002 80.0088 60.8002C124.634 60.8002 156.797 47.7322 156.797 32.0002C156.797 16.2682 124.611 3.2002 80.0088 3.2002C35.4062 3.2002 3.19727 16.2682 3.19727 32.0002Z" fill="#FBD914"/>
<path id="Vector_3" d="M74.3148 41.6074C74.8193 42.3238 75.3697 42.9953 76.0118 43.5998H58.6979C58.6979 42.9281 58.0329 41.5626 57.299 40.4882C56.5652 39.4137 52.5979 33.5266 52.5979 33.5266V41.6074C52.5979 42.279 52.5979 42.9281 52.9419 43.5998H38.5176C38.8616 42.9281 38.8616 42.279 38.8616 41.6074V22.4012C38.8616 21.7297 38.8616 21.0806 38.5176 20.409H52.9419C52.5979 21.0806 52.5979 21.7297 52.5979 22.4012V30.7956C52.5979 30.7956 57.2073 24.9308 58.2622 23.5652C59.0648 22.5356 60.051 21.0804 60.051 20.409H75.0945C74.0625 21.0806 72.916 22.2894 71.9756 23.4086C71.15 24.3935 66.472 29.9673 66.472 29.9673C66.472 29.9673 73.3976 40.2868 74.3148 41.6074ZM78.8553 22.4012V41.6074C78.8553 42.279 78.8553 42.9281 78.5113 43.5998H106.351V37.1529C105.663 37.4886 104.998 37.4886 104.31 37.4886H92.5918V34.4442H103.851V29.5642H92.5918V26.4977H104.31C104.998 26.4977 105.663 26.4977 106.351 26.8111V20.3866H78.5113C78.8553 21.0806 78.8553 21.7297 78.8553 22.4012ZM144.923 41.6074C145.152 42.3462 145.542 43.0177 146.047 43.5998H130.957C131.026 42.9281 130.774 42.279 130.499 41.6074C130.499 41.6074 130.269 41.0702 129.948 40.2868L129.811 39.951H121.119L120.982 40.309C120.982 40.309 120.73 40.9583 120.5 41.6298C120.271 42.3014 120.019 42.9505 120.111 43.622H108.209C108.695 43.0349 109.061 42.358 109.287 41.6298L116.418 22.4236C116.671 21.7521 116.923 21.103 116.831 20.4314H136.943C136.759 21.103 137.126 21.7521 137.379 22.4236C137.975 23.8786 144.419 40.309 144.923 41.6074ZM127.907 35.0487L125.798 29.6762C125.614 29.1839 125.454 28.669 125.339 28.1542C125.247 28.6728 125.109 29.1823 124.926 29.6762C124.857 29.9002 123.963 32.2506 122.931 35.0487H127.907ZM31.6836 20.409H15.998C16.342 21.0806 16.342 21.7297 16.342 22.4012V41.6074C16.342 42.279 16.342 42.9281 15.998 43.5998H31.6836C31.3396 42.9281 31.3396 42.279 31.3396 41.6074V22.4012C31.3396 21.7297 31.3396 21.0806 31.6836 20.409ZM140.107 22.2446C140.039 20.6105 141.346 19.245 143.02 19.2002H143.226C144.923 19.1778 146.322 20.4761 146.345 22.1326V22.2446C146.391 23.9234 145.038 25.3337 143.295 25.3785C141.575 25.4233 140.13 24.1025 140.084 22.4012C140.107 22.3564 140.107 22.2894 140.107 22.2446ZM140.727 22.2446C140.727 23.5876 141.85 24.6846 143.226 24.6846C144.602 24.6846 145.726 23.5876 145.726 22.2446C145.726 20.9015 144.602 19.8046 143.226 19.8046C141.896 19.7598 140.772 20.7671 140.727 22.0654V22.2446ZM142.607 24.0577H142.057V20.3866H143.455C144.121 20.409 144.625 20.9238 144.625 21.573C144.625 22.0207 144.373 22.4236 143.96 22.6474L144.763 24.0577H144.143L143.41 22.7594H142.607V24.0577ZM142.607 22.2446H143.364C143.731 22.267 144.052 21.9982 144.052 21.6401C144.052 21.282 143.799 20.9686 143.433 20.9686H142.607V22.2446Z" fill="#0058A3"/>
</g>
</g>
<defs>
<clipPath id="clip0_2320_120852">
<rect width="160" height="64" fill="white" transform="translate(-0.00195312)"/>
</clipPath>
</defs>
</svg>
