<svg width="97" height="19" viewBox="0 0 97 19" fill="none" xmlns="http://www.w3.org/2000/svg">
<path d="M12.624 5.352C12.032 4.984 11.424 4.68 10.8 4.44C10.192 4.2 9.616 4.032 9.072 3.936C8.528 3.824 8.032 3.768 7.584 3.768C6.832 3.768 6.224 3.912 5.76 4.2C5.312 4.488 5.088 4.912 5.088 5.472C5.088 5.984 5.248 6.4 5.568 6.72C5.904 7.04 6.336 7.304 6.864 7.512C7.408 7.72 8 7.92 8.64 8.112C9.28 8.304 9.92 8.52 10.56 8.76C11.2 8.984 11.784 9.28 12.312 9.648C12.856 10.016 13.288 10.488 13.608 11.064C13.928 11.64 14.088 12.36 14.088 13.224C14.088 14.264 13.808 15.152 13.248 15.888C12.688 16.624 11.92 17.192 10.944 17.592C9.984 17.992 8.888 18.192 7.656 18.192C6.76 18.192 5.88 18.08 5.016 17.856C4.168 17.616 3.36 17.296 2.592 16.896C1.84 16.496 1.16 16.032 0.552 15.504L1.896 12.888C2.472 13.416 3.096 13.872 3.768 14.256C4.44 14.624 5.112 14.912 5.784 15.12C6.472 15.312 7.112 15.408 7.704 15.408C8.616 15.408 9.32 15.232 9.816 14.88C10.328 14.528 10.584 14.032 10.584 13.392C10.584 12.864 10.416 12.44 10.08 12.12C9.76 11.8 9.336 11.536 8.808 11.328C8.28 11.104 7.688 10.912 7.032 10.752C6.392 10.576 5.752 10.376 5.112 10.152C4.472 9.912 3.88 9.616 3.336 9.264C2.808 8.896 2.376 8.432 2.04 7.872C1.72 7.312 1.56 6.6 1.56 5.736C1.56 4.76 1.824 3.92 2.352 3.216C2.88 2.496 3.608 1.944 4.536 1.56C5.48 1.16 6.584 0.959999 7.848 0.959999C8.968 0.959999 10.056 1.12 11.112 1.44C12.184 1.76 13.12 2.184 13.92 2.712L12.624 5.352ZM17.1343 1.2H29.4463V3.888H20.3503V8.232H28.5103V10.896H20.3503V15.312H29.7343V18H17.1343V1.2ZM33.0015 1.2H45.3135V3.888H36.2175V8.232H44.3775V10.896H36.2175V15.312H45.6015V18H33.0015V1.2ZM60.6414 1.2H63.9294L71.2014 18H67.7694L62.1774 4.44L56.6094 18H53.2494L60.6414 1.2ZM57.1134 11.712H67.1214V14.328H57.1134V11.712ZM73.2671 1.2H76.4831V15.264H83.7311V18H73.2671V1.2ZM86.2515 1.2H89.4675V15.264H96.7155V18H86.2515V1.2Z" fill="url(#paint0_radial_2354_9587)"/>
<defs>
<radialGradient id="paint0_radial_2354_9587" cx="0" cy="0" r="1" gradientUnits="userSpaceOnUse" gradientTransform="translate(49.1849 9.69136) scale(48.8151 165.277)">
<stop stop-color="#FAFAFA"/>
<stop offset="1" stop-color="#FAFAFA" stop-opacity="0"/>
</radialGradient>
</defs>
</svg>
