<svg width="341" height="114" viewBox="0 0 341 114" fill="none" xmlns="http://www.w3.org/2000/svg">
<path d="M3.57771 73.6841H18.6437L24.3353 82.8911L30.0269 73.6841H45.2603L32.5937 92.3213L46.4321 112.8H30.9197L24.3353 102.7L17.8625 112.8H2.74071L16.4675 92.9351L3.57771 73.6841ZM67.3257 73.6841C72.4221 73.6841 76.3653 74.9117 79.1553 77.3669C81.9453 79.7849 83.3403 83.2259 83.3403 87.6899C83.3403 92.4143 81.9453 96.0971 79.1553 98.7383C76.3653 101.342 72.4221 102.644 67.3257 102.644H56.2773L61.9131 97.0085V112.8H48.9675V73.6841H67.3257ZM66.6561 92.8235C68.0697 92.8235 69.1485 92.4143 69.8925 91.5959C70.6737 90.7403 71.0643 89.5685 71.0643 88.0805C71.0643 86.6297 70.6737 85.5137 69.8925 84.7325C69.1485 83.9141 68.0697 83.5049 66.6561 83.5049H56.2773L61.9131 77.8691V98.4593L56.2773 92.8235H66.6561ZM87.221 73.6841H120.31V83.5049H100.167V88.3037H118.469V98.1245H100.167V102.979H120.813V112.8H87.221V73.6841ZM144.663 73.6841C149.983 73.6841 154.093 74.9117 156.995 77.3669C159.897 79.7849 161.347 83.2259 161.347 87.6899C161.347 92.4143 159.897 96.0971 156.995 98.7383C154.093 101.342 149.983 102.644 144.663 102.644H138.693V112.8H125.747V73.6841H144.663ZM144.663 92.8235C146.077 92.8235 147.156 92.4143 147.9 91.5959C148.681 90.7403 149.071 89.5685 149.071 88.0805C149.071 86.6297 148.681 85.5137 147.9 84.7325C147.156 83.9141 146.077 83.5049 144.663 83.5049H138.693V92.8235H144.663ZM141.371 98.0129H153.87L162.854 112.8H148.234L141.371 98.0129ZM166.18 73.6841H179.126V112.8H166.18V73.6841ZM184.708 73.6841H217.797V83.5049H197.653V88.3037H215.956V98.1245H197.653V102.979H218.299V112.8H184.708V73.6841ZM223.234 73.6841H234.059L252.975 98.2361L249.515 99.4079V73.6841H261.233V112.8H250.408L231.548 88.3595L235.007 87.1877V112.8H223.234V73.6841ZM295.118 88.9733C293.965 87.3365 292.57 86.0345 290.933 85.0673C289.333 84.1001 287.771 83.6165 286.246 83.6165C285.092 83.6165 284.014 83.8583 283.009 84.3419C282.042 84.7883 281.186 85.4393 280.442 86.2949C279.698 87.1133 279.122 88.0991 278.713 89.2523C278.341 90.3683 278.155 91.5959 278.155 92.9351C278.155 94.3115 278.341 95.5763 278.713 96.7295C279.122 97.8827 279.698 98.8871 280.442 99.7427C281.186 100.561 282.042 101.212 283.009 101.696C284.014 102.142 285.092 102.365 286.246 102.365C287.659 102.365 289.166 101.956 290.765 101.138C292.402 100.282 293.853 99.1661 295.118 97.7897L302.595 105.769C301.144 107.369 299.47 108.764 297.573 109.954C295.713 111.145 293.741 112.075 291.658 112.744C289.612 113.377 287.585 113.693 285.576 113.693C282.563 113.693 279.791 113.191 277.262 112.186C274.769 111.145 272.593 109.712 270.733 107.89C268.873 106.03 267.422 103.853 266.381 101.361C265.376 98.8313 264.874 96.0785 264.874 93.1025C264.874 90.1637 265.395 87.4667 266.437 85.0115C267.478 82.5563 268.948 80.4173 270.845 78.5945C272.779 76.7717 275.03 75.3581 277.597 74.3537C280.201 73.3493 283.028 72.8471 286.078 72.8471C288.087 72.8471 290.096 73.1447 292.105 73.7399C294.151 74.3351 296.066 75.1721 297.852 76.2509C299.675 77.3297 301.256 78.6131 302.595 80.1011L295.118 88.9733ZM305.244 73.6841H338.334V83.5049H318.19V88.3037H336.492V98.1245H318.19V102.979H338.836V112.8H305.244V73.6841Z" fill="url(#paint0_radial_2320_129547)"/>
<path d="M4.55938 0.115875H24.0474V22.9639H42.2754V0.115875H61.7634V58.9999H42.2754V37.7479H24.0474V58.9999H4.55938V0.115875ZM65.1444 0.115875H84.5484L96.3924 22.7959L107.816 0.115875H127.22L97.4844 57.3199H95.1324L65.1444 0.115875ZM86.6484 32.3719H106.136V58.9999H86.6484V32.3719ZM160.379 0.115875C165.139 0.115875 169.255 0.731875 172.727 1.96388C176.199 3.19588 178.887 4.93188 180.791 7.17187C182.751 9.35588 183.731 11.9599 183.731 14.9839C183.731 17.8959 182.835 20.4999 181.043 22.7959C179.251 25.0359 176.843 26.6319 173.819 27.5839C177.347 28.3679 180.175 30.1319 182.303 32.8759C184.431 35.5639 185.495 38.7559 185.495 42.4519C185.495 45.8119 184.515 48.7519 182.555 51.2719C180.595 53.7359 177.851 55.6399 174.323 56.9839C170.795 58.3279 166.623 58.9999 161.807 58.9999H130.559V0.115875H160.379ZM159.287 22.7959C160.631 22.7959 161.695 22.4039 162.479 21.6199C163.319 20.8359 163.739 19.7999 163.739 18.5119C163.739 17.2239 163.319 16.2159 162.479 15.4879C161.695 14.7599 160.631 14.3959 159.287 14.3959H149.963V22.7959H159.287ZM159.287 44.7199C161.079 44.7199 162.507 44.2999 163.571 43.4599C164.691 42.5639 165.251 41.4159 165.251 40.0159C165.251 38.7279 164.691 37.6919 163.571 36.9079C162.507 36.1239 161.079 35.7319 159.287 35.7319H149.963V44.7199H159.287ZM219.821 0.115875C227.829 0.115875 234.017 1.96387 238.385 5.65987C242.753 9.29987 244.937 14.4799 244.937 21.1999C244.937 28.3119 242.753 33.8559 238.385 37.8319C234.017 41.7519 227.829 43.7119 219.821 43.7119H210.833V58.9999H191.345V0.115875H219.821ZM219.821 28.9279C221.949 28.9279 223.573 28.3119 224.693 27.0799C225.869 25.7919 226.457 24.0279 226.457 21.7879C226.457 19.6039 225.869 17.9239 224.693 16.7479C223.573 15.5159 221.949 14.8999 219.821 14.8999H210.833V28.9279H219.821ZM214.865 36.7399H233.681L247.205 58.9999H225.197L214.865 36.7399ZM252.212 0.115875H271.7V58.9999H252.212V0.115875ZM306.394 0.115875C311.266 0.115875 315.662 0.815874 319.582 2.21587C323.502 3.55988 326.862 5.51988 329.662 8.09588C332.462 10.6719 334.618 13.7799 336.13 17.4199C337.642 21.0039 338.398 25.0359 338.398 29.5159C338.398 33.9959 337.614 38.0559 336.046 41.6959C334.534 45.2799 332.35 48.3879 329.494 51.0199C326.638 53.5959 323.194 55.5839 319.162 56.9839C315.13 58.3279 310.622 58.9999 305.638 58.9999H280.102V0.115875H306.394ZM306.898 43.8799C308.69 43.8799 310.286 43.5439 311.686 42.8719C313.086 42.1999 314.29 41.2479 315.298 40.0159C316.362 38.7839 317.146 37.2999 317.65 35.5639C318.21 33.8279 318.49 31.8679 318.49 29.6839C318.49 27.4999 318.182 25.5399 317.566 23.8039C317.006 22.0119 316.166 20.4719 315.046 19.1839C313.982 17.8959 312.666 16.9159 311.098 16.2439C309.586 15.5719 307.878 15.2359 305.974 15.2359H299.59V43.8799H306.898Z" fill="url(#paint1_radial_2320_129547)"/>
<defs>
<radialGradient id="paint0_radial_2320_129547" cx="0" cy="0" r="1" gradientUnits="userSpaceOnUse" gradientTransform="translate(172.638 93.5407) scale(168.362 207.929)">
<stop stop-color="#FAFAFA"/>
<stop offset="1" stop-color="#FAFAFA" stop-opacity="0"/>
</radialGradient>
<radialGradient id="paint1_radial_2320_129547" cx="0" cy="0" r="1" gradientUnits="userSpaceOnUse" gradientTransform="translate(170.642 29.8641) scale(169.358 314.559)">
<stop stop-color="#FAFAFA"/>
<stop offset="1" stop-color="#FAFAFA" stop-opacity="0"/>
</radialGradient>
</defs>
</svg>
