<svg width="123" height="40" viewBox="0 0 123 40" fill="none" xmlns="http://www.w3.org/2000/svg">
<path d="M13.927 24.4014H8.80873L7.01399 28.2566L5.21925 24.4014H0.189606L4.28869 32.0677L0.0566406 39.6455H5.08647L7.01399 35.8567L8.94169 39.6455H14.0602L9.80587 32.0677L13.927 24.4014Z" fill="white"/>
<path d="M23.0771 30.8714C22.6484 31.1963 22.043 31.3587 21.2601 31.3587C20.9202 31.3587 20.6028 31.3442 20.3075 31.3146V27.5919H21.2601C22.0579 27.5919 22.6672 27.7472 23.088 28.0574C23.5092 28.3675 23.7196 28.8329 23.7196 29.4533C23.7196 30.0736 23.5052 30.5466 23.0771 30.8714ZM26.3009 25.7308C25.0527 24.8446 23.2911 24.4014 21.0164 24.4014H15.5215V39.6455H20.3075V34.4386H21.238C22.5232 34.4386 23.6938 34.2356 24.75 33.8294C25.8058 33.4231 26.6405 32.8432 27.2539 32.0901C27.8666 31.3366 28.1733 30.4578 28.1733 29.4533C28.1733 27.8579 27.549 26.6171 26.3009 25.7308Z" fill="white"/>
<path d="M29.9023 39.6455H40.6042V36.2776H35.2866V33.3307H40.1389V30.539H35.2866V27.7694H40.6042V24.4014H29.9023V39.6455Z" fill="white"/>
<path d="M59.6582 39.6455H64.7765V24.4014H59.6582V39.6455Z" fill="white"/>
<path d="M67.6582 39.6455H78.3601V36.2776H73.0424V33.3307H77.8948V30.539H73.0424V27.7694H78.3601V24.4014H67.6582V39.6455Z" fill="white"/>
<path d="M91.3644 32.6216L85.2933 24.4014H80.8398V39.6455H84.7837V31.7133L90.8989 39.6455H95.3303V24.4014H91.3644V32.6216Z" fill="white"/>
<path d="M107.518 35.8568C107.12 35.9452 106.691 35.9896 106.233 35.9896C105.037 35.9896 104.102 35.6388 103.43 34.9372C102.758 34.2356 102.422 33.2569 102.422 32.0014C102.422 30.7162 102.74 29.7302 103.375 29.0435C104.01 28.3565 104.918 28.013 106.1 28.013C106.957 28.013 108.538 28.2125 109.601 28.6113V25.177C109.055 24.8222 108.375 24.5491 107.607 24.357C106.839 24.1653 106.056 24.0691 105.258 24.0691C103.781 24.0691 102.452 24.4124 101.27 25.0993C100.088 25.7862 99.1575 26.7356 98.4784 27.9466C97.7987 29.1578 97.459 30.5167 97.459 32.0234C97.459 33.5008 97.8098 34.8485 98.5116 36.0671C99.213 37.2858 100.166 38.2462 101.37 38.9476C102.573 39.649 103.914 40 105.391 40C106.913 40 108.316 39.6235 109.601 38.8701V35.3692C109.025 35.6058 107.917 35.768 107.518 35.8568Z" fill="white"/>
<path d="M122.298 27.7694V24.4015H111.596V39.6455H122.298V36.2776H116.98V33.3307H121.832V30.5392H116.98V27.7694H122.298Z" fill="white"/>
<path d="M51.8523 30.8603C51.4236 31.1853 50.8182 31.3477 50.0353 31.3477C49.6954 31.3477 48.6702 31.3331 48.3748 31.3035V27.5809H50.0353C50.8331 27.5809 51.4424 27.7361 51.8632 28.0462C52.2844 28.3564 52.4948 28.8219 52.4948 29.4422C52.4948 30.0625 52.2804 30.5355 51.8523 30.8603ZM54.3986 34.675C54.7222 34.4911 55.0195 34.2793 55.2886 34.0373C56.4095 33.0298 56.9704 31.6124 56.9704 29.786C56.9704 28.0754 56.4095 26.749 55.2886 25.8063C54.1672 24.8641 52.5727 24.3928 50.5053 24.3928H43.3633V39.6367H48.3748V34.6538H49.878L51.9 39.6367H57.4945L54.3986 34.675Z" fill="white"/>
<path d="M13.7668 8.61239H7.07202V0.000436783H0V21.625H7.07202V13.1387H13.7668V21.625H20.8702V0.000436783H13.7668V8.61239Z" fill="white"/>
<path d="M32.4361 9.71251L29.3876 0.000436783H22.8184L29.0417 15.6218V21.625H35.7993V15.6218L42.337 0.000436783H35.4221L32.4361 9.71251Z" fill="white"/>
<path d="M56.4932 16.4226C55.8749 16.8525 54.9894 17.0669 53.8371 17.0669C53.1877 17.0669 52.3914 17.0358 51.4484 16.9726V12.0067H54.1515C55.1992 12.0067 56.006 12.2319 56.5718 12.6823C57.1374 13.133 57.4205 13.7775 57.4205 14.6154C57.4205 15.3906 57.111 15.9934 56.4932 16.4226ZM51.4797 4.18008H54.0259C55.8694 4.18008 56.7917 4.92411 56.7917 6.41162C56.7917 7.04023 56.5248 7.55398 55.9903 7.95175C55.456 8.35026 54.7801 8.54905 53.9631 8.54905H51.4797V4.18008ZM59.9036 9.86908C61.0556 9.57599 61.9151 9.05752 62.4807 8.31349C63.0467 7.56983 63.3294 6.54817 63.3294 5.24889C63.3294 4.20139 62.9839 3.2795 62.2923 2.48266C61.6007 1.68676 60.6422 1.0738 59.4161 0.644163C58.1906 0.214905 56.8125 -0.000101089 55.2831 -0.000101089H44.4707V21.6558H53.106C54.2531 21.7018 55.4064 21.6882 56.5527 21.6335C58.3696 21.5468 60.3346 21.4387 61.8602 20.3418C62.4566 19.9127 62.843 19.4112 63.2381 18.8017C63.9727 17.6638 64.3039 16.2238 64.3039 15.0553C64.3039 12.0591 62.8368 10.3304 59.9036 9.86908Z" fill="white"/>
<path d="M90.3652 21.625H97.6257V0.00043869H90.3652V21.625Z" fill="white"/>
<path d="M114.394 14.4741C113.566 15.4695 112.366 15.9671 110.795 15.9671H108.658V5.65769H110.795C112.408 5.65769 113.618 6.10298 114.425 6.99356C115.231 7.88414 115.635 9.08346 115.635 10.5925C115.635 12.1848 115.221 13.479 114.394 14.4741ZM117.128 1.35152C115.378 0.450949 113.372 1.90735e-06 111.109 1.90735e-06H101.711V21.6248H111.109C113.414 21.6248 115.441 21.1689 117.191 20.2576C118.94 19.3459 120.292 18.0624 121.246 16.4073C122.199 14.7523 122.676 12.8348 122.676 10.6551C122.676 8.58065 122.189 6.73725 121.214 5.12319C120.24 3.51008 118.878 2.25267 117.128 1.35152Z" fill="white"/>
<path d="M79.001 9.17499C78.393 9.63593 77.5341 9.86622 76.4236 9.86622C75.9414 9.86622 74.487 9.84566 74.0682 9.8036V4.52293H76.4236C77.5552 4.52293 78.4196 4.74303 79.0167 5.18303C79.614 5.62304 79.9126 6.28334 79.9126 7.16317C79.9126 8.04319 79.6085 8.71423 79.001 9.17499ZM82.6132 14.5864C83.0722 14.3255 83.4937 14.0249 83.8757 13.6816C85.4658 12.2524 86.2613 10.2419 86.2613 7.6509C86.2613 5.22453 85.4658 3.34266 83.8757 2.00565C82.2848 0.66884 80.0229 0.000246048 77.0901 0.000246048H66.959V21.625H74.0682V14.5562H76.2005L79.0688 21.625H87.0048L82.6132 14.5864Z" fill="white"/>
</svg>
