<svg width="213" height="39" viewBox="0 0 213 39" fill="none" xmlns="http://www.w3.org/2000/svg">
<mask id="mask0_2320_120678" style="mask-type:luminance" maskUnits="userSpaceOnUse" x="0" y="0" width="213" height="39">
<path d="M0.59375 38.0674H212.943V0.316341H0.59375V38.0674Z" fill="white"/>
</mask>
<g mask="url(#mask0_2320_120678)">
<mask id="mask1_2320_120678" style="mask-type:luminance" maskUnits="userSpaceOnUse" x="0" y="0" width="213" height="39">
<path fill-rule="evenodd" clip-rule="evenodd" d="M0.59375 0.316307V38.9934H212.786V0.316307" fill="white"/>
</mask>
<g mask="url(#mask1_2320_120678)">
<path d="M66.5365 28.0365L63.0047 35.487L59.4713 28.0365H57.3516V38.0071H59.1183V31.2139L62.2971 38.0071H63.7108L66.8896 31.3235V38.0071H68.5386V28.0365H66.5365Z" fill="#F9F9F9"/>
</g>
<mask id="mask2_2320_120678" style="mask-type:luminance" maskUnits="userSpaceOnUse" x="0" y="0" width="213" height="39">
<path fill-rule="evenodd" clip-rule="evenodd" d="M0.59375 0.316307V38.9934H212.786V0.316307" fill="white"/>
</mask>
<g mask="url(#mask2_2320_120678)">
<path d="M75.4865 28.0365L71.0117 38.0071H73.0138L76.4279 30.2279L77.8416 33.5149H76.0749L75.4865 35.0488H78.5477L79.8437 38.0071H81.9634L77.3709 28.0365H75.4865Z" fill="#F9F9F9"/>
</g>
<mask id="mask3_2320_120678" style="mask-type:luminance" maskUnits="userSpaceOnUse" x="0" y="0" width="213" height="39">
<path d="M0.59375 0.316307V38.9934H212.786V0.316307" fill="white"/>
</mask>
<g mask="url(#mask3_2320_120678)">
<path d="M85.3775 35.0488C85.3775 36.0349 84.9068 36.4731 83.6108 36.4731H83.2578V38.0071H83.6108C86.6735 38.0071 87.3796 36.3636 87.3796 35.0488V28.0365H85.3775V35.0488Z" fill="#F9F9F9"/>
</g>
<mask id="mask4_2320_120678" style="mask-type:luminance" maskUnits="userSpaceOnUse" x="0" y="0" width="213" height="39">
<path d="M0.59375 0.316307V38.9934H212.786V0.316307" fill="white"/>
</mask>
<g mask="url(#mask4_2320_120678)">
<path d="M91.1484 38.0071H93.0312V28.0365H91.1484V38.0071Z" fill="#F9F9F9"/>
</g>
<mask id="mask5_2320_120678" style="mask-type:luminance" maskUnits="userSpaceOnUse" x="0" y="0" width="213" height="39">
<path d="M0.59375 0.316307V38.9934H212.786V0.316307" fill="white"/>
</mask>
<g mask="url(#mask5_2320_120678)">
<path d="M100.805 28.0365H96.8008V38.0071H100.805C104.337 38.0071 106.103 36.2539 106.103 32.7479C106.103 29.5704 104.337 28.0365 100.805 28.0365ZM100.805 36.4731H98.6852V29.5704H100.805C103.16 29.5704 104.219 30.5566 104.219 32.7479C104.219 35.2679 103.16 36.4731 100.805 36.4731Z" fill="#F9F9F9"/>
</g>
<mask id="mask6_2320_120678" style="mask-type:luminance" maskUnits="userSpaceOnUse" x="0" y="0" width="213" height="39">
<path d="M0.59375 0.316307V38.9934H212.786V0.316307" fill="white"/>
</mask>
<g mask="url(#mask6_2320_120678)">
<path d="M117.878 28.0365L113.285 38.0071H115.287L118.701 30.2279L120.233 33.5149H118.348L117.76 35.0488H120.821L122.235 38.0071H124.237L119.644 28.0365H117.878Z" fill="#F9F9F9"/>
</g>
<mask id="mask7_2320_120678" style="mask-type:luminance" maskUnits="userSpaceOnUse" x="0" y="0" width="213" height="39">
<path d="M0.59375 0.316307V38.9934H212.786V0.316307" fill="white"/>
</mask>
<g mask="url(#mask7_2320_120678)">
<path d="M126.711 28.0365V38.0071H133.894V36.4731H128.595V28.0365H126.711Z" fill="#F9F9F9"/>
</g>
<mask id="mask8_2320_120678" style="mask-type:luminance" maskUnits="userSpaceOnUse" x="0" y="0" width="213" height="39">
<path d="M0.59375 0.316307V38.9934H212.786V0.316307" fill="white"/>
</mask>
<g mask="url(#mask8_2320_120678)">
<path d="M141.898 28.0368V38.0073H143.783V33.7341H148.846V32.2002H143.783V29.5707H149.081V28.0368H141.898Z" fill="#F9F9F9"/>
</g>
<mask id="mask9_2320_120678" style="mask-type:luminance" maskUnits="userSpaceOnUse" x="0" y="0" width="213" height="39">
<path d="M0.59375 0.316307V38.9934H212.786V0.316307" fill="white"/>
</mask>
<g mask="url(#mask9_2320_120678)">
<path d="M158.86 34.0629C158.86 35.7065 158.028 36.583 156.264 36.583C154.382 36.583 153.556 35.7065 153.556 34.0629V28.0368H151.672V34.0629C151.672 36.6926 153.203 38.1169 156.264 38.1169C159.205 38.1169 160.742 36.6926 160.742 34.0629V28.0368H158.86V34.0629Z" fill="#F9F9F9"/>
</g>
<mask id="mask10_2320_120678" style="mask-type:luminance" maskUnits="userSpaceOnUse" x="0" y="0" width="213" height="39">
<path d="M0.59375 0.316307V38.9934H212.786V0.316307" fill="white"/>
</mask>
<g mask="url(#mask10_2320_120678)">
<path d="M163.332 28.0365V29.5704H166.627V38.0071H168.51V29.5704H171.695V28.0365H163.332Z" fill="#F9F9F9"/>
</g>
<mask id="mask11_2320_120678" style="mask-type:luminance" maskUnits="userSpaceOnUse" x="0" y="0" width="213" height="39">
<path d="M0.59375 0.316307V38.9934H212.786V0.316307" fill="white"/>
</mask>
<g mask="url(#mask11_2320_120678)">
<path d="M173.578 28.0365V29.5704H176.763V38.0071H178.646V29.5704H181.815V28.0365H173.578Z" fill="#F9F9F9"/>
</g>
<mask id="mask12_2320_120678" style="mask-type:luminance" maskUnits="userSpaceOnUse" x="0" y="0" width="213" height="39">
<path d="M0.59375 0.316307V38.9934H212.786V0.316307" fill="white"/>
</mask>
<g mask="url(#mask12_2320_120678)">
<path d="M186.992 28.0365L182.41 38.0071H184.403L187.823 30.2279L189.361 33.5149H187.462L186.992 35.0488H190.067L191.354 38.0071H193.362L188.89 28.0365H186.992Z" fill="#F9F9F9"/>
</g>
<mask id="mask13_2320_120678" style="mask-type:luminance" maskUnits="userSpaceOnUse" x="0" y="0" width="213" height="39">
<path d="M0.59375 0.316307V38.9934H212.786V0.316307" fill="white"/>
</mask>
<g mask="url(#mask13_2320_120678)">
<path d="M196.062 38.0071H197.945V28.0365H196.062V38.0071Z" fill="#F9F9F9"/>
</g>
<mask id="mask14_2320_120678" style="mask-type:luminance" maskUnits="userSpaceOnUse" x="0" y="0" width="213" height="39">
<path d="M0.59375 0.316307V38.9934H212.786V0.316307" fill="white"/>
</mask>
<g mask="url(#mask14_2320_120678)">
<path d="M210.78 28.0365L207.375 35.487L203.845 28.0365H201.727V38.0071H203.484V31.2139L206.669 38.0071H208.081L211.141 31.3235V38.0071H212.914V28.0365H210.78Z" fill="#F9F9F9"/>
</g>
<mask id="mask15_2320_120678" style="mask-type:luminance" maskUnits="userSpaceOnUse" x="0" y="0" width="213" height="39">
<path d="M0.59375 0.316307V38.9934H212.786V0.316307" fill="white"/>
</mask>
<g mask="url(#mask15_2320_120678)">
<path d="M78.0742 24.6399H79.9586V22.6683H78.0742V24.6399Z" fill="#F9F9F9"/>
</g>
<mask id="mask16_2320_120678" style="mask-type:luminance" maskUnits="userSpaceOnUse" x="0" y="0" width="213" height="39">
<path d="M0.59375 0.316307V38.9934H212.786V0.316307" fill="white"/>
</mask>
<g mask="url(#mask16_2320_120678)">
<path d="M83.3731 22.6683H81.3711V24.6399H83.3731V22.6683Z" fill="#F9F9F9"/>
</g>
<mask id="mask17_2320_120678" style="mask-type:luminance" maskUnits="userSpaceOnUse" x="0" y="0" width="213" height="39">
<path d="M0.59375 0.316307V38.9934H212.786V0.316307" fill="white"/>
</mask>
<g mask="url(#mask17_2320_120678)">
<path d="M123.884 7.8762H122V9.95728H123.884V7.8762Z" fill="#F9F9F9"/>
</g>
<mask id="mask18_2320_120678" style="mask-type:luminance" maskUnits="userSpaceOnUse" x="0" y="0" width="213" height="39">
<path d="M0.59375 0.316307V38.9934H212.786V0.316307" fill="white"/>
</mask>
<g mask="url(#mask18_2320_120678)">
<path d="M144.137 17.7376V9.30104H142.252V17.1893C142.252 17.9564 142.252 18.5047 142.017 18.7235C141.899 19.161 141.428 19.2718 140.722 19.2718H126.12C125.649 19.2718 125.296 19.2718 124.943 19.0516C125.531 18.7235 126.002 18.2845 126.474 17.6283C126.945 16.9705 127.18 16.2034 127.18 15.327C127.18 14.3411 126.827 13.4647 126.12 12.6976C125.296 11.9305 124.237 11.4915 122.823 11.4915C121.529 11.4915 120.468 11.9305 119.644 12.6976C118.937 13.3538 118.584 14.3411 118.584 15.327C118.584 16.2034 118.819 16.9705 119.291 17.6283C119.644 18.2845 120.233 18.7235 120.821 19.0516C120.468 19.2718 119.997 19.2718 119.644 19.2718H107.751C107.751 19.0516 107.751 18.9422 107.751 18.7235C107.751 14.6693 106.102 12.6976 102.923 12.6976C100.804 12.6976 98.5663 14.1209 97.1526 16.4222L97.5056 9.30104H95.5036V19.2718H83.1398C83.2575 18.8329 83.2575 18.2845 83.2575 17.7376V12.6976H81.4908V17.1893C81.4908 17.9564 81.3731 18.5047 81.2554 18.7235C81.0201 19.161 80.5494 19.2718 79.8433 19.2718H74.1902C72.425 19.2718 71.2467 18.2845 71.129 16.7518C70.8937 14.1209 69.3623 12.6976 67.0072 12.6976H61.591C58.7652 12.6976 57.3516 14.3411 57.3516 17.7376V23.7634H59.2359V17.7376C59.2359 15.5457 60.1773 14.2317 61.591 14.2317H63.5931C63.0047 14.9974 62.7678 15.7645 62.7678 16.8612C62.7678 19.3812 64.4168 20.9139 66.8896 20.9139C68.4209 20.9139 69.5977 20.3671 70.3053 19.2718C71.0114 20.4764 72.425 21.0248 74.3078 21.0248H118.466C119.644 21.0248 120.35 21.0248 120.703 20.9139C121.409 20.8046 122.117 20.5858 122.941 20.1483C123.647 20.5858 124.355 20.8046 125.061 20.9139C125.414 21.0248 126.12 21.0248 127.18 21.0248H141.193C142.488 21.0248 144.137 20.4764 144.137 17.7376ZM122.823 13.1351C123.529 13.1351 124.119 13.3538 124.59 13.6834C124.943 14.1209 125.178 14.5599 125.178 15.2176C125.178 15.7645 124.943 16.3128 124.59 16.8612C124.119 17.4081 123.647 17.847 122.941 18.0658C122.117 17.847 121.529 17.4081 121.174 16.8612C120.821 16.3128 120.586 15.7645 120.586 15.2176C120.586 13.9022 121.529 13.1351 122.823 13.1351ZM105.749 18.5047C105.749 18.7235 105.749 19.0516 105.749 19.2718H97.2703C98.2133 16.641 100.804 14.2317 102.923 14.2317C104.689 14.2317 105.749 15.8739 105.749 18.5047ZM66.8896 19.2718C65.7128 19.2718 64.8875 18.3939 64.8875 16.8612C64.8875 15.2176 65.7128 14.3411 67.0072 14.3411C68.1856 14.3411 68.8916 15.2176 68.8916 16.7518C68.8916 19.0516 67.8325 19.2718 66.8896 19.2718Z" fill="#F9F9F9"/>
</g>
<mask id="mask19_2320_120678" style="mask-type:luminance" maskUnits="userSpaceOnUse" x="0" y="0" width="213" height="39">
<path d="M0.59375 0.316307V38.9934H212.786V0.316307" fill="white"/>
</mask>
<g mask="url(#mask19_2320_120678)">
<path d="M149.201 9.30141H147.316V21.0251H149.201V9.30141Z" fill="#F9F9F9"/>
</g>
<mask id="mask20_2320_120678" style="mask-type:luminance" maskUnits="userSpaceOnUse" x="0" y="0" width="213" height="39">
<path d="M0.59375 0.316307V38.9934H212.786V0.316307" fill="white"/>
</mask>
<g mask="url(#mask20_2320_120678)">
<path d="M182.286 19.052C182.286 15.3273 179.823 12.9167 175.932 12.9167C173.814 12.9167 172.166 13.5744 171.099 14.779L170.989 14.9978L171.099 15.218C171.695 15.7649 172.041 16.0944 172.276 16.2038L172.511 16.5319L172.747 16.2038C173.343 15.1086 174.394 14.5602 175.932 14.5602C178.646 14.5602 180.168 16.0944 180.168 18.9426C180.168 19.052 180.168 19.1614 180.168 19.2722H162.972C162.626 14.8884 160.508 12.6979 156.501 12.6979H156.266V14.3415H156.973C158.5 14.4509 159.441 14.9978 160.147 15.9851C160.744 16.7522 160.979 17.9568 161.089 19.2722H153.793V21.0251H182.286V19.052Z" fill="#F9F9F9"/>
</g>
<mask id="mask21_2320_120678" style="mask-type:luminance" maskUnits="userSpaceOnUse" x="0" y="0" width="213" height="39">
<path d="M0.59375 0.316307V38.9934H212.786V0.316307" fill="white"/>
</mask>
<g mask="url(#mask21_2320_120678)">
<path d="M177.234 22.5575H175.336V24.6399H177.234V22.5575Z" fill="#F9F9F9"/>
</g>
<mask id="mask22_2320_120678" style="mask-type:luminance" maskUnits="userSpaceOnUse" x="0" y="0" width="213" height="39">
<path d="M0.59375 0.316307V38.9934H212.786V0.316307" fill="white"/>
</mask>
<g mask="url(#mask22_2320_120678)">
<path d="M187.117 21.0251H205.49C206.196 22.011 207.373 22.5579 208.785 22.5579C210.072 22.5579 211.139 22.1204 211.845 21.2439C212.551 20.4768 212.912 19.4909 212.912 18.3943C212.912 17.0803 212.551 16.0944 211.845 15.4367C211.139 14.5602 210.072 14.2321 208.785 14.2321C207.483 14.2321 206.432 14.5602 205.726 15.3273C205.02 16.2038 204.549 17.1896 204.549 18.3943C204.549 18.7238 204.659 18.9426 204.659 19.2722C198.304 19.2722 187.698 19.2722 187.353 19.2722C186.992 19.1613 186.646 19.052 186.521 18.8332C186.286 18.5051 186.176 18.0661 186.176 17.299V9.30139H184.293V18.0661C184.293 19.052 184.638 19.7097 185.234 20.258C185.705 20.8049 186.286 21.0251 187.117 21.0251ZM208.785 20.9143C208.079 20.9143 207.608 20.6955 207.248 20.1487C206.902 19.7097 206.667 19.1613 206.667 18.3943C206.667 17.6286 206.902 17.0803 207.248 16.5319C207.608 16.0944 208.079 15.7648 208.895 15.7648C209.601 15.7648 210.072 15.985 210.433 16.5319C210.668 16.9709 210.778 17.5178 210.778 18.1755C210.778 20.0378 210.197 20.9143 208.785 20.9143Z" fill="#F9F9F9"/>
</g>
<mask id="mask23_2320_120678" style="mask-type:luminance" maskUnits="userSpaceOnUse" x="0" y="0" width="213" height="39">
<path d="M0.59375 0.316307V38.9934H212.786V0.316307" fill="white"/>
</mask>
<g mask="url(#mask23_2320_120678)">
<path d="M22.9678 0.425694C22.0248 0.753822 21.2011 1.08342 19.7874 1.85051C14.2532 5.02827 11.7805 10.9448 11.545 16.6412C11.545 16.9708 11.545 17.2989 11.545 17.6285V17.8472V38.0073H18.7283V17.8472C18.7283 16.5318 19.3167 15.4366 20.3758 14.6695L23.2032 17.8472L26.0289 14.6695C26.9704 15.4366 27.5587 16.5318 27.5587 17.8472V38.0073H34.7432V17.8472C34.7432 11.8213 29.5608 6.99997 23.2032 6.99997C21.6718 6.99997 20.1405 7.3281 18.846 7.76707C20.3758 6.23287 22.6132 5.3564 24.9683 5.3564C25.7936 5.3564 26.4996 5.3564 27.3234 5.46578C33.6826 6.45163 38.5104 11.4917 38.5104 17.4083C38.6281 17.6285 38.6281 17.8472 38.6281 18.1754V38.0073H45.811C45.811 38.0073 45.811 18.066 45.811 17.9566C45.811 9.30126 40.1594 2.28802 30.6214 0.316319C30.2684 0.20694 29.6785 0.0975647 29.2078 0.0975647C28.5017 -0.0118103 27.678 -0.12265 26.9704 -0.12265C25.4406 -0.12265 24.2622 0.20694 22.9678 0.425694ZM21.5541 -0.3414C9.18988 -0.3414 0.59375 7.3281 0.59375 17.6285V38.0073H7.77683C7.77683 38.0073 7.77683 26.8314 7.77683 17.6285C7.77683 8.0952 15.5486 1.19279 23.4385 -0.232025C23.6739 -0.232025 24.1446 -0.3414 23.6739 -0.3414H21.5541Z" fill="#AF9247"/>
</g>
</g>
</svg>
