<svg width="232" height="23" viewBox="0 0 232 23" fill="none" xmlns="http://www.w3.org/2000/svg">
<path d="M0.94 0.969999H6.85L11.59 18.61H10.39L15.13 0.969999H20.5L25.3 18.61H24.1L28.81 0.969999H34.45L27.34 22H21.7L17.08 5.35L18.34 5.38L13.66 22H8.02L0.94 0.969999ZM36.4384 0.969999H41.9284V9.58H50.4184V0.969999H55.9084V22H50.4184V13.9H41.9284V22H36.4384V0.969999ZM70.0131 0.64C71.6531 0.64 73.1531 0.909999 74.5131 1.45C75.8931 1.99 77.0931 2.75 78.1131 3.73C79.1531 4.71 79.9531 5.86 80.5131 7.18C81.0931 8.48 81.3831 9.9 81.3831 11.44C81.3831 13 81.0931 14.45 80.5131 15.79C79.9531 17.11 79.1531 18.27 78.1131 19.27C77.0931 20.25 75.8931 21.02 74.5131 21.58C73.1531 22.12 71.6531 22.39 70.0131 22.39C68.3931 22.39 66.8931 22.12 65.5131 21.58C64.1331 21.02 62.9231 20.25 61.8831 19.27C60.8631 18.27 60.0631 17.11 59.4831 15.79C58.9231 14.45 58.6431 13 58.6431 11.44C58.6431 9.9 58.9231 8.47 59.4831 7.15C60.0631 5.83 60.8631 4.69 61.8831 3.73C62.9231 2.75 64.1331 1.99 65.5131 1.45C66.8931 0.909999 68.3931 0.64 70.0131 0.64ZM70.0731 5.23C69.2931 5.23 68.5431 5.39 67.8231 5.71C67.1231 6.01 66.5031 6.45 65.9631 7.03C65.4431 7.59 65.0331 8.25 64.7331 9.01C64.4331 9.75 64.2831 10.57 64.2831 11.47C64.2831 12.35 64.4331 13.18 64.7331 13.96C65.0331 14.72 65.4531 15.39 65.9931 15.97C66.5331 16.53 67.1531 16.97 67.8531 17.29C68.5531 17.61 69.2931 17.77 70.0731 17.77C70.8531 17.77 71.5831 17.61 72.2631 17.29C72.9631 16.97 73.5731 16.53 74.0931 15.97C74.6131 15.39 75.0131 14.72 75.2931 13.96C75.5931 13.18 75.7431 12.35 75.7431 11.47C75.7431 10.57 75.5931 9.75 75.2931 9.01C75.0131 8.25 74.6131 7.59 74.0931 7.03C73.5731 6.45 72.9631 6.01 72.2631 5.71C71.5831 5.39 70.8531 5.23 70.0731 5.23ZM90.0904 0.969999H96.0004L100.74 18.61H99.5404L104.28 0.969999H109.65L114.45 18.61H113.25L117.96 0.969999H123.6L116.49 22H110.85L106.23 5.35L107.49 5.38L102.81 22H97.1704L90.0904 0.969999ZM125.589 0.969999H142.179V5.29H131.079V9.31H141.099V13.6H131.079V17.68H142.479V22H125.589V0.969999ZM160.759 0.969999H166.399L175.219 22H169.369L163.429 6.46L157.369 22H151.729L160.759 0.969999ZM157.129 14.08H169.399V18.22H157.129V14.08ZM186.572 0.969999C189.372 0.969999 191.532 1.62 193.052 2.92C194.572 4.2 195.332 6.01 195.332 8.35C195.332 10.81 194.572 12.73 193.052 14.11C191.532 15.47 189.372 16.15 186.572 16.15H182.612V22H177.122V0.969999H186.572ZM186.572 11.83C187.712 11.83 188.582 11.55 189.182 10.99C189.802 10.43 190.112 9.6 190.112 8.5C190.112 7.44 189.802 6.64 189.182 6.1C188.582 5.56 187.712 5.29 186.572 5.29H182.612V11.83H186.572ZM185.612 14.14H190.952L195.962 22H189.752L185.612 14.14ZM198.831 0.969999H215.421V5.29H204.321V9.31H214.341V13.6H204.321V17.68H215.721V22H198.831V0.969999ZM217.695 7.78C217.715 5.6 218.335 3.91 219.555 2.71C220.775 1.49 222.455 0.879998 224.595 0.879998C225.935 0.879998 227.085 1.09 228.045 1.51C229.025 1.91 229.775 2.5 230.295 3.28C230.835 4.06 231.105 5.01 231.105 6.13C231.105 6.89 230.975 7.56 230.715 8.14C230.475 8.7 230.155 9.2 229.755 9.64C229.375 10.06 228.965 10.46 228.525 10.84C228.085 11.22 227.665 11.6 227.265 11.98C226.865 12.36 226.545 12.78 226.305 13.24C226.065 13.68 225.945 14.2 225.945 14.8H221.955C221.955 14.04 222.055 13.38 222.255 12.82C222.455 12.26 222.705 11.78 223.005 11.38C223.325 10.96 223.665 10.59 224.025 10.27C224.385 9.93 224.715 9.6 225.015 9.28C225.335 8.96 225.595 8.62 225.795 8.26C226.015 7.9 226.125 7.47 226.125 6.97C226.125 6.33 225.955 5.86 225.615 5.56C225.275 5.26 224.765 5.11 224.085 5.11C223.345 5.11 222.785 5.33 222.405 5.77C222.025 6.21 221.825 6.89 221.805 7.81L217.695 7.78ZM223.845 17.11C224.605 17.11 225.225 17.35 225.705 17.83C226.185 18.29 226.425 18.9 226.425 19.66C226.425 20.42 226.185 21.04 225.705 21.52C225.225 22 224.605 22.24 223.845 22.24C223.105 22.24 222.495 22 222.015 21.52C221.535 21.04 221.295 20.42 221.295 19.66C221.295 18.9 221.535 18.29 222.015 17.83C222.495 17.35 223.105 17.11 223.845 17.11Z" fill="url(#paint0_linear_2387_272)"/>
<defs>
<linearGradient id="paint0_linear_2387_272" x1="1" y1="11" x2="263" y2="11" gradientUnits="userSpaceOnUse">
<stop stop-color="#BF56FF"/>
<stop offset="1" stop-color="#DC2E2D"/>
</linearGradient>
</defs>
</svg>
