<svg width="161" height="44" viewBox="0 0 161 44" fill="none" xmlns="http://www.w3.org/2000/svg">
<g id="netflix logo" clip-path="url(#clip0_2320_120601)">
<g id="Group">
<path id="Vector" d="M107.084 0V31.3135C110.947 31.4932 114.799 31.7104 118.64 31.9667V38.6055C112.568 38.2007 106.47 37.8917 100.346 37.681V0H107.084ZM160.629 0.00370971L151.855 20.3457L160.627 42.9824L160.617 42.9867C158.062 42.6222 155.503 42.278 152.937 41.9481L148.011 29.243L143.038 40.7687C140.682 40.5085 138.322 40.2623 135.956 40.0315L144.51 20.2096L136.676 0.00370971H143.966L148.352 11.3112L153.228 0.00370971H160.629ZM77.2205 37.352L77.2203 0.00358967H96.0297V6.7021H83.9585V15.3837H93.092V22.0225H83.9585V37.3504L77.2205 37.352ZM52.0602 6.70265L52.06 0.00324049H72.9009V6.70218H65.8493V37.5337C63.6003 37.5925 61.3536 37.6623 59.1116 37.7469V6.70265H52.0602ZM29.0252 39.6769V0.00436431H47.7408V6.70287H35.7624V15.7766C38.5143 15.7413 42.427 15.7014 44.8614 15.7073V22.3466C41.8142 22.3088 38.3746 22.3884 35.7624 22.4145V32.4655C39.7435 32.1524 43.7367 31.8785 47.7408 31.6472V38.2866C41.4739 38.6476 35.2352 39.1127 29.0252 39.6769ZM15.8074 24.3294L15.8069 0.00327331H22.5451V40.3028C20.0819 40.5562 17.6234 40.8258 15.1691 41.1104L7.36669 18.6951V42.0705C5.11632 42.3636 2.87054 42.6692 0.628906 42.9882V0.00370971H7.0324L15.8074 24.3294ZM124.199 39.006V0.00375316H130.938V39.5624C128.694 39.3628 126.449 39.1781 124.199 39.006Z" fill="#DB202C"/>
</g>
</g>
<defs>
<clipPath id="clip0_2320_120601">
<rect width="160" height="43.125" fill="white" transform="translate(0.628906)"/>
</clipPath>
</defs>
</svg>
