<svg width="161" height="39" viewBox="0 0 161 39" fill="none" xmlns="http://www.w3.org/2000/svg">
<g id="Logo_of_Red_bull logo" clip-path="url(#clip0_2320_120662)">
<g id="&#227;&#130;&#162;&#227;&#131;&#188;&#227;&#131;&#136;&#227;&#131;&#156;&#227;&#131;&#188;&#227;&#131;&#137;1">
<g id="Group">
<path id="Vector" d="M130.284 16.0721V28.7069C129.963 33.714 122.601 33.714 122.279 28.7069V16.0721H115.316V30.0754C115.316 34.8046 120.22 38.6388 126.256 38.6388C132.292 38.6388 137.196 34.8046 137.196 30.0754V16.0721H130.284ZM152.928 1.05396V37.825H159.93V1.05396H152.928ZM141.04 37.825H148.042V1.05396H141.04V37.825ZM106.748 18.6981C108.687 16.9573 109.805 14.4817 109.837 11.8777C109.833 9.52952 108.928 7.27471 107.309 5.57455C105.662 3.73819 102.681 2.70799 98.6852 2.70799H86.7083V37.825H102.179C108.1 37.7338 112.887 33.2549 112.887 27.7678C112.879 23.7744 111.472 20.92 106.748 18.6981ZM100.882 31.7074H94.1822V8.7629H98.85C100.947 8.86065 102.594 10.6026 102.572 12.7014C102.572 14.7563 100.904 16.4202 98.85 16.4158H96.4206V22.7267H100.882C106.893 22.7267 106.893 31.7371 100.882 31.7371V31.7074ZM24.9621 13.1045C24.9368 10.3324 23.81 7.68218 21.8264 5.73819C19.8495 3.79531 17.1752 2.71788 14.4009 2.74423H1.58594V37.825H9.03678V8.7629H12.8951C15.5112 8.67284 17.6958 10.7442 17.7386 13.3626C17.6233 15.982 15.4212 18.0303 12.7963 17.9469H11.0664V26.3434L18.4799 37.825H27.2114L16.9149 23.1737C21.6046 22.0831 24.9324 17.9183 24.9621 13.1045ZM37.9934 15.1638C31.6375 15.3351 26.5766 20.5345 26.5766 26.8881C26.5766 33.2472 31.6375 38.4455 37.9934 38.619C42.8786 38.619 46.6853 36.4082 48.6545 32.9518L42.961 30.3203C42.1372 31.9864 40.4239 33.0232 38.5711 32.9804C36.0351 33.0913 33.8956 31.1198 33.8012 28.5828V28.3423H49.2366C49.2839 27.8744 49.3047 27.4087 49.3003 26.9353C49.4091 19.3241 44.3942 15.1638 37.9934 15.1638ZM33.7759 24.3488C33.6683 21.9117 35.6167 19.8788 38.0571 19.8788C40.4931 19.8788 42.4404 21.9117 42.3349 24.3488H33.7759ZM77.1454 37.825V1.05396H70.135V18.4576C68.2723 16.5784 65.7363 15.5163 63.0905 15.5021C57.3245 15.5021 52.6139 20.6344 52.6139 26.9606C52.6139 33.2846 57.3102 38.4675 63.0905 38.4675C65.7638 38.4455 68.3119 37.3472 70.168 35.4296V37.9007L77.1454 37.825ZM65.0774 32.4521C62.246 32.4521 59.9373 29.9337 59.9373 26.8277C59.9373 23.7228 62.246 21.1693 65.0774 21.1693C67.9132 21.1693 70.2251 23.6921 70.2251 26.8024C70.2251 29.9172 67.922 32.4521 65.0774 32.4521Z" fill="#D2003C"/>
</g>
</g>
</g>
<defs>
<clipPath id="clip0_2320_120662">
<rect width="160" height="38.7479" fill="white" transform="translate(0.546875)"/>
</clipPath>
</defs>
</svg>
