<svg width="160" height="58" viewBox="0 0 160 58" fill="none" xmlns="http://www.w3.org/2000/svg">
<g id="Asset 1 1" clip-path="url(#clip0_2320_123478)">
<g id="Layer 1">
<g id="Group">
<path id="Vector" d="M0 57.5462C62.4258 40.1491 106.489 34.7166 160 29.8991C146.927 18.1892 133.67 8.53238 119.087 0C82.6277 13.6326 38.6892 36.2758 0 57.5462Z" fill="#ED1C24"/>
<path id="Vector_2" d="M93.9717 20.6148C93.9717 18.5151 92.9187 17.3223 92.2944 16.8067C90.7289 15.4401 89.0206 15.4121 87.5297 15.381H82.4947C81.0504 16.0395 79.6061 16.7135 78.168 17.3813V33.0297H82.1779V25.5783H85.9953C86.3276 26.0318 89.1076 31.4177 89.9369 33.0297H94.7109C93.9468 31.6817 91.5054 27.4264 90.1978 25.3267C92.5739 24.721 93.9686 23.0251 93.9686 20.6117M89.6014 21.792C88.8342 22.758 87.5266 22.758 86.4519 22.758H82.1748V18.2262H87.188C88.331 18.2417 89.1107 18.3163 89.6356 19.1083C89.8934 19.4748 90.0301 19.9594 90.0301 20.4719C90.0301 20.9844 89.8872 21.4286 89.5983 21.792M114.046 15.3779H96.2515V18.4281H103.11V33.0266H107.166V18.4281H114.049V15.3779H114.046ZM124.765 15.3779H119.87L111.033 33.0266H115.345L117.342 28.7123H126.828L128.778 32.9521C130.216 32.7999 131.658 32.6446 133.102 32.4924L124.765 15.3779ZM118.808 25.6466L122.287 18.6207L125.427 25.6466H118.808Z" fill="white"/>
</g>
</g>
</g>
<defs>
<clipPath id="clip0_2320_123478">
<rect width="160" height="57.5462" fill="white"/>
</clipPath>
</defs>
</svg>
