<svg width="367" height="104" viewBox="0 0 367 104" fill="none" xmlns="http://www.w3.org/2000/svg">
<path d="M0.88 0.939998H12.7L22.18 36.22H19.78L29.26 0.939998H40L49.6 36.22H47.2L56.62 0.939998H67.9L53.68 43H42.4L33.16 9.7L35.68 9.76L26.32 43H15.04L0.88 0.939998ZM71.8769 0.939998H105.057V9.58H82.8569V17.62H102.897V26.2H82.8569V34.36H105.657V43H71.8769V0.939998ZM158.957 15.04C157.597 13.32 155.977 11.96 154.097 10.96C152.217 9.96 150.357 9.46 148.517 9.46C146.917 9.46 145.417 9.78 144.017 10.42C142.617 11.02 141.397 11.88 140.357 13C139.317 14.08 138.517 15.38 137.957 16.9C137.397 18.38 137.117 20 137.117 21.76C137.117 23.52 137.397 25.16 137.957 26.68C138.517 28.16 139.317 29.46 140.357 30.58C141.397 31.7 142.617 32.58 144.017 33.22C145.417 33.82 146.917 34.12 148.517 34.12C150.277 34.12 152.077 33.68 153.917 32.8C155.797 31.88 157.477 30.66 158.957 29.14L165.377 35.92C163.857 37.52 162.137 38.92 160.217 40.12C158.297 41.28 156.277 42.18 154.157 42.82C152.077 43.46 149.997 43.78 147.917 43.78C144.757 43.78 141.837 43.24 139.157 42.16C136.477 41.04 134.137 39.5 132.137 37.54C130.177 35.54 128.637 33.22 127.517 30.58C126.397 27.9 125.837 25 125.837 21.88C125.837 18.8 126.397 15.96 127.517 13.36C128.637 10.72 130.217 8.42 132.257 6.46C134.297 4.5 136.677 2.98 139.397 1.9C142.157 0.819998 145.137 0.279999 148.337 0.279999C150.417 0.279999 152.497 0.579999 154.577 1.18C156.657 1.74 158.617 2.56 160.457 3.64C162.297 4.72 163.917 6 165.317 7.48L158.957 15.04ZM188.98 0.939998C194.58 0.939998 198.9 2.24 201.94 4.84C204.98 7.4 206.5 11.02 206.5 15.7C206.5 20.62 204.98 24.46 201.94 27.22C198.9 29.94 194.58 31.3 188.98 31.3H181.06V43H170.08V0.939998H188.98ZM188.98 22.66C191.26 22.66 193 22.1 194.2 20.98C195.44 19.86 196.06 18.2 196.06 16C196.06 13.88 195.44 12.28 194.2 11.2C193 10.12 191.26 9.58 188.98 9.58H181.06V22.66H188.98ZM187.06 27.28H197.74L207.76 43H195.34L187.06 27.28ZM213.498 0.939998H246.678V9.58H224.478V17.62H244.518V26.2H224.478V34.36H247.278V43H213.498V0.939998ZM267.666 0.939998H278.946L296.586 43H284.886L273.006 11.92L260.886 43H249.606L267.666 0.939998ZM260.406 27.16H284.946V35.44H260.406V27.16ZM292.221 0.939998H328.281V9.82H315.681V43H304.701V9.82H292.221V0.939998ZM332.736 0.939998H365.916V9.58H343.716V17.62H363.756V26.2H343.716V34.36H366.516V43H332.736V0.939998ZM5.08 60.94H17.02L29.2 85.72L41.32 60.94H53.26V103H43.54L43.48 76.06L32.74 98.8H25.66L14.86 76.06V103H5.08V60.94ZM75.1272 60.94H86.4072L104.047 103H92.3472L80.4672 71.92L68.3472 103H57.0672L75.1272 60.94ZM67.8672 87.16H92.4072V95.44H67.8672V87.16ZM138.3 74.14C136.82 72.66 135.08 71.52 133.08 70.72C131.12 69.88 129.16 69.46 127.2 69.46C125.48 69.46 123.9 69.78 122.46 70.42C121.02 71.06 119.76 71.94 118.68 73.06C117.6 74.18 116.76 75.5 116.16 77.02C115.6 78.54 115.32 80.18 115.32 81.94C115.32 83.74 115.62 85.4 116.22 86.92C116.82 88.44 117.66 89.78 118.74 90.94C119.82 92.06 121.08 92.94 122.52 93.58C124 94.22 125.6 94.54 127.32 94.54C128.84 94.54 130.56 94.18 132.48 93.46C134.44 92.7 136.22 91.72 137.82 90.52L144.06 98.26C142.58 99.3 140.84 100.24 138.84 101.08C136.88 101.92 134.82 102.58 132.66 103.06C130.54 103.54 128.5 103.78 126.54 103.78C123.34 103.78 120.36 103.24 117.6 102.16C114.88 101.04 112.5 99.5 110.46 97.54C108.42 95.58 106.84 93.26 105.72 90.58C104.6 87.9 104.04 85.02 104.04 81.94C104.04 78.86 104.62 76 105.78 73.36C106.94 70.72 108.56 68.42 110.64 66.46C112.76 64.5 115.22 62.98 118.02 61.9C120.86 60.82 123.94 60.28 127.26 60.28C129.34 60.28 131.42 60.54 133.5 61.06C135.62 61.58 137.62 62.3 139.5 63.22C141.42 64.14 143.1 65.26 144.54 66.58L138.3 74.14ZM134.58 81.58H144.06V98.26H134.58V81.58ZM151.33 60.94H162.31V103H151.33V60.94ZM200.91 75.04C199.55 73.32 197.93 71.96 196.05 70.96C194.17 69.96 192.31 69.46 190.47 69.46C188.87 69.46 187.37 69.78 185.97 70.42C184.57 71.02 183.35 71.88 182.31 73C181.27 74.08 180.47 75.38 179.91 76.9C179.35 78.38 179.07 80 179.07 81.76C179.07 83.52 179.35 85.16 179.91 86.68C180.47 88.16 181.27 89.46 182.31 90.58C183.35 91.7 184.57 92.58 185.97 93.22C187.37 93.82 188.87 94.12 190.47 94.12C192.23 94.12 194.03 93.68 195.87 92.8C197.75 91.88 199.43 90.66 200.91 89.14L207.33 95.92C205.81 97.52 204.09 98.92 202.17 100.12C200.25 101.28 198.23 102.18 196.11 102.82C194.03 103.46 191.95 103.78 189.87 103.78C186.71 103.78 183.79 103.24 181.11 102.16C178.43 101.04 176.09 99.5 174.09 97.54C172.13 95.54 170.59 93.22 169.47 90.58C168.35 87.9 167.79 85 167.79 81.88C167.79 78.8 168.35 75.96 169.47 73.36C170.59 70.72 172.17 68.42 174.21 66.46C176.25 64.5 178.63 62.98 181.35 61.9C184.11 60.82 187.09 60.28 190.29 60.28C192.37 60.28 194.45 60.58 196.53 61.18C198.61 61.74 200.57 62.56 202.41 63.64C204.25 64.72 205.87 66 207.27 67.48L200.91 75.04Z" fill="url(#paint0_linear_2354_9495)"/>
<defs>
<linearGradient id="paint0_linear_2354_9495" x1="1" y1="51" x2="382" y2="51" gradientUnits="userSpaceOnUse">
<stop stop-color="#FF00FF"/>
<stop offset="1" stop-color="#002BFF"/>
</linearGradient>
</defs>
</svg>
