<svg width="160" height="65" viewBox="0 0 160 65" fill="none" xmlns="http://www.w3.org/2000/svg">
<path d="M124.504 20.0726C129.154 14.4364 138.691 12.1649 146.476 14.7439C153.858 17.1861 158.896 23.7189 159.11 31.4942C159.144 32.7624 159.157 34.0348 159.174 35.3071V64.5338C156.12 64.3589 150.197 64.5338 150.197 64.5338V56.3274C150.197 56.3274 149.277 57.4973 148.841 58.0352C144.192 63.7653 136.677 66.1052 129.598 64.0258C121.955 61.7799 117.434 54.3802 119.026 46.7118C119.847 42.7623 122.22 39.9144 125.625 37.8904C128.854 35.9733 132.421 35.0809 136.172 35.004C139.504 34.94 148.251 34.8588 149.243 34.8033C150.398 25.7344 143.832 20.6917 135.449 23.7575C130.911 25.4184 130.954 29.8248 130.963 30.4012H121.138C120.878 26.2851 121.968 23.1511 124.504 20.0726ZM34.6096 18.9326C37.7105 21.9787 39.2286 25.5713 38.716 29.942L38.6557 30.3969H29.0452C29.1565 26.093 23.9042 21.2979 16.321 23.7531C14.6102 24.3082 13.5153 25.5038 12.6684 26.7933C11.2998 28.8812 11.9584 30.9606 14.221 32.1348C15.9831 33.0485 17.9292 33.6291 19.8282 34.2526C23.2926 35.3969 26.8639 36.2722 30.247 37.6171C35.1956 39.5813 38.5489 43.0098 38.8054 48.6716C39.0706 54.5341 36.4616 58.9021 31.5388 61.9123C27.5696 64.3417 23.16 65.042 18.5878 64.6833C11.1843 64.1027 5.06384 60.99 0.046875 55.1788C1.81758 53.0353 4.04591 50.4693 5.50865 48.7015C7.90807 50.973 10.2391 52.8005 12.955 54.1199C16.4665 55.8236 20.2601 56.0626 24.0025 54.8628C25.1873 54.4827 26.4149 53.7825 27.2574 52.8859C29.8279 50.149 29.2462 46.9424 25.7989 45.4693C23.1044 44.3164 20.1917 43.6888 17.4031 42.7452C14.6145 41.8057 11.7317 41.0159 9.1142 39.7137C-0.63745 34.8717 0.739755 24.052 6.06466 18.9624C13.3399 12.0069 27.4584 11.9002 34.6096 18.9326ZM79.7665 16.9258C90.2196 22.7563 89.1389 37.8314 88.6359 42.0096L88.6157 42.173H55.8537C55.7896 51.3403 63.2145 56.8226 72.3074 55.23C76.9738 54.4145 82.2045 49.8629 83.0429 48.7784C85.0745 51.3659 86.3746 52.8304 88.1282 55.0635C81.7041 62.8728 73.6247 65.8959 64.0057 64.3972C51.4869 62.4417 46.35 53.3001 45.2638 43.6418C44.7206 38.834 44.8831 33.9964 46.4185 29.2825C49.4338 20.0171 56.4654 14.4151 66.093 13.7704C70.9773 13.4459 75.4254 14.5048 79.7665 16.9258ZM106.254 0.286377V47.5999C106.254 48.1892 106.263 48.7784 106.254 49.3675C106.158 55.3205 107.309 56.7069 112.547 56.4547L112.854 56.4384V63.6329C110.583 64.7388 108.247 64.8968 105.887 64.6919C100.857 64.2607 97.636 61.2078 96.9475 56.2206C96.8208 55.2916 96.7983 54.3433 96.7943 53.3978L96.7933 52.1091C96.7865 33.0229 96.8525 1.88466 96.899 0.324558L96.9005 0.286377H106.254ZM148.52 42.8776C148.52 42.8776 137.135 42.6897 135.467 42.8776C130.809 43.4027 128.747 46.3702 128.747 49.4743C128.747 53.1165 131.758 56.0711 135.467 56.0711C135.505 56.0711 135.543 56.0669 135.582 56.0669C147.01 56.1651 148.52 42.8776 148.52 42.8776ZM62.8039 24.5942C58.9888 25.9453 56.5076 29.424 56.1459 33.8752L56.1189 34.2825H78.3295C78.4835 30.7513 77.0379 27.9716 74.6983 26.1399C73.9712 25.5038 73.0388 24.9999 71.8969 24.5986C71.6145 24.4917 71.3237 24.3936 71.0243 24.3082C68.2015 23.4883 65.5626 23.6164 62.8039 24.5942Z" fill="#F9F9F9"/>
</svg>
