<svg width="160" height="42" viewBox="0 0 160 42" fill="none" xmlns="http://www.w3.org/2000/svg">
<g id="Sela_id5TOKPgE2_1 1">
<path id="Vector" d="M124.504 -4.92741C129.154 -10.5636 138.691 -12.8351 146.476 -10.2561C153.858 -7.81387 158.896 -1.28108 159.11 6.49419C159.144 7.76241 159.157 9.03477 159.174 10.3071V39.5338C156.12 39.3589 150.197 39.5338 150.197 39.5338V31.3274C150.197 31.3274 149.277 32.4973 148.841 33.0352C144.192 38.7653 136.677 41.1052 129.598 39.0258C121.955 36.7799 117.434 29.3802 119.026 21.7118C119.847 17.7623 122.22 14.9144 125.625 12.8904C128.854 10.9733 132.421 10.0809 136.172 10.004C139.504 9.94 148.251 9.85877 149.243 9.80328C150.398 0.734377 143.832 -4.30826 135.449 -1.24254C130.911 0.418404 130.954 4.82477 130.963 5.40123H121.138C120.878 1.2851 121.968 -1.8489 124.504 -4.92741ZM34.6096 -6.06738C37.7105 -3.02133 39.2286 0.571274 38.716 4.94198L38.6557 5.39691H29.0452C29.1565 1.09305 23.9042 -3.70205 16.321 -1.24686C14.6102 -0.691824 13.5153 0.503794 12.6684 1.79328C11.2998 3.88117 11.9584 5.96058 14.221 7.13477C15.9831 8.04847 17.9292 8.62909 19.8282 9.25257C23.2926 10.3969 26.8639 11.2722 30.247 12.6171C35.1956 14.5813 38.5489 18.0098 38.8054 23.6716C39.0706 29.5341 36.4616 33.9021 31.5387 36.9123C27.5696 39.3417 23.16 40.042 18.5878 39.6833C11.1843 39.1027 5.06384 35.99 0.046875 30.1788C1.81758 28.0353 4.04591 25.4693 5.50865 23.7015C7.90807 25.973 10.2391 27.8005 12.955 29.1199C16.4665 30.8236 20.2601 31.0626 24.0025 29.8628C25.1873 29.4827 26.4149 28.7825 27.2574 27.8859C29.8279 25.149 29.2462 21.9424 25.7989 20.4693C23.1044 19.3164 20.1917 18.6888 17.4031 17.7452C14.6145 16.8057 11.7317 16.0159 9.1142 14.7137C-0.63745 9.87172 0.739755 -0.947992 6.06466 -6.03764C13.3399 -12.9931 27.4584 -13.0998 34.6096 -6.06738ZM79.7665 -8.0742C90.2196 -2.24371 89.1389 12.8314 88.6359 17.0096L88.6157 17.173H55.8537C55.7896 26.3403 63.2145 31.8226 72.3074 30.23C76.9738 29.4145 82.2045 24.8629 83.0429 23.7784C85.0745 26.3659 86.3746 27.8304 88.1282 30.0635C81.7041 37.8728 73.6247 40.8959 64.0057 39.3972C51.4869 37.4417 46.35 28.3001 45.2638 18.6418C44.7206 13.834 44.8831 8.9964 46.4185 4.28253C49.4338 -4.9829 56.4654 -10.5849 66.093 -11.2296C70.9773 -11.5541 75.4254 -10.4952 79.7665 -8.0742ZM106.254 -24.7136V22.5999C106.254 23.1892 106.263 23.7784 106.254 24.3675C106.158 30.3205 107.309 31.7069 112.547 31.4547L112.854 31.4384V38.6329C110.583 39.7388 108.247 39.8968 105.887 39.6919C100.857 39.2607 97.636 36.2078 96.9475 31.2206C96.8208 30.2916 96.7983 29.3433 96.7943 28.3978L96.7933 27.1091C96.7865 8.02289 96.8525 -23.1153 96.899 -24.6754L96.9005 -24.7136H106.254ZM148.52 17.8776C148.52 17.8776 137.135 17.6897 135.467 17.8776C130.809 18.4027 128.747 21.3702 128.747 24.4743C128.747 28.1165 131.758 31.0711 135.467 31.0711C135.505 31.0711 135.543 31.0669 135.582 31.0669C147.01 31.1651 148.52 17.8776 148.52 17.8776ZM62.8039 -0.405752C58.9888 0.945293 56.5076 4.42405 56.1459 8.87519L56.1189 9.28247H78.3295C78.4835 5.75127 77.0379 2.97162 74.6983 1.1399C73.9712 0.503794 73.0388 -7.24792e-05 71.8969 -0.401436C71.6145 -0.508253 71.3237 -0.606434 71.0243 -0.691824C68.2015 -1.51166 65.5626 -1.38358 62.8039 -0.405752Z" fill="white"/>
</g>
</svg>
