<svg width="170" height="23" viewBox="0 0 170 23" fill="none" xmlns="http://www.w3.org/2000/svg">
<g id="Sharaf DG_idWwFQz6pk_3 1" clip-path="url(#clip0_2320_122771)">
<path id="Vector" d="M13.9992 9.1002C13.2992 8.7002 11.1992 8.1002 7.39922 7.0002C5.99922 6.7002 4.29922 6.0002 4.29922 4.9002C4.29922 4.1002 4.79922 3.3002 5.49922 3.0002C6.29922 2.6002 7.19922 2.4002 8.09922 2.4002C9.39922 2.3002 10.5992 2.7002 11.5992 3.3002C12.7992 4.1002 13.7992 5.1002 14.5992 6.2002L15.3992 5.8002L14.2992 0.800195L14.1992 0.200195L13.6992 0.500195C13.1992 0.700195 12.7992 0.800195 12.2992 0.800195C12.0992 0.800195 10.3992 0.600195 9.89922 0.500195C9.29922 0.400195 8.79922 0.400195 8.19922 0.400195C6.39922 0.300195 4.69922 0.700195 3.19922 1.5002C1.59922 2.3002 0.599219 4.0002 0.699219 5.9002C0.699219 8.0002 1.99922 9.5002 4.49922 10.6002L10.9992 12.6002C13.0992 13.4002 14.1992 14.5002 14.1992 16.0002C14.1992 17.4002 13.4992 18.6002 12.3992 19.4002C11.2992 20.3002 9.89922 20.7002 8.49922 20.7002C6.99922 20.8002 5.49922 20.2002 4.29922 19.4002C2.99922 18.4002 1.89922 17.1002 0.999219 15.8002L0.199219 16.1002L1.49922 22.0002L1.69922 22.7002L2.29922 22.2002C2.59922 22.0002 2.99922 21.8002 3.39922 21.9002C4.39922 22.1002 5.19922 22.2002 5.99922 22.3002C6.89922 22.4002 7.79922 22.5002 8.69922 22.5002C10.9992 22.6002 13.1992 21.8002 15.0992 20.5002C16.9992 19.2002 17.9992 17.1002 17.9992 14.9002C17.7992 12.4002 16.5992 10.4002 13.9992 9.1002ZM34.2992 21.2002C34.1992 21.0002 34.0992 20.8002 34.0992 20.6002V13.0002C34.0992 11.3002 33.7992 10.1002 33.1992 9.3002C32.6992 8.5002 31.5992 8.0002 30.1992 8.0002C28.8992 8.0002 27.6992 8.4002 26.5992 9.0002C25.8992 9.4002 25.2992 9.7002 24.7992 10.2002V2.6002L24.1992 2.8002L20.3992 3.7002L20.4992 4.6002C20.6992 4.7002 20.8992 4.8002 20.9992 5.0002C21.0992 5.2002 21.0992 5.4002 21.0992 5.6002V20.7002C21.0992 20.9002 20.9992 21.2002 20.8992 21.3002C20.7992 21.5002 20.6992 21.6002 20.4992 21.7002L20.6992 22.6002H24.9992L25.2992 21.7002C25.0992 21.6002 24.9992 21.5002 24.8992 21.4002C24.7992 21.3002 24.7992 21.2002 24.6992 21.1002V14.5002C24.7992 13.5002 25.1992 12.5002 25.8992 11.8002C26.5992 11.0002 27.4992 10.6002 28.5992 10.5002C29.0992 10.5002 29.5992 10.7002 29.8992 11.1002C30.2992 11.5002 30.4992 12.0002 30.4992 12.5002V20.7002C30.4992 20.9002 30.3992 21.1002 30.2992 21.3002C30.1992 21.5002 29.9992 21.6002 29.8992 21.7002L30.1992 22.6002H34.5992L34.7992 21.7002C34.5992 21.5002 34.3992 21.4002 34.2992 21.2002ZM51.5992 21.6002C51.1992 21.4002 50.9992 21.1002 50.8992 20.7002C50.7992 20.5002 50.7992 20.3002 50.7992 20.1002V11.6002C50.8992 10.2002 50.0992 8.9002 48.7992 8.3002C47.5992 7.8002 46.2992 7.5002 45.0992 7.6002C44.1992 7.6002 43.3992 7.7002 42.4992 7.9002C41.7992 8.0002 41.0992 8.2002 40.3992 8.5002L40.1992 8.6002C40.0992 8.6002 39.8992 8.5002 39.8992 8.4002L39.7992 8.3002L39.0992 7.3002L38.8992 8.5002L38.1992 13.0002L39.0992 13.3002C39.4992 12.2002 40.1992 11.3002 41.1992 10.7002C42.1992 10.1002 43.1992 9.8002 44.2992 9.8002C44.8992 9.8002 45.5992 10.0002 46.0992 10.2002C46.4992 10.4002 46.7992 10.9002 46.7992 11.4002V12.6002C44.4992 12.8002 42.2992 13.4002 40.2992 14.5002C38.2992 15.6002 37.1992 17.0002 37.1992 18.7002C37.1992 19.9002 37.7992 21.1002 38.8992 21.7002C39.8992 22.4002 41.0992 22.7002 42.1992 22.7002C43.2992 22.7002 44.2992 22.4002 45.2992 21.9002C45.9992 21.5002 46.5992 21.2002 47.1992 20.8002C47.2992 21.0002 47.3992 21.1002 47.3992 21.3002C47.6992 22.1002 48.1992 22.3002 48.4992 22.3002H52.8992L51.5992 21.6002ZM46.8992 14.8002V16.9002C46.8992 17.9002 46.3992 18.8002 45.6992 19.4002C44.9992 20.1002 44.0992 20.5002 43.0992 20.5002C42.5992 20.5002 42.0992 20.3002 41.6992 19.9002C41.2992 19.6002 41.0992 19.1002 41.0992 18.7002C41.0992 17.5002 41.7992 16.6002 43.1992 15.8002C44.3992 15.2002 45.5992 14.9002 46.8992 14.8002ZM62.4992 8.0002C62.0992 8.0002 61.6992 8.1002 61.2992 8.2002C60.6992 8.4002 60.1992 8.5002 59.6992 8.8002C59.1992 9.1002 58.6992 9.5002 58.2992 9.9002L57.6992 10.5002L57.3992 9.6002C57.2992 9.3002 57.0992 9.0002 56.9992 8.7002C57.0992 8.5002 56.9992 8.3002 56.9992 8.2002L56.7992 7.9002L56.4992 8.0002L53.3992 8.7002L52.3992 8.9002L53.1992 9.5002C53.6992 9.9002 54.0992 10.4002 54.3992 11.0002C54.5992 11.3002 54.5992 11.7002 54.6992 12.0002C54.7992 12.3002 54.7992 12.7002 54.7992 13.0002V21.0002C54.7992 21.2002 54.6992 21.4002 54.6992 21.6002C54.5992 21.8002 54.4992 21.9002 54.2992 22.0002L54.4992 22.9002H60.0992L58.6992 22.0002C58.4992 21.9002 58.3992 21.8002 58.2992 21.6002C58.1992 21.4002 58.1992 21.2002 58.1992 21.0002V13.8002C58.1992 13.3002 58.3992 12.8002 58.6992 12.4002C58.9992 12.0002 59.3992 11.6002 59.7992 11.3002C60.1992 11.0002 60.4992 10.9002 60.9992 10.9002C61.2992 10.9002 61.5992 11.0002 61.8992 11.1002C62.0992 11.2002 62.2992 11.3002 62.3992 11.5002L62.9992 12.6002L63.1992 11.4002L63.6992 8.7002L63.4992 8.0002H62.4992ZM78.0992 20.7002C77.9992 20.5002 77.9992 20.3002 77.9992 20.1002V11.6002C78.0992 10.2002 77.2992 8.9002 75.9992 8.3002C74.7992 7.8002 73.4992 7.5002 72.2992 7.6002C71.3992 7.6002 70.5992 7.7002 69.6992 7.9002C68.9992 8.0002 68.2992 8.2002 67.5992 8.5002H67.4992C67.3992 8.5002 67.1992 8.4002 67.1992 8.3002L67.0992 8.2002L66.3992 7.4002L66.1992 8.4002L65.4992 12.9002L66.3992 13.2002C66.7992 12.1002 67.4992 11.2002 68.4992 10.6002C69.4992 10.0002 70.4992 9.7002 71.5992 9.7002C72.1992 9.7002 72.8992 9.9002 73.3992 10.1002C73.7992 10.3002 74.0992 10.8002 74.0992 11.3002V12.5002C71.7992 12.7002 69.5992 13.3002 67.5992 14.4002C65.4992 15.5002 64.4992 16.9002 64.4992 18.6002C64.4992 19.8002 65.0992 21.0002 66.1992 21.6002C67.1992 22.3002 68.2992 22.6002 69.4992 22.6002C70.5992 22.6002 71.5992 22.3002 72.5992 21.8002C73.2992 21.4002 73.8992 21.1002 74.4992 20.7002C74.5992 20.9002 74.6992 21.0002 74.7992 21.2002C75.0992 21.9002 75.3992 22.2002 75.8992 22.2002H80.2992L78.9992 21.4002C78.4992 21.4002 78.1992 21.1002 78.0992 20.7002ZM74.0992 16.9002C74.0992 17.9002 73.5992 18.8002 72.8992 19.4002C72.1992 20.1002 71.2992 20.5002 70.2992 20.5002C69.7992 20.5002 69.2992 20.3002 68.8992 19.9002C68.4992 19.6002 68.2992 19.1002 68.2992 18.7002C68.2992 17.6002 68.9992 16.6002 70.3992 15.8002C71.4992 15.2002 72.6992 14.8002 73.9992 14.7002L74.0992 16.9002ZM90.7992 2.7002C90.2992 2.4002 89.7992 2.2002 89.2992 2.1002C88.6992 2.0002 88.1992 2.0002 87.5992 2.0002C85.7992 2.0002 84.3992 2.5002 83.3992 3.5002C82.2992 4.6002 81.7992 6.2002 81.7992 8.3002C81.7992 8.3002 81.6992 8.5002 81.2992 8.8002C81.0992 9.0002 80.7992 9.2002 80.5992 9.3002L80.7992 10.2002H81.7992V20.7002C81.7992 21.0002 81.6992 21.2002 81.5992 21.5002C81.4992 21.7002 81.2992 21.8002 81.0992 21.9002L81.2992 22.8002H85.9992L86.1992 21.9002C85.9992 21.8002 85.7992 21.6002 85.6992 21.5002C85.5992 21.3002 85.4992 21.0002 85.4992 20.8002V10.1002H87.9992L88.0992 9.8002L88.6992 8.6002L89.0992 8.0002H85.5992V6.4002C85.5992 5.7002 85.7992 5.0002 86.1992 4.4002C86.4992 3.9002 86.9992 3.7002 87.5992 3.7002C87.9992 3.7002 88.4992 3.8002 88.7992 4.1002C89.1992 4.5002 89.3992 4.9002 89.4992 5.4002L89.8992 6.7002L90.3992 5.4002L90.9992 3.2002L91.1992 2.8002L90.7992 2.7002ZM96.1992 0.300195H105.999V5.7002H96.1992V0.300195ZM159.999 10.0002H169.799V15.5002H159.999V10.0002Z" fill="#0079C1"/>
<path id="Vector_2" d="M131.599 11.0998C131.599 0.799805 116.099 0.299805 116.099 0.299805H107.799V5.6998H115.399C122.399 5.6998 121.999 11.5998 121.999 11.5998C121.799 16.8998 114.899 16.9998 114.899 16.9998H105.999V7.3998H96.1992V22.2998H113.599C116.599 22.2998 119.999 21.9998 119.999 21.9998C132.099 19.7998 131.599 11.0998 131.599 11.0998ZM169.799 0.299805V5.6998H152.199C152.199 5.6998 144.099 5.2998 144.099 11.2998C144.099 11.2998 143.699 16.9998 151.999 16.9998H169.799V22.1998H151.099C151.099 22.1998 134.199 22.2998 134.199 10.8998C134.199 10.8998 133.899 1.0998 148.899 0.299805H169.799Z" fill="#0079C1"/>
</g>
<defs>
<clipPath id="clip0_2320_122771">
<rect width="170" height="23" fill="white"/>
</clipPath>
</defs>
</svg>
