<svg width="160" height="64" viewBox="0 0 160 64" fill="none" xmlns="http://www.w3.org/2000/svg">
<g id="idiCys8Lg2_logos 1" clip-path="url(#clip0_2320_121520)">
<g id="Clip path group">
<mask id="mask0_2320_121520" style="mask-type:luminance" maskUnits="userSpaceOnUse" x="0" y="0" width="160" height="64">
<g id="clip0_4_2086">
<path id="Vector" d="M160 0H0V64H160V0Z" fill="white"/>
</g>
</mask>
<g mask="url(#mask0_2320_121520)">
<g id="Group">
<path id="Vector_2" d="M148.625 18.6466V11.4854H134.574C124.958 11.4854 117.156 19.3233 117.156 28.9844C117.156 38.6455 124.958 46.4834 134.574 46.4834C144.19 46.4834 151.992 38.6455 151.992 28.9844C151.974 25.1124 150.719 21.5412 148.625 18.6466ZM134.555 37.5741C129.841 37.5741 126.006 33.7209 126.006 28.9844C126.006 24.2479 129.841 20.3946 134.555 20.3946C139.27 20.3946 143.106 24.2479 143.106 28.9844C143.106 33.7397 139.289 37.5741 134.555 37.5741Z" fill="white"/>
<path id="Vector_3" d="M134.402 55.0898V63.9989C144.019 63.9989 151.82 56.161 151.82 46.5H142.952C142.952 51.2366 139.117 55.0898 134.402 55.0898Z" fill="white"/>
<path id="Vector_4" d="M154.235 0C151.149 0 148.66 2.51866 148.66 5.60118C148.66 8.70253 151.167 11.2024 154.235 11.2024C157.322 11.2024 159.811 8.68373 159.811 5.60118C159.811 2.51866 157.322 0 154.235 0Z" fill="white"/>
<path id="Vector_5" d="M98.3175 11.5405C93.3783 11.5405 89.2063 14.0028 86.5307 16.8786C83.9303 13.6457 79.8891 11.5405 75.3616 11.5405C72.1437 11.5405 68.9818 12.5931 66.3813 14.9801V12.236H57.8125V46.313H66.7181V24.1903C67.9528 22.5738 70.7031 19.9799 74.4635 19.9799C76.1847 19.9799 78.093 20.5439 79.4775 22.085C80.5064 23.288 81.124 24.8293 81.124 27.9119V46.313H90.0293V28.2501C90.0293 26.8403 89.8983 25.5811 89.7487 24.4533C90.9087 22.7055 93.9395 19.9611 97.7747 19.9611C99.4962 19.9611 101.404 20.525 102.77 22.0663C103.799 23.2691 104.417 24.8104 104.417 27.893V46.2943H113.322V28.2312C113.322 23.1752 112.087 19.6603 109.954 16.9914C107.298 13.6457 102.92 11.5405 98.3175 11.5405Z" fill="white"/>
<path id="Vector_6" d="M41.0102 15.6757V12.236H32.4414V46.313H41.3468V24.8858C42.4507 22.8557 45.5377 19.9611 49.4292 19.9611C50.7388 19.9611 52.0297 20.0927 52.6472 20.3183L53.6761 11.8225C52.722 11.6909 51.9548 11.5405 50.664 11.5405C46.6228 11.5405 42.9932 13.157 41.0102 15.6757Z" fill="white"/>
<path id="Vector_7" d="M10.4957 21.8034C10.4957 20.0741 12.5537 19.1156 15.0233 19.1156C17.4181 19.1156 19.6818 20.1493 21.403 21.39L25.5938 14.924C23.405 13.1948 18.6715 11.5408 14.3497 11.5408C7.76421 11.5408 1.59025 15.5443 1.59025 21.9349C1.59025 32.6861 17.6987 30.8818 17.6987 35.9191C17.6987 37.5732 15.8465 38.7385 13.4517 38.7385C10.0841 38.7385 6.60426 37.498 4.34048 35.4304L0 41.8399C3.91016 44.7345 8.7745 46.3133 13.3769 46.3133C20.3741 46.3133 26.6042 42.3848 26.6042 35.9756C26.6042 24.4159 10.4957 26.1453 10.4957 21.8034Z" fill="white"/>
</g>
</g>
</g>
</g>
<defs>
<clipPath id="clip0_2320_121520">
<rect width="160" height="64" fill="white"/>
</clipPath>
</defs>
</svg>
