<svg width="146" height="94" viewBox="0 0 146 94" fill="none" xmlns="http://www.w3.org/2000/svg">
<g id="idzhJ48SVi_1717253800648 1" clip-path="url(#clip0_2320_120905)">
<g id="logo">
<path id="Path 136" d="M88.1874 55.7201H84.7634C84.0774 55.7201 80.3414 55.9641 80.3414 60.7621V64.7441C80.3419 64.7846 80.3584 64.8233 80.3872 64.8517C80.416 64.8801 80.4549 64.8961 80.4954 64.8961H84.8354V65.9771C84.8354 67.1381 84.6764 69.5261 81.1844 69.5261C77.6924 69.5261 77.5654 67.1381 77.5654 65.9771V61.7771C77.5655 61.746 77.5559 61.7156 77.538 61.6901C77.5201 61.6647 77.4947 61.6455 77.4654 61.6351C76.9631 61.4361 76.4276 61.3343 75.8874 61.3351C74.3034 61.3351 74.1094 62.3571 74.1094 62.9021V66.7541C74.1094 70.2541 76.7744 72.5831 81.2024 72.5831C85.6304 72.5831 88.3384 70.3831 88.3384 66.7541V61.7311C88.3384 61.6903 88.3221 61.6511 88.2933 61.6222C88.2644 61.5933 88.2252 61.5771 88.1844 61.5771H83.5484C83.5484 61.5771 83.5434 61.0771 83.5434 60.6951C83.5434 60.0611 83.6614 58.9641 84.8434 58.9641H88.1814C88.2015 58.9642 88.2215 58.9604 88.2402 58.9527C88.2589 58.9451 88.2759 58.9339 88.2902 58.9196C88.3045 58.9054 88.3159 58.8885 88.3236 58.8699C88.3314 58.8513 88.3354 58.8313 88.3354 58.8111V55.8811C88.3354 55.8609 88.3314 55.8409 88.3236 55.8223C88.3159 55.8037 88.3045 55.7868 88.2902 55.7726C88.2759 55.7583 88.2589 55.7471 88.2402 55.7395C88.2215 55.7318 88.2015 55.728 88.1814 55.7281" fill="white"/>
<path id="Path 137" d="M142.229 71.2797H145.337C145.357 71.2797 145.377 71.2757 145.396 71.268C145.415 71.2602 145.431 71.2488 145.446 71.2345C145.46 71.2202 145.471 71.2032 145.478 71.1845C145.486 71.1658 145.49 71.1459 145.489 71.1257V52.0157C145.489 51.9848 145.479 51.9547 145.461 51.9295C145.444 51.9043 145.418 51.8852 145.389 51.8747C145.28 51.8317 145.077 51.7647 144.83 51.6937C144.525 51.6021 144.207 51.5579 143.887 51.5627C142.231 51.5627 142.07 52.6007 142.07 53.1627V71.1287C142.07 71.149 142.074 71.1691 142.082 71.1878C142.089 71.2066 142.101 71.2236 142.115 71.2379C142.129 71.2523 142.146 71.2636 142.165 71.2713C142.184 71.279 142.204 71.2829 142.224 71.2827" fill="white"/>
<path id="Path 138" d="M138.445 51.7522C138.134 51.6605 137.811 51.6157 137.486 51.6192C135.947 51.6192 135.76 52.6482 135.76 53.1662V64.5572C135.76 67.3802 134.412 68.3632 132.207 68.3632H128.984C129.151 68.0666 129.29 67.7557 129.4 67.4342C129.684 66.5717 129.823 65.6681 129.811 64.7602V57.3282C129.812 57.3019 129.806 57.276 129.793 57.253C129.78 57.2299 129.762 57.2107 129.739 57.1972C129.265 56.9655 128.743 56.8454 128.215 56.8462C127.767 56.822 127.324 56.955 126.962 57.2222C126.8 57.3687 126.673 57.5502 126.591 57.7531C126.509 57.956 126.474 58.1749 126.489 58.3932V64.5572C126.489 67.6572 124.767 68.3632 122.949 68.3632H120.949V61.6632C120.974 60.7134 120.787 59.7699 120.402 58.9012C120.04 58.1372 118.82 55.7012 113.569 55.7012C112.652 55.7012 108.887 55.7012 108.887 57.8742C108.9 58.1763 108.977 58.4723 109.114 58.7419C109.251 59.0116 109.444 59.2487 109.68 59.4372C109.707 59.4599 109.742 59.4724 109.777 59.4724C109.812 59.4724 109.846 59.4599 109.873 59.4372C110.955 58.7435 112.233 58.4199 113.514 58.5152C117.343 58.5152 117.482 60.4242 117.482 61.1612L117.488 68.3612H115.871V64.3872C115.871 61.5712 112.734 61.4542 111.711 61.4542C110.688 61.4542 107.55 61.5822 107.55 64.3852V68.3612H104.386V65.9982C104.386 64.9282 104.471 60.0382 97.0074 60.0382C96.0874 60.0382 92.3244 60.0452 92.3244 62.2112C92.3407 62.512 92.4195 62.8062 92.5557 63.0749C92.6919 63.3436 92.8825 63.5811 93.1154 63.7722C93.1423 63.7958 93.177 63.8089 93.2129 63.8089C93.2487 63.8089 93.2834 63.7958 93.3104 63.7722C94.4062 63.1138 95.6723 62.794 96.9494 62.8532C99.5004 62.8532 100.912 63.6232 100.912 65.4972V68.3612H91.2204C91.2002 68.3615 91.1803 68.3657 91.1619 68.3737C91.1434 68.3817 91.1267 68.3933 91.1127 68.4078C91.0988 68.4223 91.0878 68.4395 91.0806 68.4583C91.0733 68.477 91.0698 68.4971 91.0704 68.5172V71.1232C91.0701 71.1431 91.0738 71.1629 91.0812 71.1814C91.0886 71.1999 91.0996 71.2167 91.1135 71.2309C91.1275 71.2451 91.1441 71.2565 91.1624 71.2642C91.1808 71.272 91.2004 71.2761 91.2204 71.2762H132.333C136.808 71.2762 139.08 68.6842 139.08 64.7552V52.0992C139.08 52.0728 139.073 52.0468 139.06 52.0238C139.047 52.0009 139.028 51.9817 139.005 51.9682C138.825 51.8778 138.637 51.8055 138.442 51.7522M113.252 64.8282V68.3612H110.174V64.8302C110.174 63.6632 111.547 63.6632 111.721 63.6632C111.895 63.6632 113.252 63.6632 113.252 64.8282Z" fill="white"/>
<path id="Path 139" d="M129.736 53.241C129.737 53.5623 129.642 53.8765 129.464 54.1438C129.285 54.4111 129.032 54.6196 128.735 54.7428C128.438 54.866 128.112 54.8985 127.797 54.8361C127.482 54.7736 127.192 54.6191 126.965 54.3921C126.737 54.165 126.582 53.8757 126.52 53.5606C126.457 53.2455 126.489 52.9189 126.612 52.622C126.735 52.3251 126.943 52.0714 127.21 51.8929C127.477 51.7143 127.791 51.619 128.112 51.619C128.325 51.6189 128.536 51.6607 128.733 51.7422C128.93 51.8236 129.109 51.9431 129.26 52.0937C129.411 52.2443 129.531 52.4231 129.612 52.62C129.694 52.8169 129.736 53.0279 129.736 53.241Z" fill="white"/>
<path id="Path 140" d="M86.2831 75.489C86.2831 75.8102 86.1879 76.1241 86.0095 76.3911C85.8311 76.6582 85.5775 76.8663 85.2809 76.9893C84.9842 77.1122 84.6577 77.1444 84.3427 77.0819C84.0277 77.0193 83.7383 76.8647 83.5112 76.6377C83.284 76.4107 83.1293 76.1214 83.0665 75.8064C83.0037 75.4915 83.0357 75.165 83.1585 74.8682C83.2812 74.5714 83.4892 74.3177 83.7562 74.1392C84.0231 73.9606 84.337 73.8652 84.6581 73.865C84.8715 73.8649 85.0828 73.9068 85.2799 73.9883C85.4771 74.0699 85.6562 74.1895 85.8071 74.3403C85.9581 74.4911 86.0778 74.6702 86.1594 74.8673C86.2411 75.0644 86.2831 75.2756 86.2831 75.489Z" fill="white"/>
<path id="Path 141" d="M79.4238 75.4891C79.4238 75.8102 79.3286 76.1241 79.1502 76.3912C78.9719 76.6582 78.7184 76.8663 78.4217 76.9893C78.1251 77.1123 77.7987 77.1446 77.4837 77.0821C77.1687 77.0196 76.8793 76.8651 76.6521 76.6382C76.4249 76.4112 76.2701 76.1221 76.2072 75.8072C76.1443 75.4923 76.1762 75.1658 76.2988 74.869C76.4214 74.5722 76.6293 74.3185 76.8961 74.1398C77.1629 73.9611 77.4767 73.8655 77.7978 73.8651C78.0112 73.8649 78.2226 73.9067 78.4199 73.9882C78.6171 74.0697 78.7964 74.1892 78.9474 74.3401C79.0984 74.4909 79.2182 74.67 79.3 74.8672C79.3817 75.0643 79.4238 75.2757 79.4238 75.4891Z" fill="white"/>
<path id="Path 142" d="M97.015 78.3729C96.098 78.3729 92.332 78.3499 92.332 80.5439C92.3423 80.8462 92.4184 81.1426 92.5548 81.4125C92.6912 81.6824 92.8848 81.9194 93.122 82.1069C93.15 82.1305 93.1854 82.1435 93.222 82.1435C93.2586 82.1435 93.2941 82.1305 93.322 82.1069C94.4054 81.4191 95.681 81.0974 96.961 81.1889C98.992 81.1889 100.982 81.6779 100.982 84.0569C99.9193 83.9411 98.8511 83.8824 97.782 83.8809C94.599 83.8809 91.082 84.4409 91.082 88.5649C91.082 93.2059 96.768 93.1359 98.193 93.1359C100.229 93.1324 102.261 92.9843 104.276 92.6929C104.311 92.6871 104.342 92.669 104.365 92.6418C104.387 92.6146 104.399 92.5802 104.398 92.5449V84.3349C104.398 83.2629 104.486 78.3729 97.02 78.3729M98.193 90.5659C94.793 90.5659 94.493 89.4469 94.493 88.5349C94.493 87.1689 95.293 86.3709 97.893 86.3709C98.9383 86.3484 99.9832 86.4308 101.012 86.6169V90.3469C100.082 90.5092 99.1382 90.5826 98.194 90.5659" fill="white"/>
<path id="Path 143" d="M115.211 78.345C114.42 78.2811 113.625 78.3881 112.879 78.6589C112.133 78.9296 111.454 79.3577 110.889 79.914V73.929C110.888 73.8981 110.878 73.8681 110.86 73.8428C110.842 73.8175 110.818 73.7981 110.789 73.787C110.696 73.751 110.511 73.687 110.232 73.606C109.924 73.5188 109.606 73.4761 109.287 73.479C107.65 73.479 107.473 74.54 107.473 75.079V92.603C107.473 92.6433 107.489 92.682 107.517 92.7105C107.546 92.739 107.584 92.755 107.625 92.755H110.738C110.758 92.7552 110.778 92.7513 110.796 92.7438C110.815 92.7362 110.832 92.725 110.846 92.7109C110.86 92.6967 110.871 92.6799 110.879 92.6614C110.887 92.6429 110.891 92.6231 110.891 92.603V85.264C110.891 84.128 111.269 81.491 114.474 81.491C115.639 81.491 117.649 81.616 117.649 84.991V92.601C117.649 92.6413 117.665 92.6798 117.693 92.7082C117.722 92.7367 117.76 92.7528 117.801 92.753H120.913C120.953 92.753 120.992 92.7371 121.021 92.7086C121.05 92.6802 121.066 92.6415 121.067 92.601V84.067C121.067 78.488 116.062 78.348 115.213 78.348" fill="white"/>
<path id="Path 144" d="M145.394 79.0669C145.294 79.0289 145.114 78.9669 144.834 78.8859C144.528 78.7958 144.21 78.7517 143.891 78.7549C142.23 78.7549 142.074 79.7939 142.074 80.3549V92.6029C142.076 92.643 142.092 92.681 142.121 92.709C142.15 92.7369 142.188 92.7527 142.228 92.7529H145.338C145.378 92.7529 145.417 92.7372 145.445 92.7091C145.473 92.681 145.49 92.6429 145.49 92.6029V79.2079C145.49 79.177 145.481 79.1467 145.463 79.1214C145.445 79.0962 145.419 79.0771 145.39 79.0669" fill="white"/>
<path id="Path 145" d="M81.2223 78.3729C74.5793 78.3729 74.1133 83.2109 74.1133 84.3349V92.6009C74.1135 92.6209 74.1177 92.6406 74.1256 92.6589C74.1335 92.6773 74.1449 92.6939 74.1592 92.7078C74.1735 92.7218 74.1904 92.7327 74.209 92.7401C74.2275 92.7475 74.2473 92.7512 74.2673 92.7509H77.3753C77.3951 92.7512 77.4148 92.7475 77.4331 92.7401C77.4515 92.7326 77.4682 92.7216 77.4823 92.7076C77.4964 92.6937 77.5075 92.677 77.515 92.6587C77.5226 92.6404 77.5264 92.6207 77.5263 92.6009V85.1279C77.5263 81.3009 80.4763 81.4849 81.2263 81.4849C81.9763 81.4849 84.9313 81.2949 84.9313 85.1279V92.6009C84.9313 92.6208 84.9352 92.6405 84.9429 92.6588C84.9505 92.6771 84.9618 92.6937 84.9759 92.7077C84.9901 92.7217 85.0068 92.7327 85.0253 92.7401C85.0437 92.7475 85.0634 92.7512 85.0833 92.7509H88.1953C88.2152 92.7512 88.235 92.7475 88.2534 92.7401C88.2719 92.7327 88.2888 92.7217 88.303 92.7078C88.3172 92.6938 88.3285 92.6772 88.3363 92.6589C88.3441 92.6405 88.3481 92.6208 88.3483 92.6009V84.3349C88.3483 81.9599 86.9783 78.3729 81.2263 78.3729" fill="white"/>
<path id="Path 146" d="M145.408 75.489C145.408 75.8102 145.313 76.1242 145.134 76.3912C144.956 76.6583 144.702 76.8665 144.406 76.9894C144.109 77.1123 143.782 77.1444 143.467 77.0818C143.152 77.0191 142.863 76.8644 142.636 76.6373C142.409 76.4102 142.254 76.1208 142.191 75.8058C142.129 75.4908 142.161 75.1643 142.284 74.8675C142.407 74.5708 142.615 74.3171 142.882 74.1387C143.149 73.9602 143.463 73.865 143.784 73.865C143.997 73.8649 144.209 73.9068 144.406 73.9883C144.603 74.0699 144.782 74.1895 144.933 74.3404C145.084 74.4912 145.203 74.6703 145.285 74.8674C145.366 75.0644 145.408 75.2757 145.408 75.489Z" fill="white"/>
<path id="Path 147" d="M138.948 73.7919C138.855 73.7559 138.672 73.6919 138.391 73.6089C138.084 73.5215 137.766 73.4781 137.448 73.4799C135.817 73.4799 135.657 74.5469 135.657 75.0799V80.2139C135.068 79.6178 134.365 79.1472 133.589 78.8308C132.814 78.5144 131.982 78.3586 131.145 78.3729C130.184 78.364 129.232 78.5507 128.346 78.9218C127.46 79.2928 126.659 79.8403 125.991 80.531C125.324 81.2217 124.804 82.0411 124.464 82.9392C124.123 83.8373 123.969 84.7953 124.011 85.7549C123.995 86.742 124.181 87.7219 124.557 88.6349C124.933 89.5478 125.491 90.3746 126.197 91.065C126.902 91.7553 127.741 92.2947 128.662 92.6502C129.583 93.0057 130.567 93.17 131.554 93.1329C132.829 93.1329 139.047 92.7529 139.047 85.0999V73.9339C139.046 73.9029 139.037 73.8726 139.019 73.8472C139.001 73.8218 138.976 73.8025 138.947 73.7919M135.657 85.7469C135.612 86.539 135.337 87.3007 134.865 87.9381C134.393 88.5754 133.744 89.0605 132.999 89.3333C132.254 89.6061 131.446 89.6547 130.674 89.4731C129.901 89.2915 129.199 88.8877 128.654 88.3115C128.109 87.7354 127.744 87.0121 127.605 86.2311C127.467 85.45 127.56 84.6454 127.873 83.9167C128.187 83.188 128.707 82.5671 129.369 82.1306C130.032 81.6942 130.807 81.4614 131.601 81.4609C132.155 81.4541 132.704 81.5622 133.215 81.7782C133.725 81.9942 134.186 82.3136 134.567 82.7162C134.948 83.1188 135.241 83.5959 135.429 84.1175C135.616 84.6391 135.694 85.1939 135.657 85.7469Z" fill="white"/>
<g id="Group 141">
<path id="Path 148" d="M21.164 39.495L10.582 50.078L21.164 60.66V39.495Z" fill="#E86624"/>
<path id="Path 149" d="M10.582 28.912L0 39.495L10.582 50.077V28.912Z" fill="#1B75B9"/>
<path id="Path 150" d="M10.582 28.912L21.164 39.494L10.582 50.077V28.912Z" fill="#26A6DE"/>
<path id="Path 151" d="M21.1641 39.495L31.7471 50.078L21.1641 60.66V39.495Z" fill="#F6981F"/>
<path id="Path 152" d="M0 18.33L10.582 28.912L0 39.495V18.33Z" fill="#822C8C"/>
<path id="Path 153" d="M10.582 7.74792L0 18.3299L10.582 28.9129V7.74792Z" fill="#9B2421"/>
<path id="Path 154" d="M10.582 7.74792L21.164 18.3299L10.582 28.9129V7.74792Z" fill="#E92127"/>
<path id="Path 155" d="M31.747 7.74792L21.164 18.3299L10.582 7.74792H31.747Z" fill="#D0DD4E"/>
<path id="Path 156" d="M31.747 7.74801L25.862 1.89301H25.848C24.5915 0.678735 22.9124 0 21.165 0C19.4176 0 17.7386 0.678735 16.482 1.89301H16.464L10.582 7.74801H31.747Z" fill="#75BE44"/>
<path id="Path 157" d="M31.7471 71.242L21.1641 60.66L31.7471 50.077V71.242Z" fill="#9B2421"/>
<path id="Path 158" d="M31.7461 71.242L42.3281 60.66L31.7461 50.077V71.242Z" fill="#E92127"/>
<path id="Path 159" d="M63.4922 39.495L74.0742 50.078L63.4922 60.66V39.495Z" fill="#9B2421"/>
<path id="Path 160" d="M74.0742 28.912L84.6572 39.494L74.0742 50.077V28.912Z" fill="#E86624"/>
<path id="Path 161" d="M74.0742 28.912L63.4922 39.494L74.0742 50.077V28.912Z" fill="#F6981F"/>
<path id="Path 162" d="M63.4932 39.495L52.9102 50.078L63.4932 60.66V39.495Z" fill="#E92127"/>
<path id="Path 163" d="M84.6552 18.33L74.0742 28.912L84.6572 39.495L84.6552 18.33Z" fill="#822C8C"/>
<path id="Path 164" d="M74.0742 7.74792L84.6572 18.3299L74.0742 28.9129V7.74792Z" fill="#1B75B9"/>
<path id="Path 165" d="M74.0732 7.74792L63.4922 18.3299L74.0742 28.9129L74.0732 7.74792Z" fill="#26A6DE"/>
<path id="Path 166" d="M52.9102 7.74792L63.4932 18.3299L74.0752 7.74792H52.9102Z" fill="#D0DD4E"/>
<path id="Path 167" d="M52.9102 7.74798L58.7952 1.89298H58.8082C60.0649 0.67864 61.7441 -0.00012207 63.4917 -0.00012207C65.2392 -0.00012207 66.9184 0.67864 68.1752 1.89298H68.1922L74.0752 7.74798H52.9102Z" fill="#75BE44"/>
<path id="Path 168" d="M52.9102 71.242L63.4932 60.66L52.9102 50.077V71.242Z" fill="#1B75B9"/>
<path id="Path 169" d="M52.9101 71.242L42.3281 60.66L52.9101 50.077V71.242Z" fill="#26A6DE"/>
<path id="Path 170" d="M52.9101 71.242L42.3281 60.66L31.7461 71.242H52.9101Z" fill="#D0DD4E"/>
<path id="Path 171" d="M63.4931 18.3299L52.9111 7.74792L42.3281 18.3299H63.4931Z" fill="#3D8891"/>
<path id="Path 172" d="M52.9101 71.2421L47.0241 77.0971H47.0121C45.7556 78.3114 44.0765 78.9901 42.3291 78.9901C40.5817 78.9901 38.9026 78.3114 37.6461 77.0971H37.6281L31.7461 71.2421H52.9101Z" fill="#75BE44"/>
<path id="Path 173" d="M63.4921 19.295L73.1091 28.912L52.9091 49.112L32.7091 28.912L42.3261 19.295L52.4261 29.395L52.9091 29.877L53.3911 29.395L63.4921 19.295ZM63.4911 18.33L52.9101 28.912L42.3281 18.33L31.7461 28.912L52.9101 50.077L74.0741 28.912L63.4911 18.33Z" fill="#114652"/>
</g>
</g>
</g>
<defs>
<clipPath id="clip0_2320_120905">
<rect width="145.49" height="93.136" fill="white"/>
</clipPath>
</defs>
</svg>
