<svg width="160" height="68" viewBox="0 0 160 68" fill="none" xmlns="http://www.w3.org/2000/svg">
<g id="Tiktok logo">
<g id="Group">
<path id="Vector" d="M25.0031 41.8259L25.1398 42.2118C25.1181 42.1676 25.0681 42.0326 25.0031 41.8259ZM18.6564 39.0818C18.8964 37.0093 19.7114 35.8484 21.2473 34.6584C23.4448 33.0468 26.1898 33.9584 26.1898 33.9584V28.5493C26.8571 28.5322 27.5247 28.5737 28.1848 28.6734V35.6326C28.1848 35.6326 25.4406 34.7209 23.2431 36.3326C21.7081 37.5226 20.8914 38.6843 20.6523 40.7568C20.6448 41.8834 20.8473 43.3551 21.7798 44.6276C21.5492 44.5043 21.3142 44.3637 21.0748 44.2059C19.0206 42.7668 18.6464 40.6084 18.6564 39.0818ZM39.5189 18.5493C38.0073 16.8209 37.4356 15.0759 37.2289 13.8501H39.1306C39.1306 13.8501 38.7514 17.0643 41.5148 20.2251L41.5531 20.2676C40.8083 19.7788 40.1253 19.2019 39.5189 18.5493Z" fill="#EE1D52"/>
<path id="Vector_2" d="M48.6783 23.4501V30.2693C48.6783 30.2693 46.2517 30.171 44.4558 29.6935C41.9483 29.0268 40.3367 28.0051 40.3367 28.0051C40.3367 28.0051 39.2233 27.2751 39.1333 27.2251V41.3126C39.1333 42.096 38.9275 44.0543 38.3 45.6885C37.4808 47.8251 36.2167 49.2276 35.9842 49.5135C35.9842 49.5135 34.4467 51.4101 31.7342 52.6868C29.2892 53.8385 27.1425 53.8093 26.5008 53.8385C26.5008 53.8385 22.79 53.9918 19.4508 51.7268C18.7285 51.2285 18.0544 50.6635 17.4375 50.0393L17.4542 50.051C20.7942 52.316 24.5042 52.1626 24.5042 52.1626C25.1467 52.1335 27.2933 52.1626 29.7375 51.011C32.4483 49.7343 33.9875 47.8376 33.9875 47.8376C34.2175 47.5518 35.4875 46.1493 36.3033 44.0118C36.9292 42.3785 37.1367 40.4201 37.1367 39.636V25.5493C37.2267 25.6001 38.34 26.3301 38.34 26.3301C38.34 26.3301 39.9517 27.3535 42.4592 28.0185C44.2558 28.4951 46.6817 28.5943 46.6817 28.5943V23.251C47.5117 23.4451 48.2192 23.4985 48.6783 23.4501Z" fill="#EE1D52"/>
</g>
<path id="Vector_3" d="M46.6815 23.2506V28.5931C46.6815 28.5931 44.2556 28.4939 42.459 28.0173C39.9515 27.3506 38.3398 26.3289 38.3398 26.3289C38.3398 26.3289 37.2265 25.5989 37.1365 25.5481V39.6323C37.1365 40.4164 36.9306 42.3748 36.3031 44.0081C35.484 46.1456 34.2198 47.5481 33.9873 47.8339C33.9873 47.8339 32.4498 49.7306 29.7373 51.0073C27.2931 52.1589 25.1465 52.1298 24.504 52.1589C24.504 52.1589 20.794 52.3123 17.454 50.0473L17.4373 50.0356C17.0849 49.6791 16.753 49.303 16.4431 48.9089C15.3773 47.5523 14.724 45.9498 14.5598 45.4923C14.5593 45.4903 14.5593 45.4883 14.5598 45.4864C14.2948 44.6906 13.7398 42.7823 13.8156 40.9331C13.9498 37.6698 15.0498 35.6681 15.3406 35.1656C16.1112 33.7978 17.1133 32.5741 18.3023 31.5489C19.3509 30.6634 20.5401 29.9593 21.8206 29.4656C22.6192 29.1338 23.4512 28.8893 24.3023 28.7364C24.9248 28.6251 25.5551 28.5624 26.1873 28.5489V33.9548C26.1873 33.9548 23.4423 33.0431 21.2448 34.6548C19.709 35.8448 18.894 37.0056 18.654 39.0781C18.644 40.6048 19.0181 42.7631 21.0706 44.2039C21.3095 44.3623 21.5445 44.5028 21.7756 44.6256C22.1345 45.1102 22.5706 45.5325 23.0665 45.8756C25.0715 47.1998 26.7515 47.2923 28.8998 46.4323C30.334 45.8648 31.4081 44.5689 31.9173 43.1323C32.2315 42.2356 32.2273 41.3323 32.2273 40.3998V13.8506H37.2273C37.434 15.0764 38.0056 16.8214 39.5173 18.5498C40.1237 19.2023 40.8067 19.7793 41.5515 20.2681C41.7715 20.5056 42.8965 21.6789 44.3407 22.4006C45.0857 22.773 45.8711 23.0582 46.6815 23.2506Z" fill="white"/>
<path id="Vector_4" d="M12.5703 43.8314V43.8364L12.6936 44.1873C12.6803 44.1464 12.6336 44.0223 12.5703 43.8314Z" fill="#69C9D0"/>
<path id="Vector_5" d="M21.8221 29.4652C20.5415 29.959 19.3523 30.6631 18.3037 31.5486C17.1147 32.5761 16.1131 33.8024 15.3437 35.1727C15.0529 35.6727 13.9529 37.6769 13.8187 40.9403C13.7429 42.7894 14.2979 44.6978 14.5629 45.4936C14.5624 45.4955 14.5624 45.4975 14.5629 45.4994C14.7296 45.9527 15.3804 47.5552 16.4462 48.9161C16.756 49.3101 17.088 49.6863 17.4404 50.0427C16.3106 49.2613 15.3029 48.3166 14.4504 47.2394C13.3937 45.8953 12.7421 44.3086 12.5721 43.8403L12.5679 43.8303V43.8236C12.3029 43.0303 11.7462 41.1203 11.8237 39.2686C11.9579 36.0053 13.0579 34.0036 13.3487 33.5011C14.1179 32.1306 15.1195 30.9043 16.3087 29.8769C17.3571 28.9911 18.5463 28.287 19.8271 27.7936C20.6256 27.4618 21.4576 27.2173 22.3087 27.0644C23.5912 26.8401 24.9011 26.8207 26.1896 27.0069V28.5486C25.5575 28.5602 24.9272 28.6209 24.3046 28.7302C23.453 28.8849 22.6206 29.1314 21.8221 29.4652Z" fill="#69C9D0"/>
<path id="Vector_6" d="M37.2262 13.8504H32.2262V40.4012C32.2262 41.3337 32.2304 42.2345 31.9163 43.1337C31.4113 44.5687 30.3371 45.8645 28.9054 46.4395C26.7562 47.3029 25.0762 47.207 23.0721 45.8829C22.5762 45.5398 22.1401 45.1175 21.7812 44.6329C23.4887 45.5437 25.0171 45.5279 26.9104 44.7679C28.3338 44.1887 29.4171 42.8929 29.9171 41.457C30.2321 40.5604 30.2279 39.657 30.2279 38.7254V12.1729H37.1321C37.1321 12.1729 37.0538 12.8337 37.2262 13.8504ZM46.6812 21.7737V23.2504C45.8706 23.058 45.0849 22.7728 44.3396 22.4004C42.8954 21.6787 41.7704 20.5054 41.5504 20.2679C41.8055 20.4355 42.0704 20.5877 42.3438 20.7237C44.0996 21.6004 45.8246 21.8629 46.6812 21.7737Z" fill="#69C9D0"/>
<path id="Vector_7" d="M120.558 35.62C120.558 35.9998 120.614 36.3775 120.725 36.7408C120.731 36.7665 120.739 36.7918 120.748 36.8166C121.015 37.6761 121.55 38.4276 122.274 38.9612C122.999 39.4949 123.875 39.7827 124.775 39.7825V44.0491C122.699 44.0491 121.212 44.1216 118.949 42.7833C116.366 41.2566 114.914 38.465 114.914 35.5658C114.914 32.5775 116.537 29.5816 119.29 28.1391C121.285 27.0925 122.803 27.085 124.775 27.085V31.3491C123.657 31.3493 122.584 31.7937 121.794 32.5844C121.003 33.3751 120.558 34.4475 120.558 35.5658V35.62Z" fill="#69C9D0"/>
<path id="Vector_8" d="M129.025 35.62C129.026 35.9998 128.97 36.3776 128.859 36.7408C128.853 36.7666 128.845 36.792 128.835 36.8166C128.569 37.6762 128.034 38.4279 127.31 38.9616C126.585 39.4953 125.709 39.7829 124.809 39.7825V44.0491C126.885 44.0491 128.372 44.1216 130.634 42.7833C133.218 41.2566 134.67 38.465 134.67 35.5658C134.67 32.5775 133.046 29.5816 130.294 28.1391C128.299 27.0925 126.78 27.085 124.809 27.085V31.3491C125.927 31.3491 127 31.7934 127.791 32.5841C128.581 33.3749 129.026 34.4474 129.026 35.5658L129.025 35.62Z" fill="#EE1D52"/>
<path id="Vector_9" d="M59.5039 23.2153H75.1214L73.6781 27.5128H69.5947V43.9578H64.5639V27.5128H59.5039V23.2153ZM100.896 23.2153V27.5128H105.956V43.9578H110.983V27.5128H115.066L116.513 23.2153H100.896ZM78.5189 28.1128C79 28.1128 79.4703 27.9702 79.8703 27.7029C80.2704 27.4356 80.5821 27.0557 80.7662 26.6112C80.9504 26.1667 80.9985 25.6776 80.9047 25.2058C80.8108 24.7339 80.5791 24.3005 80.2389 23.9603C79.8988 23.6201 79.4653 23.3884 78.9935 23.2946C78.5216 23.2007 78.0325 23.2489 77.588 23.433C77.1435 23.6171 76.7636 23.9289 76.4964 24.3289C76.2291 24.7289 76.0864 25.1992 76.0864 25.6803C76.0864 26.3255 76.3427 26.9442 76.7989 27.4004C77.2551 27.8566 77.8738 28.1128 78.5189 28.1128ZM76.0822 43.9578H81.0131V29.832H76.0822V43.9578ZM98.7489 27.9912H92.9839L88.0147 32.9653V23.2312H83.1172L83.1006 43.9578H88.0472V38.557L89.5881 37.1628L94.3881 43.9578H99.6756L92.7222 34.0203L98.7489 27.9912ZM146.044 34.0203L152.073 27.9912H146.308L141.339 32.9653V23.2312H136.441L136.425 43.9578H141.371V38.557L142.916 37.1628L147.716 43.9578H152.999L146.044 34.0203ZM133.369 35.5653C133.369 40.2495 129.521 44.047 124.773 44.047C120.026 44.047 116.178 40.2495 116.178 35.5653C116.178 30.8812 120.026 27.0837 124.773 27.0837C129.52 27.0837 133.371 30.882 133.371 35.5653H133.369ZM128.99 35.5653C128.99 34.7314 128.742 33.9161 128.279 33.2227C127.816 32.5292 127.157 31.9888 126.387 31.6696C125.616 31.3505 124.768 31.267 123.95 31.4297C123.132 31.5924 122.381 31.994 121.791 32.5837C121.202 33.1734 120.8 33.9247 120.637 34.7427C120.475 35.5607 120.558 36.4085 120.877 37.179C121.197 37.9495 121.737 38.608 122.43 39.0714C123.124 39.5347 123.939 39.782 124.773 39.782C125.327 39.7823 125.876 39.6735 126.387 39.4617C126.899 39.25 127.364 38.9394 127.756 38.5478C128.148 38.1562 128.459 37.6912 128.671 37.1795C128.882 36.6677 128.992 36.1192 128.991 35.5653H128.99Z" fill="white"/>
</g>
</svg>
