<svg width="24" height="25" viewBox="0 0 24 25" fill="none" xmlns="http://www.w3.org/2000/svg">
<path d="M4.71429 2.5C3.21719 2.5 2 3.71719 2 5.21429V18.7857C2 20.2828 3.21719 21.5 4.71429 21.5H18.2857C19.7828 21.5 21 20.2828 21 18.7857V5.21429C21 3.71719 19.7828 2.5 18.2857 2.5H4.71429ZM17.3145 6.0625L12.9123 11.0924L18.0906 17.9375H14.0362L10.8638 13.7855L7.22924 17.9375H5.21473L9.92232 12.5556L4.95603 6.0625H9.11228L11.9835 9.85826L15.3 6.0625H17.3145ZM15.7114 16.733L8.5058 7.20335H7.30558L14.5917 16.733H15.7071H15.7114Z" fill="white"/>
</svg>
