<svg width="73" height="80" viewBox="0 0 73 80" fill="none" xmlns="http://www.w3.org/2000/svg">
<g id="Unilever logo" clip-path="url(#clip0_2320_120615)">
<g id="Group">
<path id="Vector" d="M29.0814 77.9272C29.7026 77.9272 30.7708 77.7258 31.6111 76.3795C31.1306 75.3116 30.7886 73.1538 30.7394 72.3686C30.4916 68.3501 32.04 64.57 33.7354 64.4664C34.977 64.3913 35.9709 65.567 36.0854 67.4711C36.3901 72.4782 34.7233 74.5689 33.8893 76.3707C34.0303 77.0701 35.2147 78.2601 36.3339 78.2601C36.7471 78.2601 37.2472 78.0532 37.3724 77.8857C37.2887 77.5974 37.2049 77.2236 37.2049 76.6834C37.2049 73.782 39.0706 71.3364 40.687 71.3364C41.972 71.3364 42.7174 73.0355 42.7174 74.1568C42.7174 75.4812 41.5982 76.5613 39.9413 77.5977C40.2323 77.8857 40.7687 78.0954 41.2262 78.0954C43.5902 78.0954 44.8277 75.2345 45.7441 72.6223C45.9099 72.1233 46.2006 71.4191 46.7795 71.4191C47.7755 71.4191 48.1908 77.9684 49.8446 77.9684C50.5506 77.9684 51.1306 76.5166 51.1306 75.4002C51.1306 74.571 50.8409 74.488 50.8409 73.2851C50.8409 71.9603 51.5459 70.8422 52.5003 70.8422C53.0803 70.8422 53.2894 71.4191 53.2894 72.123C53.2894 74.7759 51.3812 79.7091 48.5656 79.7091C46.4483 79.7091 46.6138 76.0622 45.8683 76.0622C45.036 76.0622 43.8753 79.7513 39.7755 79.7513C39.109 79.7513 38.4068 79.4198 37.8282 78.7553C36.8336 79.4201 36.0023 79.7091 35.0489 79.7091C33.5173 79.7091 32.8539 78.1341 32.2323 78.1341C31.4848 78.1341 30.6584 79.7513 28.1692 79.7513C26.18 79.7513 25.8477 77.1004 25.1456 77.1004C24.5223 77.1004 23.5696 79.7513 22.5342 79.7513C20.7907 79.7513 20.4208 75.1507 18.8853 75.1507C17.683 75.1507 13.8854 79.8235 12.8549 79.7167C12.4396 79.6735 12.2658 79.3629 12.3095 78.9486C12.3674 78.3756 12.8608 76.8408 13.0618 76.1142C13.3969 74.8541 13.7047 73.4725 13.8764 73.0313C14.047 72.5878 14.5077 72.2702 14.8765 72.3048C15.0629 72.3222 15.1191 72.6695 15.1763 72.9556C15.3854 73.9802 15.6781 75.0254 16.0076 75.0254C16.5893 75.0254 18.5126 71.3364 19.6307 71.3364C21.0008 71.3364 21.1651 77.1399 23.0283 77.1399C23.6516 77.1399 24.1091 76.3955 24.522 75.4812C24.5646 73.9446 24.9781 71.7534 26.2215 71.7534C27.0933 71.7534 27.5085 73.6993 26.8842 75.4002C26.8842 77.4299 28.2096 77.9268 29.0814 77.9268M62.2379 72.9546C61.7242 75.0847 60.1671 78.2189 57.8436 78.2189C57.3061 78.2189 56.3517 78.0106 56.3517 77.4714C56.3517 76.8904 60.0013 76.8104 60.0013 74.0315C60.0013 72.9968 59.0486 71.5443 57.6387 71.5443C55.7738 71.5443 53.9542 73.5768 53.9542 76.3952C53.9542 78.9218 55.5242 79.7513 57.0981 79.7513C59.8359 79.7513 61.4925 77.5108 62.3625 75.6469C62.7785 76.8904 63.0242 79.7513 64.0634 79.7513C64.4766 79.7513 64.7684 79.5433 65.2674 78.4259C66.5063 75.6469 67.7096 72.4566 69.3693 72.4566C69.9894 72.4566 69.6178 73.5768 71.1097 73.5768C71.8129 73.5768 72.3081 72.9968 72.3081 72.3302C72.3081 71.3765 71.4391 70.6332 70.1137 70.6332C66.2184 70.6332 65.3909 76.4772 64.7687 76.4772C63.7312 76.4772 64.0638 71.7939 63.3159 71.7939C62.6521 71.7939 62.3269 72.5847 62.2379 72.9546ZM34.7432 68.5895C34.671 67.432 34.3908 66.9092 33.7689 66.9507C32.9432 67.001 32.5614 69.5984 32.7303 72.3275C32.8378 74.1083 33.103 74.3826 33.3498 74.3655C33.8062 74.3393 34.902 71.1566 34.7432 68.5899M28.0027 66.1558C27.9444 65.492 27.4234 65.0383 26.7185 65.0383C25.9315 65.0383 25.191 65.864 25.2698 66.9012C25.3201 67.5838 25.7235 68.147 26.5143 68.147C27.4237 68.147 28.0865 67.1106 28.0027 66.1558ZM40.895 74.6105C40.895 73.9073 40.5202 73.3273 40.0676 73.3273C39.6907 73.3273 38.8231 73.7394 38.8231 75.0669C38.8231 76.1066 39.1931 76.5997 39.3616 76.8104C40.5618 76.437 40.895 75.4397 40.895 74.6105ZM57.0981 73.2051C57.9699 73.2051 58.2194 74.2367 58.0125 74.86C57.8031 75.4812 57.0587 76.1882 55.8977 76.3955C55.6485 75.7722 55.5242 73.2051 57.0981 73.2051ZM9.37419 70.2622C9.25484 69.8853 8.91074 69.0383 8.81582 68.4133C8.60888 67.0286 9.33266 66.1163 9.99746 65.9073C10.7439 65.6993 11.035 66.0731 11.3229 66.9448C11.6963 68.2702 11.7382 70.0099 11.6125 72.4971C11.4492 75.8961 9.74899 80.0001 5.52215 79.915C1.87358 79.835 0.25885 77.4714 0.0913397 73.8658C0.0124704 72.1666 0.133217 70.4684 0.838155 68.064C1.21087 66.778 1.54414 66.3205 2.70275 66.0731C3.61428 65.9073 3.53227 66.859 3.32533 67.982C2.87061 70.4684 2.66052 71.6686 2.82803 74.488C2.99101 77.4714 4.3618 78.6332 5.85368 78.6332C8.09134 78.6754 9.08523 76.8104 9.50156 74.1142C9.831 71.9603 9.58323 70.9239 9.37419 70.2622ZM58.2588 16.34C58.5457 18.4287 61.7103 21.2442 62.5687 21.1783C63.1414 21.1291 63.3613 18.4506 63.3613 16.34C63.3613 15.1312 63.4276 14.1844 62.7893 13.9635C61.7766 16.0095 59.118 16.428 58.2588 16.34ZM58.4344 15.4159C60.7195 15.4159 62.8109 13.5908 62.8109 11.9851C62.8109 11.2365 62.4581 10.6213 61.5567 10.5117C61.7103 10.7099 61.7766 10.8638 61.7766 11.2149C61.7766 12.4248 59.9322 13.767 57.9294 13.767C57.2025 13.767 56.9826 14.272 56.9826 14.5365C56.9826 15.1528 57.5773 15.4159 58.4344 15.4159ZM57.951 12.9308C57.6436 12.9308 57.2025 12.9308 56.9599 12.4475C56.7617 12.0511 56.8277 11.4131 56.4539 11.127C56.8277 11.2365 57.2241 11.2365 57.533 11.2365C58.5241 11.2365 59.4709 10.555 60.1967 10.555C60.6759 10.555 60.8298 10.8638 60.8298 11.1706C60.8298 12.1401 58.8762 12.9308 57.951 12.9308ZM8.75545 30.1732C9.50226 30.1732 9.34801 25.5981 10.5583 25.5981C10.8444 25.5981 10.9317 25.8843 10.9317 26.2367C10.9317 27.2697 10.426 28.7878 10.426 29.6229C10.426 30.0413 10.5356 30.1732 10.7338 30.1732C11.2622 30.1732 12.1856 25.136 13.0877 25.136C13.3738 25.136 13.5051 25.4219 13.5051 25.7087C13.5051 26.764 12.1636 29.7988 12.1636 30.6565C12.1636 30.7878 12.2079 30.898 12.3175 30.898C12.8678 30.898 13.9675 28.5236 14.3185 27.336C14.5167 26.7197 14.7809 26.3892 15.0228 26.3892C15.2426 26.3892 15.4408 26.6318 15.4408 27.1378C15.4408 28.3254 14.3402 31.1182 13.3738 32.9888C12.6263 34.4395 11.4604 36.5285 11.4604 37.6941C11.4604 38.2877 11.5689 38.9029 12.4281 39.6518C11.0196 39.5639 10.4476 39.432 9.92104 38.332C7.56822 43.0163 14.2533 42.5546 11.9654 46.711C11.5473 45.9642 8.24873 45.194 8.24873 40.8391C8.24873 37.0785 11.5473 34.8795 11.5473 33.3172C11.5473 33.0108 11.4391 32.7462 11.1519 32.5037C10.426 31.8874 10.4033 31.3835 9.83344 31.3835C9.41432 31.3835 8.9083 32.3501 9.43561 33.2079C9.61254 33.4941 9.76644 33.6693 9.76644 33.9338C9.76644 34.5491 8.79767 36.198 8.11751 36.198C7.43596 36.198 6.9083 34.5065 6.9083 31.7778C6.9083 29.3587 7.45759 26.9179 8.13915 26.9179C8.33737 26.9179 8.40333 27.0502 8.40333 27.2257C8.40333 27.5119 8.31573 28.0835 8.31573 29.0502C8.31573 30.0846 8.55723 30.1732 8.75545 30.1732Z" fill="white"/>
<path id="Vector_2" d="M14.363 36.6161C15.2878 36.6161 16.0563 35.9335 16.0563 34.4176V32.1733C16.0563 31.3162 16.1226 30.3488 16.6952 29.6662C16.6293 29.9524 16.6293 30.2609 16.6293 30.546C16.6293 32.4374 17.6846 33.7356 17.6846 35.5608C17.6846 36.2413 17.4864 36.6161 16.9598 36.6161C16.4527 36.6161 16.497 36.1534 16.3867 36.1534C16.2988 36.1534 16.1669 36.4395 16.1669 36.748C16.1669 37.2097 16.497 37.9356 17.4201 37.9356C18.2129 37.9356 18.8502 37.2097 18.8502 36.3959C18.8502 34.4179 17.3108 32.2176 17.3108 30.1073C17.3108 29.1822 17.5523 28.5666 17.7506 28.0825C17.7506 32.4601 21.4672 35.6484 21.4672 37.4729C21.4672 37.8913 21.1601 38.2214 20.6984 38.2214C20.1913 38.2214 19.9498 37.825 19.9498 37.5165C19.9498 37.3626 19.9271 37.3193 19.8619 37.3193C19.7307 37.3193 19.3342 37.759 19.3342 38.3321C19.3342 39.0569 19.9271 39.9374 21.0278 39.9374C22.2803 39.9374 22.9626 38.8803 22.9626 37.9356C22.9626 35.6268 18.4537 32.13 18.4537 28.391C18.4537 27.7531 18.5633 26.7194 19.0257 25.9276C16.1222 27.7964 15.2218 30.2828 15.2218 32.4605C15.2218 34.3519 15.1559 35.2956 14.1885 35.2956C13.6815 35.2956 13.5502 34.8349 13.374 34.8349C13.2414 34.8349 13.1758 35.2303 13.1758 35.3399C13.1758 36.1534 13.7704 36.6161 14.363 36.6161ZM52.4771 14.6461C53.4455 14.6461 54.1725 14.2064 54.1725 13.9419C54.1725 13.855 54.0402 13.7883 53.7533 13.7883C53.4672 13.7883 52.8952 13.7664 51.8165 13.5908C50.8917 13.4359 50.1871 13.0848 49.923 13.0848C49.8354 13.0848 49.7907 13.1284 49.7907 13.1944C49.7907 13.7664 50.8481 14.6461 52.4771 14.6461ZM47.6832 11.8533C47.9624 11.6659 49.2013 11.9625 50.8045 11.1706C50.9788 11.0718 51.1754 11.0189 51.3758 11.0171C52.147 11.0171 51.9477 11.8965 52.6537 11.8965C53.203 11.8965 53.9083 11.4341 54.3264 11.4341C54.9824 11.4341 55.9282 13.5022 55.9282 14.4696C55.9282 15.5919 54.2384 16.2731 52.2346 16.2731C49.3126 16.2731 47.5502 13.7231 47.5502 12.0731C47.5502 11.9408 47.6172 11.8965 47.6832 11.8533ZM14.8254 44.9068C14.1002 45.0834 12.9339 46.2253 12.9339 48.0312C12.9339 50.1858 15.2435 53.5074 19.0481 53.5074C22.258 53.5074 23.0501 51.2865 23.0501 49.7894C23.0501 46.4682 21.0058 44.1366 18.3449 44.1366C16.8931 44.1366 15.5956 45.194 15.5956 46.754C15.5956 48.2068 16.6949 50.3834 19.3122 50.3834C20.5441 50.3834 21.269 49.5036 21.269 48.4926C21.269 47.5025 20.3675 46.1398 19.0481 46.1398C18.6516 46.1398 18.3665 46.4018 18.3665 46.8203C18.3665 47.3476 19.0924 47.8763 19.9938 47.8763C20.2136 47.8763 20.3892 47.833 20.4782 47.7887C20.5214 47.8546 20.5441 47.9649 20.5441 48.0529C20.5441 48.5589 20.059 48.8674 19.3122 48.8674C18.191 48.8674 17.1123 48.0312 17.1123 46.7096C17.1123 45.9196 17.7945 45.3476 18.7839 45.3476C20.7417 45.3476 21.9072 47.0844 21.9072 48.8231C21.9072 50.383 21.0502 51.2869 19.2906 51.2869C15.7711 51.2869 14.0559 48.1188 14.8254 44.9068ZM38.2248 53.3971C38.2255 53.6303 38.3184 53.8537 38.4832 54.0185C38.6481 54.1834 38.8715 54.2763 39.1046 54.2769C39.589 54.2769 39.984 53.8815 39.984 53.3975C39.984 52.9135 39.589 52.5167 39.1046 52.5167C38.8714 52.5176 38.648 52.6107 38.4833 52.7757C38.3185 52.9408 38.2257 53.1643 38.2252 53.3975M39.9299 57.7929C40.9842 57.7929 40.9301 57.7049 41.2602 57.7049C41.5897 57.7049 41.6127 57.9032 41.6127 58.0354C41.6127 58.5195 40.5337 59.1145 38.6213 59.1145C37.4989 59.1145 36.8177 58.5195 36.6195 57.8599C35.5209 58.5631 33.8493 59.201 32.1993 59.201C27.6916 59.201 26.5476 57.2425 25.1402 56.6063C24.0611 56.1223 22.4122 57.0691 20.1037 54.495C20.4115 54.5613 20.8296 54.5837 21.1601 54.5837C23.1817 54.5837 24.2594 53.5947 24.2594 52.0099C24.2594 51.8117 24.2377 51.5947 24.215 51.3975C24.8313 51.639 26.2398 52.6932 26.5693 54.561C26.6136 54.7819 27.515 54.9791 28.0859 54.9791C28.8788 54.9791 29.8905 54.6489 30.0437 53.3528C32.6834 53.133 34.4653 51.572 34.8394 49.5908C35.7841 49.8993 36.861 50.7575 37.1252 51.1982C37.4989 51.066 37.939 51 38.4447 51C39.1479 51 39.9407 51.1323 40.8858 51.4188C40.9301 51.1323 40.9744 50.7801 41.4141 50.7801C42.0737 50.7801 41.8975 51.506 42.1173 51.922C42.228 52.1419 42.779 52.2741 42.779 52.7142C42.779 53.133 42.4251 53.2869 42.2063 53.2869C42.1173 53.2869 42.0081 53.2652 41.9411 53.2436C41.5021 53.3971 41.4804 56.5631 39.6322 56.5631C38.2691 56.5631 37.016 55.4418 36.4656 54.0354C36.3107 53.6173 35.9823 53.3528 35.6734 53.3528C35.3227 53.3528 35.1245 53.4191 34.7071 53.8815C33.5199 55.1773 31.5394 56.2989 29.099 56.2989C28.3501 56.2989 27.7575 56.2326 27.6026 56.2326C27.515 56.2326 27.515 56.2542 27.515 56.2762C27.515 56.4308 28.2625 57.0255 29.8905 57.0255C33.7607 57.0255 34.7071 54.8471 35.3227 54.8471C35.4103 54.8471 35.6738 54.8471 35.8273 55.1993C36.7287 57.3085 38.6984 57.7929 39.9299 57.7929ZM53.2693 43.7849C52.808 43.7849 50.2527 47.194 48.6076 47.194C48.2112 47.194 47.8818 46.4455 47.8818 45.8763C47.8818 45.5678 48.0782 45.3479 48.7842 45.194C52.5654 44.3348 51.7289 41.4976 54.9598 41.4976C56.741 41.4976 58.7221 42.7079 58.7221 45.4355C58.7221 48.339 54.5902 51.9443 53.9736 51.9443C53.4668 51.9443 52.9175 51.2195 52.9175 50.7355C52.9175 50.5826 52.9839 50.383 53.4236 50.2078C55.5317 49.3703 56.741 47.4366 56.741 46.4455C56.741 46.2256 56.6314 46.0085 56.3445 46.0085C55.9718 46.0085 54.37 49.6575 52.5871 49.6575C51.3545 49.6575 50.0999 48.5373 50.0999 48.0085C50.0999 47.1291 53.6651 45.5015 53.6651 44.2689C53.6651 43.8065 53.4459 43.7849 53.2697 43.7849M55.6413 42.4217C55.3335 42.4217 55.0041 42.6643 55.0041 43.2593C55.0041 43.9168 55.5101 44.3348 55.7963 44.4671C55.9498 44.555 56.1927 44.6437 56.4321 44.6437C57.0711 44.6437 57.5771 44.4671 57.5771 43.9388C57.5771 43.2589 56.5871 42.4217 55.6413 42.4217ZM14.5612 16.9546C14.562 17.188 14.655 17.4116 14.82 17.5767C14.9851 17.7417 15.2087 17.8347 15.4421 17.8355C15.6751 17.8343 15.8982 17.7411 16.0628 17.5761C16.2274 17.4111 16.32 17.1877 16.3204 16.9546C16.3197 16.7218 16.227 16.4987 16.0624 16.334C15.8979 16.1692 15.6749 16.0762 15.4421 16.0752C15.2089 16.0758 14.9853 16.1685 14.8203 16.3333C14.6553 16.4981 14.5622 16.7214 14.5612 16.9546ZM13.4183 14.9756C13.4191 15.2085 13.5119 15.4316 13.6765 15.5964C13.8411 15.7611 14.0642 15.8541 14.2971 15.855C14.7811 15.855 15.1775 15.4586 15.1775 14.9756C15.1775 14.4926 14.7811 14.0958 14.2971 14.0958C14.0642 14.0967 13.8411 14.1897 13.6765 14.3544C13.5119 14.5192 13.4191 14.7427 13.4183 14.9756ZM12.6261 21.001C12.1194 21.1333 11.0652 21.7496 11.0652 22.8482C11.0652 23.6404 11.6794 24.146 12.4506 24.146C12.8463 24.146 13.1322 24.0581 13.3077 23.9262C12.6924 23.3326 12.4726 22.6727 12.4726 22.0138C12.4726 21.5514 12.5389 21.2652 12.6261 21.001ZM7.23895 21.3099C7.21696 21.4202 7.21696 21.5297 7.21696 21.6393C7.21696 22.6727 7.76626 23.2446 8.49213 23.2446C9.04073 23.2446 9.67971 22.9141 10.2506 22.1886C9.9889 22.2327 9.72388 22.2544 9.45846 22.2535C8.64603 22.2535 7.76626 22.0358 7.23895 21.3099ZM6.46875 23.2663C6.46875 24.9379 6.97477 25.7301 7.87583 25.7301C8.58007 25.7301 9.52581 25.224 10.646 24.2563C9.78894 24.4549 9.12937 24.5858 8.53575 24.5858C7.74357 24.5858 7.12937 24.278 6.46875 23.2663ZM12.1648 14.4696C12.2744 14.1174 12.362 13.6788 12.362 13.1944C12.362 12.1391 11.8779 10.5327 10.3829 10.5327C9.52581 10.5327 8.90846 11.2143 8.90846 12.0288C8.90846 13.7667 10.6464 14.4696 12.1648 14.4696ZM10.2943 20.012C9.56908 20.012 8.77725 19.1106 8.77725 18.2968C8.77725 17.8571 9.10668 17.3068 9.34922 17.3068C9.43717 17.3068 9.48149 17.3731 9.50278 17.5277C9.63539 18.6046 10.3382 19.2209 10.9992 19.5277C11.0655 19.572 11.1084 19.594 11.1084 19.6383C11.1084 19.7918 10.6904 20.0117 10.2939 20.0117M12.3187 17.3284C12.4705 17.5357 12.8907 17.7911 12.8907 17.945C12.8907 18.2525 12.7141 18.6489 12.362 18.6489C11.5918 18.6489 10.9765 17.4833 10.9765 16.8227C10.9765 16.4053 11.2191 16.3621 11.5474 16.3621C11.7024 16.3621 11.7673 16.3837 11.8779 16.45C12.0761 16.5592 12.0761 16.9993 12.3187 17.3284ZM7.151 20.0564C7.10948 20.1244 7.0847 20.2099 7.0847 20.2989C7.0847 20.4961 7.30456 20.7159 7.50208 20.7159C7.67866 20.7159 7.78824 20.6727 7.87583 20.6727C8.40349 20.6727 8.9971 21.0454 9.85524 21.0454C10.3602 21.0454 10.9545 20.8918 11.7024 20.5188C13.285 19.7259 13.9024 17.7695 13.9024 17.439C13.9024 17.0209 13.5663 17.075 13.285 16.6905C13.0051 16.308 13.1126 15.9677 12.9339 15.789C12.8313 15.6864 12.5169 15.6795 12.1194 15.6355C11.9588 15.6198 11.7975 15.6124 11.6361 15.6135C10.9102 15.6135 10.0503 15.7021 9.08505 16.3177C7.17683 17.5346 7.45776 19.5503 7.151 20.0564ZM14.4517 19.1769C13.9676 19.7475 13.4616 20.7159 13.4616 21.7053C13.4616 22.8925 14.1885 23.8819 15.3098 23.8819C16.3867 23.8819 16.8924 22.9588 16.8924 22.0138C16.8924 20.5404 15.5513 19.5064 14.4517 19.1769ZM9.74567 14.9539C9.74567 14.9539 9.10668 15.4369 8.31555 15.4369C7.37086 15.4369 6.6223 14.7337 6.6223 13.7447C6.6223 13.0621 6.97477 12.3593 7.78789 12.0068C7.76626 12.1394 7.76626 12.2486 7.76626 12.3809C7.76626 13.6341 8.46945 14.5802 9.74567 14.9539ZM48.5194 22.2542C48.5194 22.7609 48.9381 23.179 49.4382 23.179C49.6831 23.1777 49.9176 23.0799 50.0909 22.9068C50.2641 22.7336 50.362 22.4991 50.3634 22.2542C50.3634 21.7493 49.9453 21.3319 49.4386 21.3319C48.9385 21.3319 48.5194 21.7496 48.5194 22.2542ZM48.5853 25.0251C48.5853 25.2989 48.6941 25.5616 48.8877 25.7552C49.0813 25.9488 49.3439 26.0576 49.6178 26.0576C49.8916 26.0576 50.1542 25.9488 50.3478 25.7552C50.5415 25.5616 50.6502 25.2989 50.6502 25.0251C50.6452 24.7546 50.5343 24.4968 50.3412 24.3072C50.1481 24.1177 49.8884 24.0115 49.6178 24.0115C49.3472 24.0115 49.0874 24.1177 48.8943 24.3072C48.7012 24.4968 48.5903 24.7546 48.5853 25.0251ZM45.4166 26.895C45.4174 27.2974 45.5777 27.6832 45.8624 27.9677C46.147 28.2522 46.5329 28.4124 46.9353 28.413C47.7708 28.413 48.4541 27.7304 48.4541 26.895C48.4541 26.0595 47.7708 25.3772 46.9353 25.3772C46.5329 25.3779 46.147 25.538 45.8624 25.8225C45.5777 26.1071 45.4174 26.4925 45.4166 26.895ZM46.2304 23.7946C46.231 24.0278 46.3241 24.2513 46.4891 24.4161C46.6541 24.5809 46.8777 24.6737 47.1109 24.6741C47.344 24.6735 47.5674 24.5807 47.7322 24.4159C47.8971 24.2511 47.99 24.0277 47.9907 23.7946C47.99 23.5616 47.8972 23.3382 47.7324 23.1734C47.5676 23.0085 47.3443 22.9156 47.1112 22.9148C46.878 22.9154 46.6545 23.0082 46.4895 23.173C46.3245 23.3377 46.2313 23.5614 46.2304 23.7946ZM43.3506 25.5538C43.3512 25.7862 43.4435 26.009 43.6076 26.1736C43.7717 26.3382 43.9942 26.4313 44.2266 26.4326C44.7116 26.4326 45.1081 26.0382 45.1081 25.5538C45.1081 25.0694 44.7116 24.6744 44.2262 24.6744C43.9938 24.676 43.7714 24.7692 43.6074 24.9339C43.4435 25.0986 43.3512 25.3214 43.3506 25.5538ZM45.6141 20.4088C45.6141 21.178 46.252 21.8152 47.0222 21.8152C47.7935 21.8152 48.4314 21.178 48.4314 20.4088C48.4314 19.6376 47.7935 19.0007 47.0222 19.0007C46.252 19.0007 45.6141 19.6376 45.6141 20.4088ZM47.2648 17.7028C47.2648 17.8126 47.2864 17.9213 47.3284 18.0227C47.3705 18.1241 47.4321 18.2162 47.5097 18.2937C47.5874 18.3713 47.6796 18.4328 47.781 18.4747C47.8825 18.5166 47.9912 18.5381 48.1009 18.5379C48.2127 18.5412 48.324 18.522 48.4283 18.4814C48.5325 18.4409 48.6275 18.3798 48.7077 18.3019C48.7879 18.2239 48.8517 18.1307 48.8953 18.0277C48.9388 17.9247 48.9612 17.814 48.9612 17.7021C48.9612 17.5903 48.9388 17.4796 48.8953 17.3766C48.8517 17.2736 48.7879 17.1803 48.7077 17.1024C48.6275 17.0245 48.5325 16.9634 48.4283 16.9229C48.324 16.8823 48.2127 16.8631 48.1009 16.8663C47.9911 16.8663 47.8823 16.888 47.7809 16.93C47.6794 16.9721 47.5872 17.0337 47.5096 17.1114C47.4319 17.189 47.3703 17.2813 47.3283 17.3828C47.2863 17.4842 47.2647 17.593 47.2648 17.7028ZM43.2857 19.8142C43.2852 20.0353 43.3724 20.2476 43.5283 20.4044C43.6841 20.5613 43.8959 20.6498 44.117 20.6507C44.3386 20.6507 44.5512 20.5626 44.708 20.4059C44.8647 20.2491 44.9528 20.0365 44.9528 19.8149C44.9528 19.5932 44.8647 19.3806 44.708 19.2239C44.5512 19.0671 44.3386 18.9791 44.117 18.9791C43.8961 18.9798 43.6845 19.0681 43.5286 19.2247C43.3728 19.3813 43.2854 19.5933 43.2857 19.8142ZM43.1751 22.6723C43.1738 22.8485 43.2075 23.0232 43.2742 23.1863C43.341 23.3494 43.4393 23.4976 43.5637 23.6224C43.6881 23.7472 43.8359 23.8462 43.9988 23.9134C44.1616 23.9807 44.3362 24.0151 44.5124 24.0145C44.6891 24.0157 44.8643 23.9819 45.0278 23.9149C45.1913 23.8479 45.3399 23.7491 45.465 23.6243C45.59 23.4994 45.689 23.351 45.7563 23.1876C45.8235 23.0242 45.8576 22.849 45.8566 22.6723C45.8566 21.9255 45.2609 21.3322 44.5124 21.3322C44.3363 21.3315 44.1619 21.3657 43.9991 21.4329C43.8364 21.5 43.6886 21.5987 43.5642 21.7233C43.4399 21.848 43.3415 21.996 43.2747 22.1589C43.2079 22.3218 43.174 22.4963 43.1751 22.6723ZM40.4028 24.0804C40.4028 24.763 40.9741 25.3329 41.6563 25.3329C42.3379 25.3329 42.9109 24.763 42.9109 24.0804C42.9109 23.3989 42.3379 22.8269 41.6563 22.8269C40.9741 22.8269 40.4028 23.3992 40.4028 24.0804ZM41.1503 20.9798C41.1511 21.2127 41.2439 21.4358 41.4085 21.6006C41.5731 21.7654 41.7961 21.8584 42.029 21.8595C42.5141 21.8595 42.9109 21.4631 42.9109 20.9801C42.9109 20.4971 42.5145 20.1003 42.029 20.1003C41.7962 20.1014 41.5732 20.1945 41.4087 20.3592C41.2441 20.5239 41.1512 20.7469 41.1503 20.9798ZM48.8715 27.7531C48.8715 27.3134 49.2679 26.9393 49.7027 26.9393C50.1878 26.9393 50.5616 27.313 50.5616 27.7531C50.5616 28.2591 50.1882 28.6109 49.7027 28.6109C49.2679 28.6109 48.8715 28.2591 48.8715 27.7531ZM49.4389 53.045C49.5492 53.045 49.6815 53.1099 49.6815 53.5074C49.6815 53.9908 49.4616 54.6276 48.6736 55.1337C48.1233 55.5074 47.3747 55.8163 46.274 55.8358C46.4496 55.3092 46.5818 54.7589 46.5818 54.2333C46.5818 54.0567 46.5609 53.9248 46.5385 53.7273H46.8254C48.5633 53.7273 49.3126 53.045 49.4389 53.045ZM49.6151 50.8674C49.7938 50.7166 49.835 50.472 49.835 50.2295V49.7234C49.835 49.0855 48.8718 48.7128 47.5502 48.7128C45.9435 48.7128 45.0858 49.4366 45.0858 49.7451V50.7582C45.0858 51.1762 46.0542 51.5943 47.2424 51.5943C48.1892 51.5943 49.0481 51.3528 49.6155 50.8674M50.7591 51.1099C50.1871 51.551 48.8502 52.538 46.6261 52.538C45.4379 52.538 44.9092 52.1645 44.7326 52.1645C44.5127 52.1645 44.2702 52.3844 44.0287 52.6713C43.5059 53.2876 42.8233 54.4315 42.8233 55.684C42.8233 56.5634 43.5059 57.4404 44.7769 57.4404C48.8935 57.4404 51.9704 54.8684 51.9704 52.7808C51.9704 51.5943 51.2672 51.1099 50.7595 51.1099M51.53 32.614C51.53 33.1633 51.7066 33.8013 52.2569 33.8013C52.7183 33.8013 53.1147 33.0984 53.1147 32.3282C53.1147 31.4484 52.9612 30.7658 52.9612 30.4137C52.9612 30.2609 53.0271 30.1949 53.1147 30.1949C53.4452 30.2165 53.754 31.118 54.1058 31.118C54.5026 31.118 55.092 30.3921 55.3339 30.3921C55.4002 30.3921 55.4215 30.48 55.4215 30.5017C55.4215 30.8321 54.9155 31.5591 54.9155 31.8438C54.9155 32.0853 56.1917 32.13 56.1917 32.3498C56.1917 32.68 54.8544 32.68 54.2164 32.9661C53.6002 33.2293 53.2253 33.5598 53.2253 33.9995C53.2253 34.4392 53.6651 34.5264 54.2827 34.5264C55.7519 34.5264 56.7856 33.7353 57.1147 33.7353C57.181 33.7353 57.2243 33.7796 57.2243 33.8459C57.2243 34.0658 56.4768 34.7906 56.4768 35.1211C56.4768 35.4945 57.8416 35.9335 57.82 36.1534C57.7984 36.2197 57.7094 36.2413 57.5558 36.2413C57.3129 36.2413 56.9392 36.1761 56.6523 36.1761C56.4768 36.1761 56.3229 36.1977 56.2559 36.2856C56.1041 36.4622 56.3002 37.6268 55.9945 37.6268C55.7076 37.6268 54.9591 35.0332 53.2697 35.0332C53.0271 35.0332 52.8516 35.2303 52.8516 35.5608C52.8516 36.4395 53.7094 37.4512 54.5242 37.9356C54.8931 38.1771 55.5105 38.4196 55.5105 38.5519C55.5105 38.8143 54.1062 38.5735 54.1062 39.0126C54.1062 39.409 54.2824 40.0037 54.2824 40.3547C54.2824 40.465 54.2597 40.5962 54.1278 40.5962C53.8643 40.5962 53.2253 39.387 52.9168 39.387C52.6534 39.387 52.0814 40.1122 51.8378 40.1122C51.7725 40.1122 51.7293 40.0459 51.7293 39.982C51.7293 39.475 52.5427 38.3321 52.5427 37.2097C52.5427 36.6821 52.4768 35.5381 51.8378 35.5381C51.3101 35.5381 50.7155 36.3732 50.4513 37.2097C50.2974 37.6931 50.4077 39.5626 50.0556 39.5626C49.7254 39.5626 49.813 38.3094 49.3723 38.3094C49.0477 38.3094 48.3438 38.903 48.1009 38.903C48.0577 38.903 48.0133 38.8803 48.0133 38.8367C48.0133 38.5735 48.6513 37.7158 48.6513 37.5392C48.6513 37.2097 47.1988 37.1665 47.1988 36.9019C47.1988 36.7484 47.7708 36.6378 48.2991 36.5498C49.4176 36.3516 51.0686 35.5378 51.0686 34.3959C51.0686 33.12 49.8347 32.5697 49.0261 32.041C48.6073 31.7779 48.1456 31.5587 48.1456 31.3821C48.1456 31.2055 48.674 31.2059 48.8942 31.2059C49.2232 31.2059 49.5499 31.1839 49.5499 30.9208C49.5499 30.7219 49.5045 30.3272 49.5045 30.0194C49.5045 29.7985 49.5272 29.6219 49.6162 29.6219C49.9453 29.6219 50.4077 30.6999 50.6275 30.6999C50.98 30.6999 51.464 29.8204 51.7952 29.8204C51.9038 29.8204 51.9481 29.8871 51.9481 30.0846C51.9481 30.8977 51.53 31.8211 51.53 32.614ZM41.0397 26.1701C41.2826 28.0393 43.7914 27.0935 43.7914 29.3587C43.7914 29.6889 43.7038 30.1733 43.7038 30.5892C43.7038 31.0743 43.7471 31.4928 44.117 31.4928C44.4904 31.4928 44.5794 31.2286 44.5794 30.8765C44.5794 30.5233 44.4907 30.0843 44.4907 29.8428C44.4907 29.0726 45.0411 28.897 45.3712 28.897C46.2088 28.897 46.8467 29.7552 48.1009 29.7552C47.8151 31.1623 44.9088 30.7875 44.9088 32.3282C44.9088 33.0984 45.6801 33.2729 46.1861 33.2729C46.6485 33.2729 46.8034 33.2066 46.8034 32.8122C46.8034 32.5913 46.7581 32.3499 46.7581 32.196C46.7578 32.1726 46.7622 32.1495 46.771 32.1279C46.7798 32.1063 46.7929 32.0867 46.8094 32.0702C46.8259 32.0537 46.8456 32.0408 46.8672 32.032C46.8889 32.0233 46.912 32.019 46.9353 32.0194C47.4197 32.0194 49.7914 33.8232 49.7914 34.3732C49.7914 34.8782 47.2864 35.3842 46.5605 35.3842C46.3407 35.3842 46.2964 35.2307 46.2964 35.1427C46.2964 34.9888 46.6701 34.5264 46.6701 34.263C46.6701 34.0658 46.3407 33.9335 45.4592 33.9335C45.0411 33.9335 44.7333 33.9768 44.7333 34.3083C44.7333 34.9009 45.7017 35.6268 45.7017 36.1761C45.7017 36.6158 45.4375 36.8803 44.7333 36.8803C44.1386 36.8803 43.241 36.4179 43.241 35.6484C43.241 35.0332 43.8751 34.4179 43.8751 34.0441C43.8751 33.9335 43.7914 33.7569 43.5272 33.7569C42.7127 33.7569 42.4925 35.9119 39.6099 36.1534C40.0727 35.7363 40.4681 35.2746 40.4681 34.33C40.4681 33.8676 40.3585 33.4924 40.3585 32.9878C40.3585 32.3282 40.6663 31.9977 41.106 31.9977C41.9198 31.9977 42.3152 33.1406 42.8446 33.1406C43.1318 33.1406 43.4393 32.8782 43.4393 32.4818C43.4393 30.8102 40.2262 31.052 40.2262 28.6988C40.2262 28.0609 40.445 27.2698 41.0397 26.1701Z" fill="white"/>
<path id="Vector_3" d="M45.2161 40.4651C45.2161 40.7725 45.436 41.0154 45.7445 41.0154C46.0969 41.0154 46.3175 40.7065 46.3175 40.3544C46.3175 39.8938 45.8987 39.2551 45.5019 39.2551C45.3253 39.2551 45.3927 39.5193 45.3473 39.8051C45.3253 40.0243 45.2161 40.2885 45.2161 40.4647M44.0722 37.5403C46.3824 37.98 47.637 39.7175 47.637 41.3448C47.637 42.4668 46.9331 43.4984 45.7001 43.4984C44.5778 43.4984 43.7682 42.7303 43.7682 41.4977C43.7682 40.5743 44.4892 39.6069 44.4892 38.6612C44.4892 38.2878 44.3796 37.914 44.0722 37.5403ZM41.1491 41.2796C41.3679 41.4977 41.4353 41.7186 41.4353 41.9384C41.4353 42.2686 41.281 42.6207 41.281 42.9945C41.281 43.5214 41.6768 43.9838 42.2477 43.9838C42.865 43.9838 43.2842 43.4987 43.2842 42.9295C43.2842 42.093 42.4232 41.2796 41.1491 41.2796ZM48.4299 39.8721C48.5838 40.1119 48.6497 40.3544 48.6497 40.5743C48.6497 41.1909 48.2316 41.7619 48.2316 42.4008C48.2316 43.1267 48.782 43.7193 49.6143 43.7193C50.5168 43.7193 51.1331 42.9945 51.1331 42.1367C51.1331 40.9711 50.077 39.9817 48.4299 39.8721ZM41.6768 38.7048C42.6895 38.8367 42.932 39.1888 42.932 39.476C42.932 39.959 42.4913 40.1119 42.0722 40.1119C41.7644 40.1119 41.4126 40.047 41.0385 40.047C40.5544 40.047 40.0711 40.1562 39.6747 40.619C39.9608 40.6633 40.3789 40.8604 40.3789 41.3012C40.3789 42.5764 36.8375 41.5204 36.8375 44.798C36.8375 46.5349 38.641 48.4274 41.3679 48.4274C42.7771 48.4274 43.6796 47.965 43.6796 47.4363C43.6796 47.0192 42.932 47.3044 42.932 46.9522C42.932 46.7983 43.1952 46.5115 43.1952 46.2696C43.1952 46.1621 43.1076 45.9639 42.932 45.9639C42.5346 45.9639 41.787 46.6001 40.2683 46.6001C39.0811 46.6001 37.9151 45.9196 37.9151 44.9955C37.9151 44.7983 38.0031 44.687 38.135 44.687C38.2669 44.687 38.4428 44.7756 38.5967 44.7756C38.73 44.7756 38.7516 44.687 38.7516 44.4452C38.7516 44.2033 38.7516 43.5211 39.1687 43.5211C39.5867 43.5211 40.3789 45.0615 43.4161 45.0615C44.4243 45.0615 46.3824 44.8632 47.1097 44.2037C47.087 46.6228 45.1945 49.8111 41.2367 49.8111C37.1243 49.8111 34.924 46.5115 34.924 43.4771C34.924 40.1119 37.6726 37.0566 41.4349 37.0566C42.4016 37.0566 43.2172 37.385 43.2172 37.8034C43.2172 38.3761 41.787 38.0243 41.6768 38.7048ZM27.4475 13.5909C28.8992 13.5909 29.5578 14.8444 29.5578 16.2518C29.5578 16.8671 29.3833 17.7695 29.0971 17.7695C28.811 17.7695 28.8549 17.2635 28.8113 16.8011C28.767 16.2082 28.6577 16.0763 28.4592 16.0763C28.0847 16.0763 27.8439 16.955 27.8439 17.7695C27.8439 18.2745 27.9319 18.8472 28.3273 18.8472C28.5471 18.8472 28.7453 18.7369 28.8766 18.6046C28.7886 19.6167 28.0401 20.4972 26.9851 20.4972C25.05 20.4972 24.3241 18.2309 24.1043 16.9114C22.9387 18.1433 21.8617 19.0454 19.9259 19.0454C18.1231 19.0454 17.3086 17.7263 17.3086 16.4727C17.3086 16.0979 17.4405 15.1306 17.9033 15.1306C18.4525 15.1306 17.9696 16.933 19.0462 16.933C19.3103 16.933 19.7937 16.7132 20.0582 15.9883C20.2118 15.5476 20.3007 15.0869 20.3007 14.6905C20.3007 14.0958 20.1681 13.7231 19.7295 13.7231C19.3547 13.7231 18.8923 14.0082 18.7384 14.1621C19.2671 12.5781 20.5422 11.7646 21.9486 11.7646C23.6872 11.7646 24.6103 13.305 24.6103 15.0199C24.6103 15.2614 24.5876 15.5259 24.544 15.7674C25.2918 14.5355 26.3262 13.5909 27.4475 13.5909ZM25.7532 16.1855C25.7532 15.8121 25.6656 15.7242 25.5777 15.7242C25.3578 15.7242 25.1163 15.9883 24.7642 16.582C24.8085 17.3741 24.9408 17.7259 25.1606 17.7259C25.4014 17.7259 25.7532 16.9547 25.7532 16.1855ZM22.7405 17.0869C22.9819 17.0869 23.2908 16.8228 23.8628 16.1855C23.9071 15.8994 23.9071 15.6352 23.9071 15.3061C23.9071 14.8664 23.7305 14.382 23.4674 14.382C22.8064 14.382 22.477 16.1422 22.477 16.605C22.477 16.8671 22.6082 17.0869 22.7405 17.0869ZM26.3262 19.0454C26.8755 19.0454 27.4908 16.933 27.4908 15.6135C27.4908 15.3274 27.4475 15.0203 27.3152 15.0203C26.8528 15.0203 26.0833 17.1976 26.0833 18.3848C26.0833 18.8472 26.194 19.0454 26.3262 19.0454ZM20.9383 17.8355C21.6858 17.8355 22.5419 13.7891 22.5419 13.1068C22.5419 12.9302 22.4766 12.798 22.3231 12.798C21.6415 12.798 20.6958 16.6472 20.6958 17.505C20.6958 17.66 20.7401 17.8355 20.9383 17.8355Z" fill="white"/>
<path id="Vector_4" d="M23.3355 19.5058C22.3898 19.5058 22.3465 20.6508 22.3465 22.9586C21.6433 21.4416 20.4774 19.8143 19.1136 19.8143C18.1905 19.8143 17.8384 20.4309 17.8384 21.5068C17.8384 21.7277 17.86 22.0582 17.9047 22.2544C18.0139 21.8817 18.3671 21.7278 18.8058 21.7278C19.7515 21.7278 20.8958 22.4526 21.643 23.4426C20.7852 23.2891 19.949 23.1352 19.2455 23.1352C18.8058 23.1352 18.4093 23.1795 18.0799 23.3334C17.4419 23.6182 16.5842 24.5639 16.5842 25.994C16.5842 26.2139 16.6068 26.4554 16.6512 26.7199C17.4203 25.004 19.4657 24.2345 20.7852 24.2345C21.0493 24.2345 21.2469 24.2565 21.4004 24.2781C20.7192 24.8933 20.5653 25.9724 20.521 26.6972C20.4994 27.0493 20.3671 27.072 20.1256 27.072C20.1256 27.7968 20.6976 28.8755 20.6976 29.4248C20.6976 29.622 20.5869 29.7986 20.4777 29.8429C20.4777 30.8106 21.4451 31.5145 21.4451 32.1301C21.4451 32.2837 21.4004 32.4163 21.3345 32.4822C21.4008 32.8787 22.4648 33.5442 22.6027 33.8775C22.7716 34.283 22.9618 34.3521 23.072 34.3521C23.4458 34.3521 24.0387 33.911 24.0387 33.5156C24.0387 33.3837 23.9291 33.2294 23.8422 33.1635C23.4242 32.856 23.2036 32.1961 23.0277 31.7564C22.8731 31.7564 22.6738 31.6911 22.6047 31.4329C22.4844 30.9771 22.4784 30.1291 22.3018 29.622C22.0157 29.5571 21.8838 29.4465 21.8838 28.8543C21.8838 28.567 22.0603 27.4458 22.0603 27.0493C21.9281 27.0493 21.7525 26.9614 21.7525 26.6969C21.7525 25.994 22.4568 25.444 22.654 24.5423C23.9085 25.4653 24.2153 26.4111 24.2153 27.2476C24.2153 27.6862 24.149 28.1053 24.0614 28.5018C24.9855 28.0394 26.3709 27.3578 26.3709 25.9724C26.3709 25.1579 25.9975 24.2565 23.5121 23.9043C24.2812 23.6182 25.25 23.4653 26.0631 23.4653C27.4706 23.4653 28.284 23.9043 28.4596 24.8933C28.7457 24.4547 28.9666 23.9476 28.9666 23.487C28.9666 22.4083 28.0631 21.7051 26.9202 21.7051C25.5791 21.7051 24.3915 22.4083 23.1157 23.2671C23.6887 22.0799 24.083 21.3756 24.7873 21.3756C24.8975 21.3756 25.0082 21.3983 25.1174 21.42C24.8532 20.4526 23.8642 19.5058 23.3355 19.5058ZM60.3905 35.362C61.4912 35.362 62.3706 36.7921 62.3706 38.4638C62.3706 40.2435 61.5344 42.1797 60.0432 43.4981C60.0206 40.5308 56.3873 41.4765 56.3873 39.3208C56.3873 38.3974 57.0483 37.7811 57.8412 37.7811C58.5461 37.7811 59.0954 37.9794 59.4919 38.3758C59.0954 38.0024 58.8972 37.4733 58.8972 36.9687C58.8972 36.1312 59.4259 35.362 60.3905 35.362ZM44.0733 12.864C43.8963 12.5779 43.2406 12.4254 42.9328 12.4254C41.9633 12.4254 41.3038 13.1069 41.1715 13.7232C41.0839 13.5023 41.0169 13.2388 41.0169 12.9747C41.0169 12.0073 41.6775 10.8197 43.2853 10.8197C44.6892 10.8197 45.2385 11.5672 45.4378 11.5672C45.6569 11.5672 45.8775 11.3463 46.0541 11.3463C46.2959 11.3463 46.2959 11.7211 46.2959 11.9856C46.2959 12.864 45.9005 14.3821 44.9094 14.9321C44.7328 14.5576 44.3807 14.1402 43.8126 13.8771C43.7467 13.8509 43.6904 13.8052 43.6511 13.7462C43.6118 13.6871 43.5914 13.6175 43.5927 13.5466C43.5927 13.3051 43.8129 12.9963 44.0733 12.864ZM40.7534 14.4697C41.3257 15.02 41.8304 15.2619 42.4467 15.2619C42.6903 15.2619 42.9764 15.1966 43.131 15.1966C43.3285 15.1966 43.4604 15.2831 43.4604 15.4374C43.4604 15.6796 43.2406 16.0753 42.9764 16.2959C43.2406 16.4055 43.5267 16.4501 43.8352 16.4501C45.0846 16.4501 46.5154 15.6569 46.5154 13.6789C46.7799 14.03 46.9349 14.7565 46.9349 15.086C46.9349 17.4835 45.1736 18.4065 43.5494 18.4065C42.492 18.4065 41.9633 18.0544 41.8304 18.0544C41.414 18.0544 41.436 18.8909 41.1499 18.8689C40.6431 18.7813 40.1825 17.659 40.1825 16.4714C40.1825 15.7675 40.358 15.0197 40.7534 14.4697ZM21.9281 0.48294C21.9281 0.350677 21.2685 0.218762 20.3671 0.218762C18.938 0.218762 19.1352 1.40704 18.0366 1.40704C16.8927 1.40704 17.1778 0.174093 15.7264 0.174093C14.8462 0.174093 14.0338 0.32904 14.0338 0.526562C14.0338 0.79074 15.0671 0.68116 15.0671 1.40704C15.0671 2.17619 12.8462 2.39709 12.8462 2.85879C12.8462 3.01164 13.0207 3.0776 13.2406 3.0776C13.725 3.0776 14.4945 2.85844 15.0448 2.85844C15.3533 2.85844 15.6391 2.9237 15.6391 3.20986C15.6391 3.75986 14.4508 4.75026 14.4508 5.18997C14.4508 5.32224 14.5604 5.36656 14.6707 5.36656C15.1104 5.36656 15.8583 4.24424 16.5622 4.24424C17.7278 4.24424 16.959 6.72932 17.5958 6.72932C18.2565 6.72932 17.9707 4.28751 18.9153 4.28751C19.6866 4.28751 20.2575 5.98076 20.7852 5.98076C20.9174 5.98076 21.0277 5.87153 21.0277 5.71658C21.0277 5.25593 20.3671 4.30915 20.3671 3.6939C20.3671 3.32014 20.6313 3.14356 20.9834 3.14356C21.4884 3.14356 22.171 3.45136 22.5433 3.45136C22.6759 3.45136 22.8079 3.40808 22.8079 3.25418C22.8079 2.72653 20.8511 2.15455 20.8511 1.47299C20.8511 0.79074 21.9281 0.79074 21.9281 0.48294ZM27.0968 2.72653C27.0968 3.12192 28.4823 3.98006 29.1205 3.98006C29.4932 3.98006 29.6035 3.47404 29.6035 2.94534C29.6035 2.28646 29.3188 2.26483 28.7457 2.26483C28.0209 2.26483 27.0968 2.46305 27.0968 2.72653ZM29.3847 7.08039C29.3847 5.76125 25.8157 3.36446 25.7773 2.33079C25.7735 2.23656 25.8248 2.14234 25.9043 2.05788C26.5161 1.41402 29.0542 0.943592 29.0542 0.394299C29.0542 0.109183 28.5259 0.109183 28.2614 0.109183C26.217 0.109183 23.2259 0.856697 23.2259 1.58257C23.2259 2.33113 25.9085 4.1563 25.9085 5.05771C25.9085 5.30025 25.7546 5.38819 25.5121 5.38819C24.7653 5.38819 23.1373 4.48573 22.3678 4.48573C22.016 4.48573 21.8838 4.72757 21.8838 5.07935C21.8838 6.13571 23.1373 8.1364 23.1373 8.72967C23.1373 8.79563 23.1157 8.88322 23.0277 8.88322C22.6313 8.88322 20.7635 6.685 20.1029 6.685C19.8611 6.685 19.8394 7.01444 19.8394 7.49847V8.24633C19.8394 8.75235 19.8168 9.05945 19.5763 9.05945C19.004 9.05945 18.7388 7.45415 18.1909 7.45415C17.6185 7.45415 17.5083 10.3133 16.959 10.3133C16.3207 10.3133 16.871 7.16834 16.2547 7.16834C15.5732 7.16834 14.803 9.25802 14.3189 9.25802C14.1434 9.25802 14.0998 9.08144 14.0998 8.92754C14.0998 8.29065 14.4725 7.25698 14.4725 6.64173C14.4725 6.33288 14.3849 6.15734 14.1214 6.15734C13.4392 6.15734 11.9431 7.25698 11.3722 7.25698C11.2842 7.25698 11.1746 7.21266 11.1746 7.12471C11.1746 6.59741 13.5711 4.92579 13.5711 4.17828C13.5711 3.45136 10.2715 3.93644 10.2715 3.09994C10.2715 2.39709 12.6264 1.67017 12.6264 0.945337C12.6267 0.306356 9.83246 0.0212402 8.75586 0.0212402C7.45696 0.0212402 6.75481 0.174093 6.75481 0.548897C6.75481 1.12122 9.70159 1.29746 9.70159 1.80243C9.70159 2.28646 6.64453 3.58362 6.64453 4.33113C6.64453 4.99175 10.9537 4.37545 10.9537 5.05771C10.9537 5.80522 7.19452 9.03712 7.19452 10.1151C7.19452 10.3577 7.37111 10.4669 7.61155 10.4669C8.75586 10.4669 11.7232 8.29065 12.5377 8.29065C12.8239 8.29065 12.8462 8.64173 12.8462 8.94918C12.8462 9.5222 12.648 10.4009 12.648 11.0392C12.648 11.5452 12.7806 11.897 13.2193 11.897C14.0338 11.897 14.7813 10.5116 15.3306 10.5116C16.0338 10.5116 15.6175 14.5796 16.6728 14.5796C17.5742 14.5796 17.948 10.1811 18.5189 10.1811C19.0919 10.1811 19.5543 11.4573 20.0809 11.4573C20.7405 11.4573 20.4334 9.23639 21.1373 9.23639C21.9064 9.23639 24.1047 11.8754 25.0958 11.8754C25.4029 11.8754 25.5121 11.6328 25.5121 11.324C25.5121 10.1594 23.8858 7.52115 23.8858 6.685C23.8858 6.46514 23.9508 6.39884 24.1926 6.39884C25.0514 6.39884 27.5585 7.58641 28.7457 7.58641C29.1422 7.58641 29.3847 7.36656 29.3847 7.08039ZM9.30445 5.80522C9.30445 6.24494 7.63389 7.71763 7.04097 7.71763C6.82112 7.71763 6.75481 7.45415 6.75481 7.21266C6.75481 6.77364 6.95233 6.15734 7.19487 5.95912C7.47999 5.69494 8.13956 5.56478 8.64558 5.56478C8.95233 5.56478 9.30445 5.62864 9.30445 5.80522ZM25.4692 8.07045C25.4692 8.83995 28.2184 12.6002 28.7461 12.6002C29.1868 12.6002 29.5152 11.831 29.5152 11.1701C29.5152 10.9956 29.472 10.8201 29.3851 10.6871C28.9886 10.1378 26.1957 7.93853 25.5794 7.93853C25.5124 7.93853 25.4692 8.00484 25.4692 8.07045ZM60.7862 1.40739C60.7862 1.71414 61.0281 1.95563 61.3366 1.95563C61.4088 1.95642 61.4806 1.94281 61.5475 1.91558C61.6145 1.88836 61.6754 1.84807 61.7266 1.79707C61.7778 1.74606 61.8184 1.68537 61.8459 1.61852C61.8734 1.55168 61.8874 1.48002 61.8869 1.40773C61.8869 1.09889 61.6444 0.857046 61.3366 0.857046C61.2641 0.856251 61.1921 0.869944 61.125 0.89732C61.0579 0.924695 60.9969 0.965203 60.9456 1.01647C60.8944 1.06773 60.8539 1.12871 60.8265 1.19584C60.7991 1.26297 60.7854 1.33489 60.7862 1.40739ZM57.2022 6.26727C57.2022 4.70524 53.4667 4.3095 53.4667 3.95773C53.4667 3.67261 55.5536 3.18753 56.6306 3.16554C54.9816 1.05527 52.6306 1.27512 52.6306 0.901366C52.6306 0.680462 54.3908 0.240748 56.016 0.240748C57.3791 0.240748 58.655 0.548548 58.655 1.58188C58.655 2.1549 58.1937 2.74851 58.1937 3.62829C58.1937 4.11267 58.4344 4.5297 59.0741 4.5297C59.7567 4.5297 59.9106 3.80383 59.9106 3.03363C59.9106 2.39674 59.8 1.91236 59.8 1.60456C59.8 0.680462 60.4341 0.0655606 61.3366 0.0655606C62.0851 0.0655606 62.2607 0.394648 63.3613 0.394648C62.7667 0.746768 62.5475 1.38575 62.5475 1.6925C62.5475 2.6166 63.1422 3.25453 63.1422 5.146C63.1422 8.61939 59.8879 9.85129 55.9057 9.85129C54.8099 9.85129 53.6433 9.76335 52.4983 9.58781C52.3228 9.56617 52.2785 9.5215 52.2785 9.41227C52.2785 9.12541 53.8415 8.97151 53.8415 7.56512C53.8415 7.01478 53.6649 6.48713 53.6649 6.28891C53.6649 6.17968 53.7529 6.11337 53.8415 6.11337C54.172 6.11337 54.8326 7.38854 56.0603 7.38854C56.388 7.38854 57.2026 7.27826 57.2026 6.26727M60.9174 4.04637C60.9174 6.00309 59.4926 7.49917 56.9153 7.91655C57.2026 7.93783 57.4667 7.93783 57.7309 7.93783C60.7419 7.93783 61.8426 6.57507 61.8426 5.43216C61.8426 4.79388 61.4901 4.22155 60.9174 4.04637ZM59.4039 32.3936C59.7564 31.2943 60.1971 30.5238 60.9181 29.3365C60.1971 28.9638 58.2819 28.171 58.2819 26.8728C58.2819 25.3561 60.1745 24.1689 60.566 24.1689C60.7416 24.1689 60.7859 24.3224 60.7859 24.6086C60.7859 25.3997 60.4121 26.6756 60.4121 27.3571C60.4121 27.9727 60.8086 28.5674 61.1607 28.5674C61.5341 28.5674 62.5688 27.2479 62.5688 25.9501C62.5688 23.6175 60.5217 22.9143 59.8886 22.9143C59.2936 22.9143 58.216 23.882 55.6852 23.882C50.9586 23.882 49.8796 19.1994 49.8796 17.153C49.8796 17.0654 49.9012 17.0427 49.9232 17.0427C50.0335 17.0427 50.4959 17.6157 51.9919 17.6157C52.7621 17.6157 53.4664 17.4175 54.5897 17.4175C57.2245 17.4175 58.3915 19.2437 60.0206 21.5732C61.0057 22.1888 63.3617 23.1785 63.3617 25.9717C63.3617 28.4351 60.7416 29.7989 60.1085 32.4372C61.1164 32.3287 61.711 30.5238 62.7443 30.5238C63.273 30.5238 63.5156 30.9419 63.5156 31.6028C63.5156 32.5695 62.9652 34.0219 61.9082 34.9234C61.9309 34.8344 61.9309 34.7251 61.9309 34.5929C61.9309 33.9776 61.6894 33.0989 60.9841 33.0989C59.8883 33.0989 59.5355 34.2854 58.9199 35.2744C58.2819 33.0326 57.4228 31.0082 55.8845 29.7763C54.3263 28.5227 51.6398 29.2043 51.6398 26.9174C51.6398 26.3011 52.0363 25.4224 52.0363 24.7182C52.0363 24.4767 51.9919 24.2565 51.86 24.0802C53.9734 24.8731 53.2245 26.2791 54.5234 27.7309C55.3331 28.655 57.577 29.5348 58.8766 33.3393C58.8975 33.2291 58.9199 32.9439 58.9199 32.7457C58.9199 29.4904 54.6114 26.3011 54.2376 24.9816C56.7405 25.2678 57.1802 25.8837 58.3695 29.1826C58.6114 29.8652 59.4039 31.5585 59.4039 32.3936ZM58.8319 21.7271C58.8319 21.2654 57.6646 21.2221 57.555 19.9242C57.5323 19.726 57.4674 19.3749 57.2249 19.3749C56.8284 19.3749 57.1359 20.5841 56.6962 20.5841C55.6852 20.5841 55.3561 18.6047 54.9813 18.6047C54.8923 18.6047 54.788 18.671 54.788 18.9352C54.788 19.1767 54.8323 19.3317 54.8323 19.6157C54.8323 19.9026 54.766 20.0998 54.5018 20.0998C53.9071 20.0998 53.3795 18.7154 52.8728 18.7154C52.7621 18.7154 52.6529 18.7813 52.6529 18.8909C52.6529 19.1551 53.0926 19.6384 53.0926 19.881C53.0926 20.4086 51.6625 20.1224 51.6625 20.5625C51.6625 20.7607 51.86 20.8256 52.1242 20.8256C52.5866 20.8256 53.3135 20.6285 53.6873 20.6285C53.9071 20.6285 54.2376 20.6728 54.2376 20.9579C54.2376 21.2654 53.4454 21.6611 53.4454 21.9469C53.4454 22.0792 53.5781 22.1441 53.6873 22.1441C54.2819 22.1441 55.3334 21.1118 56.0816 21.1118C56.2128 21.1118 56.5423 21.1778 56.5423 21.376C56.5423 21.6611 55.7955 22.1661 55.7955 22.5841C55.7955 22.6944 55.8618 22.8267 55.994 22.8267C56.3873 22.8267 56.916 21.793 57.6646 21.793C57.9515 21.793 58.3695 21.9036 58.5894 21.9036C58.7663 21.9036 58.8323 21.793 58.8323 21.7271" fill="white"/>
<path id="Vector_5" d="M42.4466 8.55348C42.7998 8.55348 42.8657 9.41197 42.9327 9.91694C42.9763 10.1815 43.0207 10.2031 43.1313 10.2031C43.3955 10.2031 43.8125 9.19107 44.0945 9.19107C44.5118 9.19107 45.6352 10.3567 47.5057 10.3567C50.1657 10.3567 52.6745 8.48718 52.6745 5.18932C52.6745 2.00105 50.4288 0.131216 47.3292 0.131216C45.8561 0.131216 44.776 0.857093 44.2041 0.857093C43.8568 0.87873 43.3281 0 43.0639 0C42.9547 0 42.8441 0.21881 42.8441 0.592567C42.8441 0.835456 42.8441 1.60461 42.5799 1.60461C42.0501 1.60461 40.0058 0.0879428 40.0058 0.637236C40.0058 1.14326 41.3689 2.68225 41.3689 3.078C41.3689 3.47444 40.0275 3.84819 40.0275 4.11237C40.0275 4.59571 41.4576 4.6833 41.4576 5.29995C41.4576 5.9152 39.9615 6.39923 39.9615 6.86198C39.9615 7.23469 41.4576 6.97121 41.4576 7.43291C41.4576 7.89461 40.3579 9.43396 40.3579 9.87262C40.3579 9.98325 40.3796 9.98325 40.4675 9.98325C40.8846 9.98325 42.1381 8.55348 42.4466 8.55348ZM43.0866 4.94783C43.0866 4.70599 42.2267 4.24463 42.2267 3.98011C42.2267 3.93684 42.27 3.91415 42.3374 3.91415C42.5799 3.91415 42.998 4.00279 43.3285 4.00279C43.6153 4.00279 43.6586 2.7709 43.8746 2.7709C44.0275 2.7709 44.292 3.93684 44.5356 3.93684C44.8203 3.93684 45.348 3.60635 45.5689 3.60635C45.6132 3.60635 45.6568 3.62834 45.6568 3.67266C45.6568 3.82621 45.1065 4.41912 45.1065 4.59571C45.1065 4.79393 46.3391 5.03542 46.3391 5.21201C46.3391 5.43186 45.0849 5.41023 45.0849 5.60845C45.0849 5.7613 45.5473 6.3776 45.5473 6.57512C45.5473 6.61944 45.5246 6.64212 45.481 6.64212C45.3047 6.64212 44.6225 6.33328 44.4239 6.33328C44.1824 6.33328 43.7909 7.23469 43.5926 7.23469C43.5263 7.23469 43.4831 7.14675 43.4831 7.03647L43.4377 6.15704C43.4377 6.0691 43.3955 5.98116 43.2848 5.98116C43.0207 5.98116 42.5136 5.95847 42.359 5.95847C42.2484 5.95847 42.2051 5.93684 42.2051 5.89356C42.2051 5.71698 43.0866 5.10138 43.0866 4.94783ZM47.3742 9.12581C45.8338 9.12581 44.8207 8.35666 44.8207 7.96022C44.8207 7.762 44.953 7.63078 45.1295 7.63078C45.6136 7.63078 46.6699 8.3776 47.0221 8.3776C47.1096 8.3776 47.1756 8.33397 47.1756 8.20171C47.1756 7.80527 46.8022 7.1464 46.8022 6.81731C46.8022 6.72937 46.8682 6.66341 47.0004 6.66341C47.5937 6.66341 48.4756 6.90595 48.9383 6.90595C49.0912 6.90595 49.1344 6.81731 49.1344 6.72937C49.1344 6.24533 47.7043 5.2996 47.7043 5.01344C47.7043 4.74926 49.4824 4.35282 49.4824 3.93649C49.4824 3.49573 47.0653 3.80352 47.0653 3.38615C47.0653 3.07765 47.5277 2.54999 47.5277 2.30815C47.5277 2.19787 47.4401 2.1546 47.2862 2.1546C47.088 2.1546 46.032 2.57268 45.5919 2.57268C45.371 2.57268 45.1069 2.52835 45.1069 2.22056C45.1069 1.71349 45.9657 1.16419 47.3079 1.16419C49.4824 1.16419 50.7823 2.66027 50.7823 5.16699C50.7823 8.33397 48.5625 9.12581 47.3742 9.12581ZM32.4846 47.1722C32.4846 47.3704 32.4183 47.5914 32.2421 47.8105C32.0013 47.3708 31.3187 47.1495 31.0102 47.1509C28.746 47.1509 29.6028 50.4279 27.1836 50.4279C26.173 50.4279 26.0843 50.2956 25.7102 50.2956C25.5567 50.2956 25.4688 50.3619 25.4688 50.4938C25.4688 51.0668 26.2822 52.4732 28.5478 52.4732C30.8134 52.4732 32.9903 51.0885 32.9903 49.3708C32.9903 49.0857 32.9243 48.78 32.7921 48.4711C32.88 48.3389 33.1009 48.2513 33.2991 48.2513C33.6502 48.2513 33.8484 48.6477 34.1779 48.6477C34.5307 48.6477 34.7942 48.3835 34.7942 48.0314C34.7942 47.7453 34.6406 47.547 34.3761 47.4137C34.5527 47.2829 34.6839 47.0619 34.6839 46.8205C34.6839 46.4464 34.4204 46.0963 33.9797 46.0963C33.7814 46.0963 33.6502 46.1626 33.4963 46.3144C33.453 45.9201 33.2332 45.546 32.8148 45.546C32.4846 45.546 32.2421 45.7878 32.2421 46.1626C32.2421 46.5116 32.4846 46.7985 32.4846 47.1722Z" fill="white"/>
<path id="Vector_6" d="M26.5699 48.0092C25.9103 48.0092 24.9199 47.305 24.9199 46.9085C24.9199 46.5781 25.2288 46.4018 25.4692 46.4018C26.0195 46.4018 27.0085 47.0841 27.0085 47.656C27.0085 47.811 26.8983 48.0092 26.5699 48.0092ZM20.4338 43.083C22.193 43.521 23.0728 44.4667 23.2483 45.5901C23.4249 46.666 23.6447 47.5465 24.0621 47.9865C24.6121 48.6039 25.6891 49.1511 26.6358 49.1511C27.428 49.1511 28.0639 48.8897 28.0639 48.1631C28.0639 47.3709 26.9869 45.5901 25.4032 45.5901C25.2504 45.5901 25.0522 45.6128 24.8323 45.6128C24.6341 45.6128 24.3479 45.5685 24.1713 45.4146C23.8203 45.1057 23.7107 43.4561 23.0501 42.4667C22.3252 41.3674 21.5334 41.0586 20.4565 41.0586C19.6873 41.0586 18.8281 41.4767 18.8281 42.093C18.8281 42.4667 19.0263 42.7302 20.4338 43.083Z" fill="white"/>
<path id="Vector_7" d="M31.472 40.3986C31.472 39.4092 29.4256 39.3876 29.4256 37.8915C29.4256 37.5167 29.6682 36.8795 30.1525 36.1972C30.3508 37.3412 30.8121 37.9351 31.8025 38.3096C33.7589 39.0344 34.0234 40.134 34.0234 41.3007C34.0234 43.2811 32.638 45.7435 29.0756 45.7435C26.2157 45.7435 24.1703 43.1925 24.1703 41.0376C24.1703 40.4429 24.3239 39.783 24.698 39.783C25.0281 39.783 25.1388 40.0465 25.4012 40.3106C26.3923 41.3007 27.4689 41.5642 29.0313 41.5642C30.4384 41.5642 31.472 40.9932 31.472 40.3986ZM31.5596 41.9822C30.8055 42.3277 30.5047 42.2684 30.5047 43.0396C30.5047 43.3244 30.4384 43.6971 30.4384 43.8953C30.4384 44.1588 30.4827 44.3138 30.7894 44.3138C31.5823 44.3138 32.8358 42.9723 32.8358 41.8283C32.8358 41.5198 32.6593 41.3897 32.461 41.3897C32.2845 41.3897 32.0883 41.7407 31.5596 41.9822ZM24.5441 30.8767C24.5441 29.4685 27.8873 28.721 27.8873 26.9835C27.8873 26.6973 27.7777 26.1923 27.5795 25.8179C28.7451 26.4558 29.6022 27.5348 29.6022 28.4132C29.6022 29.9313 28.0192 30.6341 28.0192 31.5809C28.0192 32.6805 29.7125 32.8561 29.7125 34.2199C29.7125 35.3401 28.1061 36.6383 28.1061 38.0901C28.1061 39.211 28.899 40.134 30.1082 40.2879C29.7125 40.3766 29.3607 40.4429 28.987 40.4429C26.765 40.4429 24.4781 38.6184 24.4781 36.4401C24.4781 35.3618 24.9405 34.4181 25.6437 33.7355C26.26 34.2635 26.8756 34.6153 27.2707 34.6153C27.6231 34.6153 27.7777 34.4398 27.7777 34.1756C27.7777 33.3611 24.5441 32.6146 24.5441 30.8767ZM11.7879 41.7404C11.8807 42.4918 12.5807 43.0606 13.3715 42.973C13.6566 42.9416 13.9219 42.8624 14.0985 42.7531C14.274 43.4563 14.8648 43.909 15.6626 43.8043C16.4722 43.6989 17.0236 43.0609 16.9357 42.2461C16.9199 42.0713 16.8754 41.9003 16.8037 41.7401C16.8037 41.7401 16.9112 41.7296 16.9922 41.7135C17.7858 41.5635 18.3214 40.9266 18.2555 40.1564C18.1675 39.3656 17.4574 38.7779 16.7168 38.8686C16.4307 38.9039 16.1655 39.0124 15.9889 39.1674C15.7907 38.5085 15.1705 37.9344 14.3232 38.0754C13.5589 38.2017 13.0529 38.8508 13.13 39.673C13.1419 39.8064 13.1733 39.9592 13.2396 40.1121L13.0215 40.1445C12.3794 40.2401 11.6832 40.8861 11.7879 41.7404ZM15.8974 40.8753C15.9186 41.0933 15.8535 41.3109 15.7159 41.4813C15.5784 41.6517 15.3794 41.7614 15.1619 41.7867C14.9443 41.8121 14.7256 41.751 14.5525 41.6167C14.3795 41.4824 14.2661 41.2856 14.2366 41.0686C14.224 40.9596 14.2329 40.8491 14.2629 40.7435C14.2929 40.6379 14.3434 40.5392 14.4115 40.4531C14.4796 40.367 14.5641 40.2952 14.66 40.2418C14.7558 40.1883 14.8613 40.1542 14.9704 40.1415C15.0794 40.1289 15.1899 40.1378 15.2955 40.1678C15.4011 40.1978 15.4998 40.2483 15.5859 40.3164C15.672 40.3845 15.7438 40.469 15.7972 40.5649C15.8507 40.6607 15.8847 40.7662 15.8974 40.8753Z" fill="white"/>
</g>
</g>
<defs>
<clipPath id="clip0_2320_120615">
<rect width="72.32" height="80" fill="white"/>
</clipPath>
</defs>
</svg>
