<svg width="160" height="42" viewBox="0 0 160 42" fill="none" xmlns="http://www.w3.org/2000/svg">
<g id="vodafone-2017-logo-2 logo" clip-path="url(#clip0_2320_120626)">
<path id="Vector" d="M39.1421 20.6719C39.1421 25.8624 37.0802 30.8404 33.4099 34.5107C29.7396 38.181 24.7616 40.2429 19.571 40.2429C14.3805 40.2429 9.40251 38.181 5.73223 34.5107C2.06194 30.8404 0 25.8624 0 20.6719C0 15.4813 2.06194 10.5033 5.73223 6.83306C9.40251 3.16277 14.3805 1.10083 19.571 1.10083C24.7616 1.10083 29.7396 3.16277 33.4099 6.83306C37.0802 10.5033 39.1421 15.4813 39.1421 20.6719Z" fill="#EE3023"/>
<path id="Vector_2" d="M19.7327 31.5796C14.3547 31.5986 8.7589 27.0159 8.73049 19.6401C8.72103 14.7639 11.3532 10.077 14.705 7.29334C17.9905 4.57593 22.4785 2.84322 26.5499 2.82429C27.025 2.8064 27.5002 2.85743 27.9607 2.97578C26.1732 3.36976 24.5708 4.35519 23.4127 5.77271C22.2546 7.19023 21.6086 8.95696 21.579 10.7872C21.579 10.9197 21.579 11.0523 21.598 11.1091C27.563 12.5577 30.2615 16.1557 30.2804 21.136C30.2767 22.5153 30.0006 23.8801 29.4679 25.1523C28.9353 26.4245 28.1565 27.579 27.1765 28.5494C26.1964 29.5198 25.0343 30.287 23.7569 30.807C22.4794 31.327 21.1119 31.5896 19.7327 31.5796Z" fill="white"/>
<path id="Vector_3" d="M51.7831 28.7768L45.8086 14.4891H49.719L53.459 23.9763L57.0759 14.4891H60.8064L54.9929 28.7768H51.7831ZM71.2121 21.5619C71.2165 20.9872 71.1465 20.4143 71.0038 19.8576C70.8833 19.3649 70.6713 18.8992 70.3789 18.4847C70.1154 18.109 69.7729 17.7955 69.3753 17.5663C68.9511 17.3269 68.4704 17.2059 67.9834 17.2159C67.4964 17.2054 67.0156 17.3264 66.5916 17.5663C66.1898 17.7933 65.8438 18.1071 65.5785 18.4847C65.2884 18.9028 65.0796 19.3717 64.963 19.8671C64.8212 20.4207 64.7512 20.9904 64.7547 21.5619C64.75 22.1366 64.82 22.7095 64.963 23.2662C65.0823 23.7574 65.284 24.2248 65.5595 24.6486C65.8215 25.048 66.1802 25.3747 66.6024 25.5982C67.0245 25.8217 67.4964 25.9347 67.974 25.9268C68.4514 25.9413 68.9243 25.831 69.3461 25.6069C69.7679 25.3827 70.1239 25.0524 70.3789 24.6486C70.6672 24.2317 70.8788 23.7668 71.0038 23.2757C71.1477 22.7159 71.2177 22.1398 71.2121 21.5619ZM74.8196 21.5714C74.8197 22.5031 74.676 23.4293 74.3935 24.3172C74.1181 25.1931 73.6849 26.0114 73.1153 26.7316C72.5045 27.4999 71.722 28.1142 70.8308 28.5253C69.9396 28.9364 68.9643 29.1328 67.9834 29.0987C67.0015 29.1306 66.0256 28.9332 65.1332 28.5224C64.2408 28.1115 63.4564 27.4984 62.8421 26.7316C62.2738 26.0106 61.8407 25.1926 61.5639 24.3172C61.0012 22.5396 61.0012 20.6316 61.5639 18.854C61.8409 17.9873 62.2741 17.1787 62.8421 16.4679C63.4201 15.7567 64.1474 15.1814 64.9725 14.7826C65.9125 14.3369 66.9434 14.1165 67.9834 14.1387C68.9582 14.1118 69.9262 14.3076 70.8139 14.7112C71.7015 15.1148 72.4854 15.7157 73.1058 16.4679C73.6739 17.1686 74.1095 17.9639 74.3935 18.854C74.6776 19.744 74.8196 20.6529 74.8196 21.5714ZM85.8597 17.642C85.2324 17.3777 84.5612 17.2332 83.8808 17.2159C83.3488 17.1902 82.8189 17.298 82.3393 17.5295C81.8597 17.7611 81.4457 18.109 81.135 18.5415C80.8359 18.9571 80.6116 19.4217 80.4722 19.9144C80.3253 20.4221 80.252 20.9482 80.2544 21.4767C80.2511 22.0502 80.3147 22.6222 80.4438 23.181C80.5576 23.6858 80.7595 24.1665 81.0403 24.6012C81.2959 25.0012 81.6391 25.338 82.0439 25.5859C82.4416 25.8321 82.9245 25.9647 83.4642 25.9647C83.9521 25.9538 84.4299 25.8238 84.856 25.5859C85.2644 25.3935 85.6117 25.0921 85.8597 24.7149V17.642ZM86.1532 28.7768L86.0111 27.6784C85.6339 28.0883 85.1846 28.4253 84.6856 28.6726C83.9619 28.9822 83.1781 29.1259 82.3917 29.0931C81.6053 29.0603 80.8362 28.852 80.1408 28.4833C79.3952 28.0731 78.7488 27.5042 78.2471 26.8168C77.7173 26.094 77.3198 25.2829 77.073 24.4213C76.8071 23.498 76.6732 22.5417 76.6754 21.5808C76.6754 20.6435 76.8079 19.7345 77.0825 18.8445C77.3496 17.9804 77.7768 17.1742 78.3418 16.4679C78.9521 15.7113 79.73 15.1069 80.6141 14.7027C81.4982 14.2984 82.4642 14.1054 83.4358 14.1387C84.1932 14.1387 84.998 14.2807 85.8597 14.5553V9.01635H89.5334V28.7768H86.1532ZM99.8728 22.0732C99.0628 22.1274 98.2566 22.2286 97.4584 22.3762C96.663 22.5371 96.1139 22.8023 95.8014 23.1905C95.5089 23.5451 95.3483 23.9901 95.3469 24.4497C95.3469 24.9232 95.5174 25.3019 95.8677 25.5859C96.2918 25.8965 96.8104 26.0504 97.3353 26.0215C97.8087 26.0215 98.2821 25.9268 98.7271 25.728C99.148 25.5443 99.5353 25.2914 99.8728 24.98V22.0732ZM100.166 28.7578L100.024 27.6974C99.6043 28.1521 99.0862 28.505 98.5094 28.7294C97.2961 29.2096 95.9491 29.2298 94.722 28.7862C93.841 28.4925 93.0775 27.9236 92.544 27.1634C92.0104 26.4032 91.7351 25.4918 91.7584 24.5634C91.7462 23.9381 91.8793 23.3185 92.1471 22.7533C92.4149 22.1881 92.8101 21.6928 93.3018 21.3063C93.7986 20.9197 94.3508 20.6101 94.9398 20.3878C96.0675 19.9879 97.2415 19.7334 98.4336 19.6304L99.8539 19.4978V19.2895C99.8539 18.5036 99.6456 17.945 99.2384 17.6041C98.7533 17.2436 98.1564 17.0659 97.5531 17.1023C96.4799 17.1077 95.4348 17.445 94.5611 18.0681C94.3701 18.1894 94.1867 18.3222 94.0119 18.4658L92.7905 15.8904C93.3763 15.4458 94.0197 15.0828 94.7031 14.811C96.4828 14.0712 98.4582 13.9446 100.318 14.4512C100.957 14.651 101.542 14.9948 102.028 15.456C102.514 15.9172 102.888 16.4836 103.12 17.1118C103.405 17.9038 103.54 18.7417 103.518 19.583V28.7673L100.166 28.7578ZM114.871 12.2735C114.216 11.9805 113.504 11.8381 112.788 11.8569C112.286 11.8569 111.85 12.0083 111.509 12.3208C111.159 12.6238 110.989 13.1256 110.989 13.8168V14.4891H114.075V17.4526H111.017V28.7768H107.343V17.4526H105.45V14.4891H107.343V13.7316C107.343 12.7942 107.466 12.0083 107.703 11.3645C107.896 10.7878 108.222 10.2645 108.655 9.8369C109.087 9.40929 109.614 9.0893 110.193 8.90273C111.88 8.45219 113.668 8.56184 115.287 9.21519L114.871 12.2735ZM124.888 21.5619C124.891 20.9873 124.821 20.4147 124.68 19.8576C124.559 19.3649 124.347 18.8992 124.055 18.4847C123.791 18.109 123.449 17.7955 123.051 17.5663C122.627 17.3269 122.146 17.2059 121.659 17.2159C121.172 17.2054 120.692 17.3264 120.268 17.5663C119.867 17.7949 119.521 18.1083 119.254 18.4847C118.964 18.9037 118.752 19.3721 118.63 19.8671C118.341 20.985 118.341 22.1577 118.63 23.2757C118.754 23.7636 118.959 24.2275 119.236 24.6486C119.494 25.0392 119.841 25.3635 120.249 25.5954C120.682 25.8289 121.168 25.9463 121.659 25.9363C122.136 25.9481 122.608 25.8356 123.028 25.6098C123.448 25.384 123.802 25.0527 124.055 24.6486C124.343 24.2317 124.555 23.7668 124.68 23.2757C124.822 22.7156 124.892 22.1397 124.888 21.5619ZM128.496 21.5714C128.497 22.5032 128.354 23.4297 128.069 24.3172C127.796 25.1938 127.362 26.0123 126.791 26.7316C126.18 27.4999 125.398 28.1142 124.507 28.5253C123.616 28.9364 122.64 29.1328 121.659 29.0987C120.677 29.1306 119.702 28.9332 118.809 28.5224C117.917 28.1115 117.132 27.4984 116.518 26.7316C115.95 26.0106 115.517 25.1926 115.24 24.3172C114.67 22.5407 114.67 20.6304 115.24 18.854C115.514 17.988 115.944 17.1794 116.509 16.4679C117.089 15.7556 117.82 15.1802 118.649 14.7826C119.588 14.3369 120.619 14.1165 121.659 14.1387C122.634 14.1118 123.602 14.3076 124.49 14.7112C125.378 15.1148 126.161 15.7157 126.782 16.4679C127.35 17.1686 127.785 17.9639 128.069 18.854C128.354 19.744 128.496 20.6529 128.496 21.5714ZM139.905 28.7768V20.634C139.962 19.7393 139.722 18.8509 139.223 18.106C139.002 17.8167 138.714 17.5849 138.385 17.43C138.055 17.2751 137.693 17.2017 137.33 17.2159C136.768 17.2095 136.216 17.3639 135.739 17.6609C135.281 17.9375 134.858 18.2682 134.48 18.6456V28.7768H130.806V14.4891H134.158L134.328 15.6253C135.484 14.6616 136.942 14.1354 138.447 14.1387C139.204 14.1387 139.895 14.2523 140.53 14.4796C141.149 14.7032 141.704 15.0736 142.149 15.559C142.613 16.0513 142.963 16.6952 143.209 17.481C143.456 18.2764 143.579 19.2232 143.579 20.3215V28.7768H139.905ZM155.007 19.9144C154.98 19.4701 154.874 19.0341 154.694 18.6267C154.548 18.2911 154.335 17.9884 154.07 17.7367C153.611 17.3121 153.009 17.0755 152.384 17.0739C151.713 17.086 151.068 17.3379 150.566 17.784C150.264 18.0537 150.019 18.3811 149.845 18.7469C149.671 19.1128 149.572 19.5097 149.553 19.9144H155.007ZM149.468 22.5561C149.544 23.7586 149.922 24.6296 150.604 25.1599C151.355 25.7179 152.274 26.0019 153.208 25.9647C154.082 25.9636 154.948 25.8032 155.764 25.4913C156.064 25.3726 156.355 25.2334 156.635 25.0746C156.826 24.9659 157.004 24.8357 157.166 24.6864L158.15 27.6784C157.593 28.0554 156.984 28.3488 156.342 28.5495C155.17 28.909 153.951 29.094 152.725 29.0987C151.822 29.1019 150.926 28.9514 150.074 28.6537C149.246 28.3649 148.493 27.896 147.868 27.2808C147.206 26.6182 146.69 25.8249 146.353 24.9516C145.952 23.8937 145.759 22.7685 145.785 21.6376C145.785 20.4257 145.965 19.3652 146.306 18.4373C146.729 17.1653 147.549 16.062 148.644 15.2887C149.739 14.5153 151.053 14.1124 152.394 14.1387C153.257 14.1301 154.114 14.281 154.922 14.5837C155.689 14.8773 156.351 15.3412 156.91 15.9566C157.478 16.5816 157.923 17.3864 158.245 18.3805C158.576 19.3652 158.737 20.5393 158.737 21.9028V22.5561H149.468Z" fill="#EE3023"/>
</g>
<defs>
<clipPath id="clip0_2320_120626">
<rect width="160" height="41.344" fill="white"/>
</clipPath>
</defs>
</svg>
