<svg width="161" height="84" viewBox="0 0 161 84" fill="none" xmlns="http://www.w3.org/2000/svg">
<g id="vuse-1 logo" clip-path="url(#clip0_2320_120669)">
<path id="Vector" d="M21.521 18.3198C18.3402 18.8351 17.5938 18.9951 15.9235 19.5815C13.9865 20.2567 12.7249 20.8964 10.628 22.2825C8.92213 23.402 8.67335 23.6152 6.80752 25.4988C3.7511 28.573 1.47655 32.8023 0.605827 37.067C0.321508 38.4708 0.214889 44.3349 0.463668 45.7743C0.676906 47.1603 1.08561 48.6885 1.45878 49.5592C1.60094 49.8791 1.70756 50.2167 1.70756 50.3056C1.70756 50.3944 1.99188 51.1052 2.34728 51.8516C4.5152 56.5073 8.56673 60.6832 13.0803 62.9222C13.72 63.2421 14.3775 63.5619 14.5374 63.6508C16.2433 64.5215 21.3433 65.5877 23.8311 65.5877C25.8924 65.5877 29.855 64.8769 31.3477 64.2372C31.6676 64.095 32.023 63.9884 32.1474 63.9884C32.3606 63.9884 35.5059 62.4602 36.27 61.9804C37.3539 61.3051 39.5219 59.5637 40.5347 58.533C42.7915 56.294 44.4086 53.8951 45.688 50.9275C46.381 49.3282 46.4877 49.0262 46.4877 48.7774C46.4877 48.6174 46.612 48.1199 46.7542 47.6579C47.1451 46.4318 47.5539 43.4642 47.5539 41.8649C47.5539 40.2834 47.1451 37.3869 46.7364 35.912C46.15 33.8507 45.9368 33.3176 45.0661 31.4695C43.6267 28.4131 40.9079 25.1612 37.9581 22.9577C36.27 21.6961 36.2344 21.6783 34.3153 20.7365C31.401 19.2971 30.246 18.9595 25.9634 18.302C24.7196 18.1243 22.7826 18.1243 21.521 18.3198ZM33.178 31.3807C34.1909 31.7361 34.8839 32.4113 35.3993 33.513C36.1456 35.0768 36.1456 35.0413 33.6933 39.9991C32.7871 41.8293 32.0407 43.1266 31.8808 43.1621C31.6676 43.1976 31.17 42.3447 30.015 39.9635C28.007 35.8764 28.007 35.8764 28.007 34.9524C28.007 32.3402 30.6725 30.5099 33.178 31.3807ZM17.0785 32.1092C17.4694 32.1981 17.6294 32.5002 19.0865 35.5566C22.4095 42.5579 23.1025 44.015 24.3819 46.7161C24.8262 47.6579 25.3948 48.8307 25.6436 49.3282C26.6742 51.354 26.6742 52.7223 25.6436 53.8063C25.0394 54.446 24.1509 54.677 22.9426 54.4993C22.1074 54.3571 21.2011 53.593 20.7036 52.5801C20.4015 51.976 19.2997 49.6481 18.1447 47.1959C17.5228 45.8631 16.5987 43.9084 14.7684 40.0879C14.3597 39.1994 13.6667 37.76 13.258 36.8893C12.8493 36.0008 12.2451 34.7214 11.9075 34.0284C11.3033 32.7845 11.1967 32.3402 11.4277 32.127C11.5698 31.9848 16.5632 31.9671 17.0785 32.1092ZM121.032 30.7409C118.456 31.4695 116.625 32.8378 115.737 34.7214C115.328 35.5921 115.257 35.9831 115.257 37.298C115.257 38.6841 115.31 38.9329 115.79 39.768C116.288 40.6388 117.354 41.6872 118.296 42.2203C119.273 42.7889 121.086 43.5175 122.01 43.7307C125.706 44.5481 127.163 45.0279 127.891 45.6499C128.816 46.414 128.371 47.4979 126.896 48.1732C125.83 48.653 122.969 48.653 121.21 48.191C119.522 47.729 118.882 47.4269 117.372 46.3607C117.141 46.2007 116.856 46.0408 116.732 46.0053C116.448 45.9342 114.013 49.2039 114.138 49.5059C114.262 49.8791 115.968 51.1052 117.141 51.6916C119.664 52.9533 121.317 53.3265 124.266 53.3265C127.767 53.3087 130.237 52.4913 131.89 50.7498C132.867 49.7192 133.276 48.8662 133.56 47.2669C134.04 44.3349 132.814 42.2203 129.828 40.852C128.46 40.2301 127.856 39.9991 127.572 39.9991C127.412 39.9991 126.879 39.8924 126.381 39.7503C125.883 39.6081 124.959 39.3593 124.32 39.1994C122.081 38.6485 121.299 38.3465 120.766 37.8134C119.913 36.9782 120.055 36.2318 121.21 35.4677C121.672 35.1656 122.045 35.1123 124.16 35.1123C126.079 35.1123 126.719 35.1834 127.358 35.45C128.673 35.9831 129.366 36.3385 129.811 36.6583C130.664 37.298 130.948 37.1026 132.814 34.7392C133.187 34.2594 133.453 33.7441 133.436 33.6019C133.4 33.4597 132.956 33.051 132.441 32.7134C131.037 31.7716 129.988 31.3096 127.963 30.7587C126.328 30.2967 122.614 30.2967 121.032 30.7409ZM146.088 30.6699C145.697 30.812 145.288 30.9364 145.182 30.9364C144.951 30.9364 143.636 31.5228 143.067 31.8782C141.254 32.9977 139.335 35.059 138.5 36.8005C137.007 39.9635 137.007 43.7663 138.5 46.9293C139.087 48.1377 140.65 50.0923 141.681 50.8742C142.836 51.7627 144.524 52.5979 146.017 53.0421C147.332 53.4153 150.424 53.4331 151.703 53.0421C153.871 52.4024 156.839 50.5721 156.839 49.8791C156.839 49.7547 156.537 49.4171 156.181 49.1328C155.808 48.8485 155.044 48.2265 154.475 47.7645C153.907 47.2847 153.338 46.9471 153.231 47.0004C153.107 47.0715 152.787 47.2669 152.485 47.4624C151.845 47.8889 151.827 47.8889 150.726 48.2443C147.989 49.1328 144.862 47.7823 143.511 45.1701C142.818 43.8018 142.232 43.9084 151.134 43.9084C155.524 43.9084 159.362 43.8551 159.664 43.8018L160.215 43.6774V41.5806C160.215 39.8569 160.162 39.466 159.966 39.466C159.788 39.466 159.664 39.1816 159.575 38.613C159.522 38.151 159.362 37.5823 159.238 37.3336C159.095 37.0848 158.811 36.4806 158.598 36.0008C158.349 35.45 157.656 34.5792 156.768 33.673C155.257 32.1625 153.853 31.3451 151.668 30.7054C150.406 30.3145 147.101 30.3145 146.088 30.6699ZM151.401 35.7165C151.916 35.9831 152.627 36.4628 152.965 36.7827C153.587 37.3513 154.706 39.2349 154.706 39.7325C154.706 39.9457 153.853 39.9991 149.02 40.0346C145.892 40.0701 143.245 40.0524 143.156 40.0346C142.889 39.9457 142.943 39.6081 143.334 38.7019C143.813 37.6001 145.004 36.374 146.177 35.7521C147.047 35.2723 147.332 35.219 148.807 35.219C150.282 35.2012 150.548 35.2545 151.401 35.7165ZM58.2691 31.043C58.2158 31.2207 58.2513 31.5939 58.3757 31.896C58.5001 32.1981 58.66 32.6779 58.7489 32.9799C58.8377 33.2643 59.0687 33.9573 59.282 34.4904C59.4952 35.0235 59.7262 35.6632 59.8151 35.912C59.9039 36.1608 60.1349 36.8005 60.3482 37.3336C60.5614 37.8667 60.7746 38.5064 60.828 38.7552C60.8813 39.0039 61.0412 39.3593 61.1656 39.5548C61.3077 39.7503 61.4144 40.0346 61.4144 40.2123C61.4144 40.3722 61.521 40.7809 61.6631 41.1008C61.9297 41.7227 62.0185 41.9715 63.298 45.3656C65.4126 51.0519 67.8293 53.3265 71.6853 53.3265C75.7724 53.3265 78.047 51.0875 80.3393 44.7969C80.4637 44.4593 80.6769 43.8551 80.8368 43.4642C80.979 43.0732 81.21 42.4335 81.3699 42.0426C81.9386 40.4966 82.2584 39.7147 82.4894 39.1461C82.6316 38.8262 82.7382 38.4175 82.7382 38.2576C82.7382 38.0799 82.8448 37.7956 82.987 37.6001C83.1114 37.4046 83.2713 37.0493 83.3246 36.8005C83.3779 36.5517 83.5912 35.912 83.8044 35.3789C84.0176 34.8458 84.2487 34.2061 84.3375 33.9573C84.4264 33.7085 84.6574 33.0688 84.8706 32.5357C85.5814 30.7587 85.7058 30.8476 82.6671 30.7943C79.9128 30.7409 79.6463 30.812 79.4863 31.5228C79.433 31.7361 79.2198 32.358 79.0065 32.8911C78.7933 33.4242 78.5623 34.0995 78.4734 34.4015C78.3846 34.6859 78.1536 35.3789 77.9403 35.912C77.2118 37.7956 77.0341 38.3109 76.8742 38.844C76.8031 39.1283 76.5543 39.8214 76.3411 40.3545C75.5947 42.2736 75.4348 42.7534 75.2926 43.2865C75.2038 43.5708 75.0439 44.0506 74.9195 44.3527C74.0132 46.5561 73.409 47.3202 72.3251 47.6401C71.2589 47.96 70.1571 47.4446 69.4286 46.2718C69.1265 45.8098 68.8777 45.2945 68.8777 45.1523C68.8777 44.9924 68.7711 44.7258 68.6289 44.5304C68.5045 44.3349 68.3446 43.9795 68.2913 43.7307C68.2025 43.3043 68.0781 42.9666 67.2784 40.8875C67.0652 40.3545 66.8342 39.6614 66.7453 39.3771C66.6565 39.075 66.4255 38.3998 66.2122 37.8667C66.0168 37.3336 65.6436 36.3207 65.4126 35.6454C65.1816 34.9524 64.8262 33.9573 64.6129 33.4242C64.3997 32.8911 64.1509 32.1625 64.0798 31.8249C63.8311 30.8476 63.5823 30.7587 60.8457 30.7587C58.7133 30.7587 58.3579 30.7943 58.2691 31.043ZM88.7267 30.8831C88.6556 30.9364 88.6023 34.0461 88.6023 37.7956C88.6023 43.4997 88.6556 44.7258 88.8866 45.5255C89.2775 46.8405 89.6862 47.8533 89.9706 48.191C90.0949 48.3331 90.2016 48.5641 90.2016 48.6885C90.2016 48.8129 90.8235 49.5237 91.5876 50.27C93.0625 51.7449 94.2176 52.4202 96.2256 52.9888C97.7538 53.4331 101.023 53.4509 102.445 53.0421C106.674 51.816 109.304 48.9551 110.086 44.7081C110.37 43.0732 110.37 31.0963 110.068 30.9186C109.695 30.6699 105.413 30.7232 105.164 30.972C105.004 31.1319 104.951 32.7134 104.951 36.9959C104.951 43.1621 104.844 44.1927 104.133 45.3656C103.049 47.0892 101.414 47.9955 99.3886 47.9955C97.114 47.9955 95.4437 46.9293 94.4841 44.8858L93.9332 43.7307V37.3513C93.9332 31.7005 93.8977 30.9542 93.6489 30.8653C93.2758 30.7232 88.8688 30.7232 88.7267 30.8831Z" fill="#BCBCBC"/>
</g>
<defs>
<clipPath id="clip0_2320_120669">
<rect width="160" height="83.712" fill="white" transform="translate(0.214844)"/>
</clipPath>
</defs>
</svg>
